<svg width="300" height="340" viewBox="0 0 300 340" fill="none" xmlns="http://www.w3.org/2000/svg">
<path d="M299.85 339.818L299.85 -9.62019e-05L-0.000236657 -0.000122416L-0.000266365 339.818L299.85 339.818ZM45.6553 333.814L63.012 300.337L80.3686 333.814L45.6553 333.814ZM93.0897 333.814L110.5 300.289L127.857 333.766L93.0897 333.814ZM140.395 333.814L157.751 300.337L175.108 333.814L140.395 333.814ZM187.883 333.814L205.24 300.337L222.596 333.814L187.883 333.814ZM235.188 333.814L252.588 300.289L269.955 333.766L235.188 333.814ZM294.352 333.814L282.267 333.814L294.405 310.351L294.405 322.119L291.117 328.459L294.405 328.459L294.352 333.814ZM246.367 292.16L229 325.673L211.622 292.112L246.367 292.16ZM5.37922 286.156L5.37922 244.477L294.298 244.477L294.298 286.108L5.37922 286.156ZM198.879 292.16L181.512 325.673L164.187 292.112L198.879 292.16ZM151.574 292.16L134.207 325.673L116.828 292.16L151.574 292.16ZM104.14 292.16L86.7723 325.673L69.3941 292.16L104.14 292.16ZM56.8347 292.16L39.4673 325.673L22.0891 292.16L56.8347 292.16ZM5.43312 149.112L294.352 149.112L294.352 190.694L5.43311 190.694L5.43312 149.112ZM46.1404 143.108L63.012 110.579L79.8728 143.108L46.1404 143.108ZM93.6287 143.108L110.5 110.531L127.361 143.06L93.6287 143.108ZM140.934 143.108L157.805 110.579L174.666 143.108L140.934 143.108ZM188.368 143.108L205.24 110.579L222.1 143.108L188.368 143.108ZM235.673 143.108L252.588 110.531L269.459 143.06L235.673 143.108ZM294.405 196.698L294.405 210.459L284.142 230.248L266.786 196.77L294.405 196.698ZM254.205 196.698L236.848 230.176L219.491 196.698L254.205 196.698ZM206.717 196.698L189.36 230.176L172.003 196.698L206.717 196.698ZM159.412 196.698L142.055 230.176L124.698 196.698L159.412 196.698ZM111.977 196.698L94.6205 230.176L77.2638 196.698L111.977 196.698ZM64.6722 196.698L47.3155 230.176L29.9588 196.698L64.6722 196.698ZM18.6393 196.698L28.9347 196.698L47.2616 232.097L65.5885 196.698L76.1642 196.698L94.4912 232.097L112.818 196.698L123.599 196.698L141.926 232.097L160.252 196.698L170.979 196.698L189.306 232.097L207.633 196.698L218.413 196.698L236.74 232.097L255.067 196.698L265.772 196.698L284.099 232.097L294.405 212.308L294.405 228.723L289.382 238.425L278.741 238.425L260.414 202.99L242.088 238.425L231.501 238.425L213.174 202.99L194.847 238.425L184.067 238.425L165.74 202.99L147.413 238.425L136.837 238.425L118.51 202.99L100.183 238.425L89.4027 238.425L71.0758 202.99L52.7489 238.425L42.1732 238.425L23.8463 202.99L5.78889 237.813L5.78889 222.095L18.9196 196.77L18.6393 196.698ZM290.32 238.425L294.362 230.644L294.362 238.425L290.32 238.425ZM242.961 238.425L260.339 204.912L277.75 238.425L242.961 238.425ZM195.656 238.425L213.034 204.912L230.401 238.425L195.656 238.425ZM148.221 238.425L165.589 204.912L182.956 238.425L148.221 238.425ZM100.916 238.425L118.295 204.912L135.662 238.425L100.916 238.425ZM53.4281 238.425L70.8063 204.912L88.1737 238.425L53.4281 238.425ZM6.13387 238.425L23.5013 204.912L40.8687 238.425L6.13387 238.425ZM293.715 292.112L276.305 325.625L258.927 292.112L293.715 292.112ZM294.405 143.06L282.773 143.06L294.405 120.593L294.405 132.361L291.117 138.701L294.405 138.701L294.405 143.06ZM293.759 102.234L276.348 135.855L258.937 102.234L293.759 102.234ZM5.43312 95.3172L5.43313 53.6864L294.352 53.6864L294.352 95.3652L5.43312 95.3172ZM18.5746 5.97974L28.9024 5.97974L47.2293 41.3785L65.5562 5.97974L76.1643 5.97974L94.4912 41.3785L112.818 5.97974L123.599 5.97975L141.926 41.3785L160.252 5.97975L170.861 5.97975L189.187 41.3785L207.514 5.97975L218.295 5.97975L236.622 41.3785L254.949 5.97976L265.794 5.97976L284.121 41.3785L294.384 21.5658L294.384 37.9803L289.36 47.6825L278.72 47.6825L260.393 12.2598L242.066 47.6825L231.479 47.6825L213.153 12.2598L194.826 47.6825L184.045 47.6825L165.718 12.2598L147.391 47.6825L136.816 47.6825L118.489 12.2598L100.162 47.6825L89.3812 47.6825L71.0543 12.2598L52.7273 47.6825L42.1516 47.6825L23.8247 12.2598L5.76732 47.0821L5.76732 31.364L18.898 6.03976L18.5746 5.97974ZM64.6075 5.97974L47.2508 39.4572L29.8942 5.97974L64.6075 5.97974V5.97974ZM111.913 5.97974L94.5559 39.4572L77.1992 5.97974L111.913 5.97974ZM159.401 5.97975L142.044 39.4572L124.687 5.97975L159.401 5.97975ZM206.706 5.97975L189.349 39.4572L171.992 5.97975L206.706 5.97975ZM254.14 5.97976L236.783 39.4572L219.427 5.97975L254.14 5.97976V5.97976ZM294.352 19.6686L284.088 39.4693L266.732 5.99174L294.405 5.99174L294.352 19.6686ZM290.32 47.6825L294.362 39.9016L294.362 47.6825L290.32 47.6825ZM242.961 47.6825L260.382 14.181L277.75 47.6825L242.961 47.6825ZM195.656 47.6825L213.077 14.181L230.445 47.6825L195.656 47.6825ZM148.221 47.6825L165.589 14.181L182.956 47.6825L148.221 47.6825ZM100.916 47.6825L118.284 14.181L135.651 47.6825L100.916 47.6825ZM53.4281 47.6825L70.7955 14.181L88.163 47.6825L53.4281 47.6825ZM6.13389 47.6825L23.5013 14.181L40.8688 47.6825L6.13389 47.6825ZM5.44392 6.02774L17.572 6.02774L5.43313 29.4428L5.43313 17.6752L8.72121 11.3352L5.42237 11.3352L5.44392 6.02774ZM5.44391 102.282L9.52975 102.282L5.44391 110.159L5.44391 102.282ZM5.44391 112.08L10.9851 101.369L20.5906 101.369L39.4673 137.788L58.3332 101.369L67.8956 101.369L86.7723 137.788L105.638 101.369L115.341 101.369L134.217 137.788L153.083 101.369L162.678 101.369L181.566 137.788L200.432 101.369L210.134 101.369L229.021 137.788L247.887 101.369L257.439 101.369L276.305 137.788L294.362 102.966L294.362 118.648L281.717 143.024L270.451 143.024L252.588 108.61L234.724 143.06L223.135 143.06L205.283 108.61L187.419 143.06L175.647 143.06L157.794 108.61L139.931 143.06L128.342 143.06L110.489 108.61L92.6261 143.06L80.8538 143.06L63.0012 108.61L45.1379 143.06L33.5488 143.06L15.6962 108.61L5.42236 128.434L5.44391 112.08ZM56.8886 102.282L39.4781 135.903L22.0675 102.282L56.8886 102.282ZM104.194 102.282L86.7831 135.903L69.3725 102.282L104.194 102.282ZM151.628 102.282L134.217 135.903L116.807 102.282L151.628 102.282ZM198.933 102.282L181.522 135.903L164.112 102.282L198.933 102.282ZM246.367 102.282L228.957 135.903L211.546 102.282L246.367 102.282ZM15.61 110.531L32.4707 143.06L5.3361 143.06L5.3361 130.344L15.61 110.531ZM5.33609 196.746L17.572 196.746L5.43311 220.161L5.43311 208.394L8.7212 202.054L5.42236 202.054L5.33609 196.746ZM5.33608 292.112L9.37879 292.112L5.33608 299.917L5.33608 292.112ZM5.33608 301.838L10.3706 292.112L21.0002 292.112L39.4673 327.582L57.7942 292.148L68.3699 292.148L86.7723 327.582L105.099 292.148L115.88 292.148L134.261 327.582L152.587 292.148L163.152 292.148L181.566 327.582L199.892 292.148L210.673 292.148L229.054 327.582L247.381 292.148L257.978 292.148L276.305 327.582L294.405 292.76L294.405 308.442L281.275 333.766L270.915 333.766L252.588 298.368L234.261 333.766L223.653 333.766L205.326 298.368L186.999 333.766L176.218 333.766L157.891 298.368L139.565 333.766L128.957 333.766L110.63 298.368L92.3027 333.766L81.5222 333.766L63.1952 298.368L44.8683 333.766L34.2603 333.766L15.9334 298.368L5.65952 318.192L5.33608 301.838ZM15.6099 300.289L32.9666 333.766L5.33608 333.766L5.33608 320.102L15.6099 300.289Z" fill="#D5D0C2"/>
<path d="M280.616 305.67L284.929 297.457L267.842 297.457L272.1 305.67L276.304 313.872L280.616 305.67ZM272.413 300.387L280.304 300.387L278.331 304.205L276.304 308.012L274.331 304.205L272.413 300.387Z" fill="#D5D0C2"/>
<path d="M248.339 320.245L244.092 328.458L261.104 328.458L256.899 320.245L252.587 311.971L248.339 320.245ZM256.543 325.516L248.652 325.516L250.625 321.71L252.587 317.903L254.56 321.71L256.543 325.516Z" fill="#D5D0C2"/>
<path d="M233.301 305.67L237.613 297.457L220.591 297.457L224.849 305.67L229.107 313.872L233.301 305.67ZM225.097 300.387L232.999 300.387L231.026 304.205L229.054 308.012L227.07 304.205L225.097 300.387Z" fill="#D5D0C2"/>
<path d="M201.034 320.245L196.786 328.458L213.776 328.458L209.529 320.245L205.217 312.031L201.034 320.245ZM209.238 325.516L201.346 325.516L203.319 321.71L205.292 317.903L207.308 321.71L209.238 325.516Z" fill="#D5D0C2"/>
<path d="M185.814 305.67L190.062 297.457L173.039 297.457L177.297 305.67L181.61 313.872L185.814 305.67ZM177.61 300.387L185.512 300.387L183.539 304.205L181.566 308.012L179.583 304.205L177.61 300.387Z" fill="#D5D0C2"/>
<path d="M153.546 320.245L149.299 328.458L166.343 328.458L162.031 320.245L157.805 311.971L153.546 320.245ZM161.75 325.516L153.859 325.516L155.832 321.71L157.805 317.903L159.777 321.71L161.75 325.516Z" fill="#D5D0C2"/>
<path d="M138.505 305.67L142.764 297.457L125.741 297.457L130 305.67L134.312 313.872L138.505 305.67ZM130.301 300.387L138.203 300.387L136.231 304.205L134.258 308.012L132.285 304.205L130.301 300.387Z" fill="#D5D0C2"/>
<path d="M106.243 320.245L101.995 328.458L119.007 328.458L114.759 320.245L110.447 312.031L106.243 320.245ZM114.447 325.516L106.555 325.516L108.528 321.71L110.501 317.903L112.441 321.71L114.447 325.516Z" fill="#D5D0C2"/>
<path d="M91.0179 305.67L95.3301 297.457L78.3076 297.457L82.5659 305.67L86.8242 313.872L91.0179 305.67ZM82.8139 300.387L90.716 300.387L88.7216 304.205L86.7488 308.012L84.7759 304.205L82.8139 300.387Z" fill="#D5D0C2"/>
<path d="M58.7546 320.245L54.507 328.458L71.4756 328.458L67.2281 320.245L62.9158 312.031L58.7546 320.245ZM66.9585 325.516L59.0672 325.516L61.04 321.71L63.0129 317.903L65.0073 321.71L66.9585 325.516Z" fill="#D5D0C2"/>
<path d="M43.7143 305.67L47.9727 297.457L30.9502 297.457L35.2085 305.67L39.4668 313.872L43.7143 305.67ZM35.5104 300.387L43.4448 300.387L41.472 304.205L39.4991 308.012L37.5263 304.205L35.5104 300.387Z" fill="#D5D0C2"/>
<path d="M19.9624 320.245L15.6502 312.031L11.4026 320.245L7.1443 328.458L24.2207 328.458L19.9624 320.245ZM11.7584 325.516L13.7312 321.71L15.7041 317.903L17.6769 321.71L19.6605 325.516L11.7584 325.516Z" fill="#D5D0C2"/>
<path d="M19.2456 224.869L14.9873 233.083L32.0098 233.083L27.7514 224.869L23.5039 216.668L19.2456 224.869ZM27.4496 230.153L19.5474 230.153L21.5203 226.334L23.5039 222.528L25.4767 226.334L27.4496 230.153Z" fill="#D5D0C2"/>
<path d="M47.2537 218.503L51.5659 210.29L55.8135 202.077L38.8018 202.077L43.0493 210.29L47.2537 218.503ZM51.1994 205.019L49.2266 208.825L47.2537 212.632L45.2809 208.825L43.308 205.019L51.1994 205.019Z" fill="#D5D0C2"/>
<path d="M66.5474 224.869L62.2891 233.083L79.3115 233.083L75.0532 224.869L70.7949 216.668L66.5474 224.869ZM74.7514 230.153L66.8492 230.153L68.8221 226.334L70.7949 222.528L72.7785 226.334L74.7514 230.153Z" fill="#D5D0C2"/>
<path d="M94.5555 218.503L98.8677 210.29L103.115 202.077L86.1035 202.077L90.3511 210.29L94.5555 218.503ZM98.5012 205.019L96.5283 208.825L94.5555 212.632L92.5826 208.825L90.6098 205.019L98.5012 205.019Z" fill="#D5D0C2"/>
<path d="M114.036 224.869L109.777 233.083L126.8 233.083L122.541 224.869L118.229 216.668L114.036 224.869ZM122.24 230.153L114.337 230.153L116.31 226.334L118.283 222.528L120.267 226.334L122.24 230.153Z" fill="#D5D0C2"/>
<path d="M142.043 218.503L146.301 210.29L150.549 202.077L133.537 202.077L137.785 210.29L142.043 218.503ZM145.989 205.019L144.016 208.825L142.043 212.632L140.07 208.825L138.097 205.019L145.989 205.019Z" fill="#D5D0C2"/>
<path d="M161.338 224.869L157.026 233.083L174.103 233.083L169.844 224.869L165.586 216.668L161.338 224.869ZM169.542 230.153L161.64 230.153L163.613 226.334L165.586 222.528L167.559 226.334L169.542 230.153Z" fill="#D5D0C2"/>
<path d="M189.349 218.503L193.607 210.29L197.854 202.077L180.843 202.077L185.09 210.29L189.349 218.503ZM193.294 205.019L191.321 208.825L189.349 212.632L187.376 208.825L185.403 205.019L193.294 205.019Z" fill="#D5D0C2"/>
<path d="M208.827 224.869L204.568 233.083L221.591 233.083L217.333 224.869L213.02 216.668L208.827 224.869ZM217.031 230.153L209.129 230.153L211.101 226.334L213.074 222.528L215.047 226.334L217.031 230.153Z" fill="#D5D0C2"/>
<path d="M236.835 218.503L241.147 210.29L245.395 202.077L228.329 202.077L232.576 210.29L236.835 218.503ZM240.727 205.019L238.754 208.825L236.781 212.632L234.808 208.825L232.835 205.019L240.727 205.019Z" fill="#D5D0C2"/>
<path d="M256.132 224.869L251.82 233.083L268.896 233.083L264.638 224.869L260.326 216.668L256.132 224.869ZM264.336 230.153L256.434 230.153L258.407 226.334L260.38 222.528L262.353 226.334L264.336 230.153Z" fill="#D5D0C2"/>
<path d="M284.14 218.503L288.388 210.29L292.7 202.077L275.624 202.077L279.882 210.29L284.14 218.503ZM288.086 205.019L286.113 208.825L284.14 212.632L282.168 208.825L280.184 205.019L288.086 205.019Z" fill="#D5D0C2"/>
<path d="M19.2456 34.1363L14.9873 42.3496L32.0098 42.3496L27.7514 34.1363L23.5039 25.9351L19.2456 34.1363ZM27.4496 39.4197L19.5474 39.4197L21.5203 35.6013L23.5039 31.7948L25.4767 35.6013L27.4496 39.4197Z" fill="#D5D0C2"/>
<path d="M47.2537 27.7729L51.5659 19.5597L55.8135 11.3464L38.8018 11.3464L43.0493 19.5597L47.2537 27.7729ZM51.1994 14.2883L49.2266 18.0947L47.2537 21.9012L45.2809 18.0947L43.308 14.2883L51.1994 14.2883Z" fill="#D5D0C2"/>
<path d="M66.5474 34.1363L62.2891 42.3496L79.3115 42.3496L75.0532 34.1363L70.7949 25.9351L66.5474 34.1363ZM74.7082 39.3957L66.8061 39.3957L68.7789 35.5773L70.7518 31.7708L72.7354 35.5773L74.7082 39.3957Z" fill="#D5D0C2"/>
<path d="M94.5555 27.7729L98.8677 19.5597L103.115 11.3464L86.1035 11.3464L90.3511 19.5597L94.5555 27.7729ZM98.5012 14.2883L96.5283 18.0947L94.5555 21.9012L92.5826 18.0947L90.6098 14.2883L98.5012 14.2883Z" fill="#D5D0C2"/>
<path d="M114.036 34.1363L109.777 42.3496L126.8 42.3496L122.541 34.1363L118.229 25.9351L114.036 34.1363ZM122.24 39.4197L114.337 39.4197L116.31 35.6013L118.283 31.7948L120.267 35.6013L122.24 39.4197Z" fill="#D5D0C2"/>
<path d="M142.043 27.7729L146.301 19.5597L150.549 11.3464L133.537 11.3464L137.785 19.5597L142.043 27.7729ZM145.989 14.2883L144.016 18.0947L142.043 21.9012L140.07 18.0947L138.097 14.2883L145.989 14.2883Z" fill="#D5D0C2"/>
<path d="M161.338 34.1363L157.026 42.3496L174.103 42.3496L169.844 34.1363L165.586 25.9351L161.338 34.1363ZM169.575 39.3957L161.673 39.3957L163.645 35.5773L165.618 31.7708L167.591 35.5773L169.575 39.3957Z" fill="#D5D0C2"/>
<path d="M189.349 27.7729L193.607 19.5597L197.854 11.3464L180.843 11.3464L185.09 19.5597L189.349 27.7729ZM193.294 14.2883L191.321 18.0947L189.349 21.9012L187.376 18.0947L185.403 14.2883L193.294 14.2883Z" fill="#D5D0C2"/>
<path d="M208.827 34.1363L204.568 42.3496L221.591 42.3496L217.333 34.1363L213.02 25.9351L208.827 34.1363ZM217.009 39.3957L209.107 39.3957L211.08 35.5773L213.053 31.7708L215.025 35.5773L217.009 39.3957Z" fill="#D5D0C2"/>
<path d="M236.835 27.7729L241.147 19.5597L245.395 11.3464L228.329 11.3464L232.576 19.5597L236.835 27.7729ZM240.727 14.2883L238.754 18.0947L236.781 21.9012L234.808 18.0947L232.835 14.2883L240.727 14.2883Z" fill="#D5D0C2"/>
<path d="M256.132 34.1363L251.82 42.3496L268.896 42.3496L264.638 34.1363L260.326 25.9351L256.132 34.1363ZM264.336 39.3957L256.434 39.3957L258.407 35.5773L260.38 31.7708L262.353 35.5773L264.336 39.3957Z" fill="#D5D0C2"/>
<path d="M284.14 27.7729L288.388 19.5597L292.7 11.3464L275.624 11.3464L279.882 19.5597L284.14 27.7729ZM288.086 14.2883L286.113 18.0947L284.14 21.9012L282.168 18.0947L280.184 14.2883L288.086 14.2883Z" fill="#D5D0C2"/>
<path d="M289.117 251.466C289.127 251.296 289.103 251.126 289.049 250.967C288.995 250.808 288.911 250.663 288.803 250.543C288.695 250.422 288.566 250.329 288.423 250.269C288.28 250.208 288.127 250.183 287.974 250.193L263.179 249.737C262.974 249.732 262.77 249.773 262.58 249.859C262.39 249.944 262.217 250.071 262.072 250.232C261.927 250.394 261.812 250.587 261.736 250.799C261.659 251.011 261.622 251.238 261.627 251.466L262.036 272.444C262.042 272.779 262.164 273.099 262.377 273.337C262.59 273.574 262.878 273.71 263.179 273.716L281.506 274.197C281.714 274.203 281.922 274.162 282.115 274.077C282.309 273.991 282.485 273.862 282.632 273.698C282.78 273.534 282.895 273.338 282.972 273.122C283.049 272.907 283.086 272.676 283.08 272.444L282.649 257.506C282.658 257.336 282.635 257.166 282.581 257.007C282.527 256.847 282.443 256.703 282.335 256.583C282.227 256.462 282.097 256.369 281.954 256.309C281.811 256.248 281.659 256.223 281.506 256.233L269.087 256.497C268.968 256.497 268.851 256.523 268.742 256.574C268.633 256.625 268.534 256.7 268.45 256.793C268.367 256.887 268.301 256.999 268.257 257.121C268.213 257.243 268.191 257.374 268.192 257.506L268.311 266.464C268.306 266.579 268.323 266.693 268.36 266.801C268.398 266.908 268.455 267.005 268.528 267.086C268.601 267.168 268.688 267.231 268.784 267.273C268.881 267.315 268.984 267.333 269.087 267.328L275.113 267.052L275.189 267.052C275.253 267.049 275.316 267.032 275.374 267.001C275.432 266.97 275.484 266.926 275.526 266.872C275.568 266.818 275.6 266.755 275.62 266.687C275.64 266.619 275.647 266.547 275.641 266.476L275.404 262.405C275.391 262.331 275.356 262.265 275.304 262.217C275.251 262.169 275.186 262.143 275.119 262.143C275.051 262.143 274.986 262.169 274.933 262.217C274.881 262.265 274.846 262.331 274.833 262.405L274.628 265.863L269.885 265.635L269.982 258.539L280.32 258.767L279.975 270.774L264.376 271.147L264.721 253.135L286.842 252.727L286.939 277.943L262.026 278.688C261.937 278.688 261.852 278.727 261.789 278.797C261.727 278.866 261.691 278.961 261.691 279.06C261.691 279.159 261.727 279.253 261.789 279.323C261.852 279.393 261.937 279.432 262.026 279.432L287.974 280.213C288.112 280.222 288.25 280.201 288.38 280.149C288.509 280.098 288.628 280.017 288.729 279.913C288.83 279.808 288.911 279.682 288.966 279.541C289.022 279.401 289.051 279.249 289.052 279.096C289.052 279.096 289.128 251.49 289.117 251.466Z" fill="#D5D0C2"/>
<path d="M251.93 256.821L233.603 256.34C233.394 256.332 233.186 256.372 232.992 256.457C232.797 256.542 232.621 256.671 232.473 256.835C232.326 257 232.21 257.196 232.133 257.413C232.057 257.629 232.021 257.861 232.029 258.093L232.449 273.031C232.448 273.2 232.477 273.367 232.535 273.523C232.592 273.679 232.677 273.82 232.785 273.939C232.892 274.058 233.02 274.151 233.161 274.214C233.301 274.276 233.452 274.307 233.603 274.304L246.011 274.04C246.131 274.041 246.249 274.016 246.36 273.966C246.47 273.916 246.571 273.842 246.655 273.748C246.739 273.654 246.806 273.542 246.851 273.419C246.896 273.296 246.918 273.164 246.917 273.031L246.798 264.073C246.801 263.958 246.783 263.843 246.744 263.736C246.706 263.628 246.648 263.531 246.574 263.45C246.5 263.369 246.412 263.306 246.315 263.264C246.218 263.223 246.115 263.204 246.011 263.209L239.985 263.485L239.92 263.485C239.791 263.494 239.67 263.56 239.583 263.668C239.496 263.775 239.451 263.917 239.457 264.061L239.705 268.132C239.705 268.215 239.734 268.294 239.787 268.353C239.839 268.411 239.911 268.444 239.985 268.444C240.059 268.444 240.131 268.411 240.183 268.353C240.236 268.294 240.265 268.215 240.265 268.132L240.481 264.674L245.224 264.902L245.127 271.998L234.778 271.77L235.123 259.763L250.722 259.354C250.722 261.444 250.421 274.64 250.367 277.366L228.256 277.774C228.256 275.517 228.159 254.539 228.159 252.558L253.073 251.813C253.161 251.813 253.246 251.774 253.309 251.704C253.372 251.635 253.407 251.54 253.407 251.441C253.407 251.342 253.372 251.248 253.309 251.178C253.246 251.108 253.161 251.069 253.073 251.069L227.113 250.288C226.98 250.285 226.847 250.312 226.723 250.366C226.599 250.421 226.486 250.503 226.39 250.607C226.295 250.711 226.219 250.835 226.167 250.972C226.116 251.109 226.089 251.256 226.089 251.405C226.089 251.405 225.96 279.023 225.97 279.023C225.97 279.19 226 279.356 226.057 279.51C226.115 279.664 226.199 279.805 226.305 279.923C226.411 280.041 226.537 280.135 226.676 280.199C226.814 280.263 226.963 280.296 227.113 280.296L251.908 280.752C252.114 280.757 252.318 280.716 252.509 280.631C252.7 280.546 252.874 280.419 253.02 280.257C253.165 280.096 253.281 279.903 253.358 279.691C253.436 279.479 253.474 279.252 253.472 279.023L253.062 258.045C253.043 257.721 252.917 257.416 252.708 257.19C252.499 256.964 252.221 256.832 251.93 256.821V256.821Z" fill="#D5D0C2"/>
<path d="M217.446 251.465C217.446 251.128 217.325 250.804 217.111 250.565C216.897 250.327 216.606 250.192 216.303 250.192L191.508 249.736C191.302 249.731 191.098 249.773 190.907 249.858C190.716 249.943 190.542 250.07 190.396 250.231C190.25 250.392 190.135 250.585 190.058 250.797C189.98 251.009 189.941 251.236 189.944 251.465L190.354 272.443C190.362 272.779 190.487 273.1 190.702 273.337C190.917 273.574 191.205 273.71 191.508 273.716L209.834 274.196C210.044 274.204 210.252 274.165 210.447 274.08C210.642 273.995 210.819 273.866 210.968 273.702C211.116 273.537 211.233 273.341 211.311 273.124C211.388 272.908 211.425 272.676 211.419 272.443L210.988 257.505C210.998 257.334 210.974 257.163 210.92 257.003C210.865 256.843 210.78 256.698 210.671 256.577C210.562 256.456 210.43 256.363 210.286 256.304C210.142 256.244 209.988 256.22 209.834 256.232L197.426 256.497C197.307 256.495 197.188 256.52 197.078 256.57C196.967 256.62 196.867 256.694 196.783 256.788C196.698 256.882 196.631 256.994 196.587 257.117C196.542 257.24 196.519 257.372 196.521 257.505L196.639 266.463C196.636 266.578 196.654 266.693 196.693 266.801C196.732 266.908 196.79 267.005 196.863 267.086C196.937 267.167 197.025 267.231 197.122 267.272C197.219 267.314 197.322 267.332 197.426 267.327L203.452 267.051L203.517 267.051C203.647 267.042 203.768 266.976 203.855 266.869C203.941 266.761 203.987 266.619 203.981 266.475L203.733 262.404C203.733 262.322 203.703 262.242 203.651 262.184C203.598 262.125 203.527 262.092 203.452 262.092C203.378 262.092 203.307 262.125 203.254 262.184C203.202 262.242 203.172 262.322 203.172 262.404L202.957 265.863L198.213 265.634L198.31 258.538L208.659 258.766C208.659 260.603 208.379 268.312 208.314 270.774L192.715 271.182L193.071 253.17L215.182 252.762L215.279 277.978L190.365 278.723C190.276 278.723 190.191 278.762 190.129 278.832C190.066 278.902 190.031 278.996 190.031 279.095C190.031 279.194 190.066 279.288 190.129 279.358C190.191 279.428 190.276 279.467 190.365 279.467L216.324 280.248C216.458 280.251 216.591 280.224 216.715 280.17C216.839 280.115 216.952 280.033 217.047 279.929C217.143 279.825 217.218 279.701 217.27 279.564C217.322 279.427 217.349 279.28 217.349 279.131C217.349 279.131 217.456 251.489 217.446 251.465Z" fill="#D5D0C2"/>
<path d="M180.26 256.821L161.933 256.34C161.725 256.334 161.517 256.375 161.324 256.46C161.13 256.546 160.954 256.675 160.807 256.839C160.659 257.003 160.544 257.199 160.467 257.415C160.39 257.631 160.353 257.861 160.359 258.093L160.79 273.031C160.781 273.201 160.804 273.371 160.858 273.53C160.912 273.69 160.996 273.834 161.104 273.955C161.212 274.075 161.342 274.168 161.485 274.229C161.628 274.289 161.78 274.314 161.933 274.304L174.352 274.04C174.591 274.037 174.82 273.929 174.989 273.741C175.159 273.552 175.255 273.298 175.258 273.031L175.128 264.073C175.133 263.958 175.116 263.844 175.079 263.737C175.041 263.629 174.984 263.532 174.911 263.451C174.838 263.369 174.751 263.306 174.654 263.264C174.558 263.223 174.455 263.204 174.352 263.209L168.326 263.485L168.25 263.485C168.186 263.488 168.123 263.505 168.065 263.536C168.007 263.567 167.955 263.611 167.913 263.665C167.871 263.719 167.838 263.782 167.819 263.85C167.799 263.918 167.792 263.99 167.798 264.061L168.045 268.132C168.045 268.215 168.075 268.294 168.128 268.353C168.18 268.411 168.251 268.444 168.326 268.444C168.4 268.444 168.471 268.411 168.524 268.353C168.577 268.294 168.606 268.215 168.606 268.132L168.811 264.674L173.554 264.902L173.468 271.998L163.119 271.77L163.464 259.763L179.052 259.354C179.052 261.444 178.761 274.64 178.707 277.366L156.64 277.774L156.532 252.558L181.456 251.813C181.545 251.813 181.63 251.774 181.693 251.704C181.755 251.635 181.791 251.54 181.791 251.441C181.791 251.342 181.755 251.248 181.693 251.178C181.63 251.108 181.545 251.069 181.456 251.069L155.497 250.288C155.359 250.279 155.222 250.3 155.092 250.352C154.962 250.403 154.843 250.484 154.742 250.588C154.641 250.693 154.56 250.819 154.505 250.96C154.449 251.1 154.42 251.252 154.419 251.405C154.419 251.405 154.3 279.023 154.311 279.023C154.302 279.193 154.325 279.363 154.379 279.522C154.433 279.681 154.517 279.826 154.625 279.946C154.733 280.067 154.863 280.16 155.006 280.22C155.148 280.281 155.301 280.306 155.454 280.296L180.249 280.752C180.454 280.757 180.658 280.716 180.848 280.63C181.039 280.545 181.212 280.418 181.357 280.257C181.502 280.095 181.616 279.902 181.692 279.69C181.769 279.478 181.806 279.251 181.801 279.023L181.392 258.045C181.376 257.72 181.25 257.414 181.04 257.187C180.831 256.96 180.552 256.829 180.26 256.821V256.821Z" fill="#D5D0C2"/>
<path d="M145.758 251.466C145.767 251.296 145.744 251.126 145.69 250.967C145.636 250.808 145.552 250.663 145.444 250.543C145.336 250.422 145.206 250.329 145.063 250.269C144.92 250.208 144.767 250.183 144.615 250.193L119.82 249.737C119.615 249.732 119.411 249.773 119.22 249.859C119.03 249.944 118.857 250.071 118.712 250.232C118.567 250.394 118.453 250.587 118.376 250.799C118.3 251.011 118.263 251.238 118.267 251.466L118.677 272.444C118.682 272.779 118.805 273.099 119.018 273.337C119.231 273.574 119.518 273.71 119.82 273.716L138.147 274.197C138.355 274.203 138.562 274.162 138.756 274.077C138.949 273.991 139.125 273.862 139.273 273.698C139.42 273.534 139.536 273.338 139.613 273.122C139.69 272.907 139.726 272.676 139.72 272.444L139.289 257.506C139.299 257.336 139.276 257.166 139.222 257.007C139.167 256.847 139.084 256.703 138.976 256.583C138.867 256.462 138.738 256.369 138.595 256.309C138.452 256.248 138.299 256.223 138.147 256.233L125.727 256.497C125.488 256.5 125.259 256.608 125.09 256.796C124.921 256.985 124.825 257.239 124.822 257.506L124.951 266.464C124.947 266.579 124.963 266.693 125.001 266.801C125.038 266.908 125.095 267.005 125.168 267.086C125.241 267.168 125.329 267.231 125.425 267.273C125.521 267.315 125.624 267.333 125.727 267.328L131.754 267.052L131.84 267.052C131.904 267.049 131.967 267.032 132.025 267.001C132.083 266.97 132.135 266.926 132.177 266.872C132.22 266.818 132.252 266.755 132.272 266.687C132.291 266.619 132.299 266.547 132.293 266.476L132.045 262.405C132.045 262.322 132.015 262.243 131.963 262.184C131.91 262.126 131.839 262.093 131.764 262.093C131.69 262.093 131.619 262.126 131.566 262.184C131.514 262.243 131.484 262.322 131.484 262.405L131.279 265.863L126.536 265.635C126.536 264.434 126.611 259.98 126.622 258.539L136.971 258.767L136.626 270.774L121.059 271.147L121.404 253.135L143.515 252.727L143.623 277.943L118.698 278.688C118.61 278.688 118.525 278.727 118.462 278.797C118.399 278.866 118.364 278.961 118.364 279.06C118.364 279.159 118.399 279.253 118.462 279.323C118.525 279.393 118.61 279.432 118.698 279.432L144.658 280.213C144.795 280.222 144.933 280.201 145.063 280.149C145.193 280.098 145.312 280.017 145.413 279.913C145.514 279.808 145.594 279.682 145.65 279.541C145.706 279.401 145.735 279.249 145.736 279.096C145.736 279.096 145.768 251.49 145.758 251.466Z" fill="#D5D0C2"/>
<path d="M108.581 256.821L90.2544 256.34C90.0452 256.332 89.8366 256.372 89.6417 256.457C89.4468 256.542 89.2696 256.67 89.121 256.835C88.9725 256.999 88.8558 257.195 88.7782 257.412C88.7005 257.628 88.6636 257.86 88.6696 258.093L89.1008 273.031C89.0912 273.202 89.1145 273.373 89.1692 273.533C89.224 273.694 89.3088 273.839 89.4181 273.959C89.5273 274.08 89.6585 274.173 89.8027 274.232C89.947 274.292 90.101 274.316 90.2544 274.304L102.663 274.04C102.782 274.041 102.9 274.016 103.011 273.966C103.122 273.916 103.222 273.842 103.306 273.748C103.391 273.654 103.457 273.542 103.502 273.419C103.547 273.296 103.57 273.164 103.568 273.031L103.45 264.073C103.453 263.958 103.434 263.843 103.396 263.736C103.357 263.628 103.299 263.531 103.225 263.45C103.151 263.369 103.063 263.306 102.967 263.264C102.87 263.223 102.766 263.204 102.663 263.209L96.6364 263.485L96.5717 263.485C96.4421 263.494 96.3209 263.56 96.2342 263.668C96.1475 263.775 96.1023 263.917 96.1082 264.061L96.3561 268.132C96.3561 268.215 96.3857 268.294 96.4382 268.353C96.4908 268.411 96.5621 268.444 96.6364 268.444C96.7108 268.444 96.7821 268.411 96.8346 268.353C96.8872 268.294 96.9167 268.215 96.9167 268.132L97.1215 264.674L101.876 264.902L101.779 271.998L91.4294 271.77L91.7744 259.763L107.374 259.354L107.018 277.366L84.9072 277.774L84.8102 252.558L109.724 251.813C109.813 251.813 109.898 251.774 109.96 251.704C110.023 251.635 110.058 251.54 110.058 251.441C110.058 251.342 110.023 251.248 109.96 251.178C109.898 251.108 109.813 251.069 109.724 251.069L83.7645 250.288C83.4912 250.288 83.2278 250.403 83.0276 250.61C82.8275 250.817 82.7055 251.102 82.6864 251.405C82.6864 251.405 82.5678 279.023 82.5786 279.023C82.5786 279.19 82.6082 279.356 82.6656 279.51C82.723 279.664 82.8072 279.805 82.9133 279.923C83.0194 280.041 83.1454 280.135 83.284 280.199C83.4227 280.263 83.5713 280.296 83.7213 280.296L108.517 280.752C108.722 280.757 108.925 280.716 109.116 280.63C109.306 280.545 109.479 280.418 109.624 280.257C109.769 280.095 109.883 279.902 109.96 279.69C110.036 279.478 110.073 279.251 110.069 279.023L109.659 258.045C109.644 257.73 109.527 257.432 109.328 257.206C109.13 256.981 108.864 256.844 108.581 256.821V256.821Z" fill="#D5D0C2"/>
<path d="M74.0908 251.465C74.0908 251.128 73.9704 250.804 73.7561 250.565C73.5418 250.327 73.2512 250.192 72.9481 250.192L48.1528 249.736C47.9469 249.73 47.7419 249.77 47.5503 249.854C47.3587 249.939 47.1844 250.066 47.0382 250.227C46.892 250.389 46.7769 250.582 46.6998 250.795C46.6227 251.008 46.5852 251.236 46.5897 251.465L46.9993 272.443C47.0076 272.78 47.1321 273.1 47.347 273.337C47.5618 273.574 47.8505 273.71 48.1528 273.716L66.4798 274.196C66.6885 274.204 66.8965 274.165 67.0909 274.08C67.2853 273.994 67.4618 273.866 67.6095 273.701C67.7572 273.537 67.8729 273.34 67.9493 273.123C68.0257 272.907 68.0613 272.675 68.0537 272.443L67.6225 257.505C67.632 257.335 67.6089 257.165 67.5548 257.006C67.5007 256.847 67.4169 256.702 67.3088 256.582C67.2008 256.461 67.071 256.368 66.928 256.308C66.7851 256.248 66.6323 256.222 66.4798 256.232L54.0606 256.497C53.9422 256.497 53.8249 256.523 53.7157 256.574C53.6064 256.624 53.5073 256.699 53.4241 256.793C53.3408 256.886 53.2751 256.998 53.2308 257.12C53.1865 257.242 53.1644 257.373 53.1658 257.505L53.2844 266.463C53.2798 266.578 53.2967 266.693 53.3341 266.8C53.3715 266.907 53.4285 267.004 53.5015 267.086C53.5745 267.167 53.662 267.23 53.7582 267.272C53.8545 267.314 53.9574 267.333 54.0606 267.327L60.0977 267.051L60.1624 267.051C60.2266 267.048 60.2897 267.031 60.3477 267C60.4057 266.969 60.4575 266.925 60.4998 266.871C60.5422 266.817 60.5742 266.754 60.594 266.686C60.6139 266.618 60.621 266.546 60.6151 266.475L60.378 262.404C60.378 262.322 60.3485 262.242 60.2959 262.184C60.2433 262.125 60.172 262.092 60.0977 262.092C60.0234 262.092 59.952 262.125 59.8995 262.184C59.8469 262.242 59.8174 262.322 59.8174 262.404L59.6018 265.863L54.8583 265.634L54.9554 258.538L65.3047 258.766L64.9597 270.774L49.3603 271.182L49.716 253.17L71.8269 252.762L71.924 277.978L47.0101 278.723C46.9215 278.723 46.8365 278.762 46.7738 278.832C46.7111 278.902 46.6759 278.996 46.6759 279.095C46.6759 279.194 46.7111 279.288 46.7738 279.358C46.8365 279.428 46.9215 279.467 47.0101 279.467L72.9697 280.248C73.1031 280.251 73.2358 280.224 73.36 280.17C73.4841 280.115 73.5972 280.033 73.6926 279.929C73.788 279.825 73.8637 279.701 73.9155 279.564C73.9672 279.427 73.9938 279.28 73.9938 279.131C73.9938 279.131 74.0908 251.489 74.0908 251.465Z" fill="#D5D0C2"/>
<path d="M36.9138 256.822L18.5869 256.342C18.3786 256.335 18.1713 256.376 17.9776 256.462C17.7839 256.548 17.608 256.677 17.4607 256.841C17.3133 257.005 17.1976 257.201 17.1206 257.417C17.0436 257.632 17.007 257.863 17.013 258.095L17.4442 273.033C17.4347 273.203 17.4578 273.373 17.5118 273.532C17.5659 273.691 17.6498 273.836 17.7578 273.956C17.8659 274.077 17.9957 274.17 18.1386 274.23C18.2816 274.291 18.4344 274.316 18.5869 274.306L31.0061 274.042C31.1245 274.042 31.2418 274.015 31.351 273.965C31.4603 273.914 31.5594 273.839 31.6426 273.745C31.7259 273.652 31.7915 273.54 31.8359 273.418C31.8802 273.296 31.9023 273.165 31.9009 273.033L31.7823 264.075C31.7869 263.96 31.7699 263.845 31.7326 263.738C31.6952 263.631 31.6381 263.534 31.5651 263.452C31.4921 263.371 31.4047 263.308 31.3085 263.266C31.2122 263.224 31.1092 263.205 31.0061 263.211L24.9798 263.487L24.9043 263.487C24.84 263.49 24.777 263.507 24.719 263.538C24.661 263.569 24.6092 263.613 24.5669 263.667C24.5245 263.721 24.4925 263.784 24.4726 263.852C24.4528 263.92 24.4456 263.992 24.4515 264.063L24.6887 268.134C24.7016 268.208 24.7372 268.274 24.7893 268.322C24.8414 268.37 24.9068 268.396 24.9744 268.396C25.0419 268.396 25.1073 268.37 25.1594 268.322C25.2115 268.274 25.2471 268.208 25.2601 268.134L25.4649 264.675L30.2083 264.904C30.2083 266.104 30.1329 270.559 30.1113 272L19.762 271.772L20.107 259.764L35.7064 259.356C35.7064 261.445 35.4045 274.642 35.3614 277.368L13.2613 277.776C13.2613 275.518 13.1751 254.541 13.1643 252.56L38.0781 251.815C38.1667 251.815 38.2517 251.776 38.3144 251.706C38.3771 251.636 38.4123 251.542 38.4123 251.443C38.4123 251.344 38.3771 251.25 38.3144 251.18C38.2517 251.11 38.1667 251.071 38.0781 251.071L12.1294 250.29C11.9919 250.28 11.854 250.302 11.7242 250.354C11.5944 250.405 11.4754 250.486 11.3745 250.59C11.2736 250.695 11.1929 250.821 11.1373 250.961C11.0818 251.102 11.0525 251.253 11.0513 251.407C11.0513 251.407 10.9327 279.025 10.9327 279.025C10.9258 279.206 10.9539 279.388 11.0153 279.556C11.0766 279.725 11.1696 279.877 11.2881 280.002C11.4066 280.127 11.5479 280.223 11.7023 280.282C11.8567 280.341 12.0207 280.363 12.1833 280.346L36.9785 280.802C37.1836 280.807 37.3874 280.765 37.5778 280.68C37.7681 280.595 37.941 280.468 38.086 280.306C38.2311 280.145 38.3453 279.952 38.4217 279.74C38.4982 279.528 38.5353 279.301 38.5309 279.073L38.1212 258.095C38.117 257.923 38.0825 257.754 38.0195 257.597C37.9566 257.44 37.8665 257.298 37.7543 257.18C37.6422 257.062 37.5102 256.97 37.366 256.908C37.2218 256.847 37.0681 256.818 36.9138 256.822Z" fill="#D5D0C2"/>
<path d="M280.616 115.91L284.929 107.697L267.842 107.697L272.1 115.91L276.304 124.111L280.616 115.91ZM272.413 110.627L280.304 110.627L278.331 114.445L276.304 118.252L274.331 114.445L272.413 110.627Z" fill="#D5D0C2"/>
<path d="M248.339 130.487L244.092 138.701L261.104 138.701L256.856 130.487L252.587 122.25L248.339 130.487ZM256.543 135.759L248.652 135.759L250.625 131.952L252.587 128.146L254.56 131.952L256.543 135.759Z" fill="#D5D0C2"/>
<path d="M233.301 115.91L237.613 107.697L220.591 107.697L224.849 115.91L229.107 124.111L233.301 115.91ZM225.097 110.627L232.999 110.627L231.026 114.445L229.054 118.252L227.07 114.445L225.097 110.627Z" fill="#D5D0C2"/>
<path d="M201.034 130.487L196.786 138.701L213.776 138.701L209.529 130.487L205.217 122.274L201.034 130.487ZM209.238 135.759L201.346 135.759L203.319 131.952L205.292 128.146L207.308 131.952L209.238 135.759Z" fill="#D5D0C2"/>
<path d="M185.814 115.91L190.062 107.697L173.039 107.697L177.297 115.91L181.61 124.111L185.814 115.91ZM177.61 110.627L185.512 110.627L183.539 114.445L181.566 118.252L179.583 114.445L177.61 110.627Z" fill="#D5D0C2"/>
<path d="M153.546 130.487L149.299 138.701L166.343 138.701L162.095 130.487L157.837 122.274L153.546 130.487ZM161.75 135.759L153.859 135.759L155.832 131.952L157.805 128.146L159.777 131.952L161.75 135.759Z" fill="#D5D0C2"/>
<path d="M138.505 115.91L142.764 107.697L125.741 107.697L130 115.91L134.312 124.111L138.505 115.91ZM130.301 110.627L138.203 110.627L136.231 114.445L134.258 118.252L132.285 114.445L130.301 110.627Z" fill="#D5D0C2"/>
<path d="M106.243 130.487L101.995 138.701L119.007 138.701L114.759 130.487L110.447 122.274L106.243 130.487ZM114.447 135.759L106.555 135.759L108.528 131.952L110.501 128.146L112.441 131.952L114.447 135.759Z" fill="#D5D0C2"/>
<path d="M91.0179 115.91L95.3301 107.697L78.3076 107.697L82.5659 115.91L86.8242 124.111L91.0179 115.91ZM82.8139 110.627L90.716 110.627L88.7216 114.445L86.7488 118.252L84.7759 114.445L82.8139 110.627Z" fill="#D5D0C2"/>
<path d="M58.7546 130.487L54.507 138.701L71.4756 138.701L67.2281 130.487L62.9158 122.274L58.7546 130.487ZM66.9585 135.759L59.0672 135.759L61.04 131.952L63.0129 128.146L65.0073 131.952L66.9585 135.759Z" fill="#D5D0C2"/>
<path d="M43.7143 115.91L47.9727 107.697L30.9502 107.697L35.2085 115.91L39.4668 124.111L43.7143 115.91ZM35.5104 110.627L43.4448 110.627L41.472 114.445L39.4991 118.252L37.5263 114.445L35.5104 110.627Z" fill="#D5D0C2"/>
<path d="M19.9624 130.487L15.6502 122.274L11.4026 130.487L7.1443 138.701L24.2207 138.701L19.9624 130.487ZM11.7584 135.759L13.7312 131.952L15.7041 128.146L17.6769 131.952L19.6605 135.759L11.7584 135.759Z" fill="#D5D0C2"/>
<path d="M289.117 61.7059C289.127 61.536 289.103 61.3658 289.049 61.2066C288.995 61.0474 288.911 60.9028 288.803 60.7825C288.695 60.6621 288.566 60.5687 288.423 60.5085C288.28 60.4483 288.127 60.4225 287.974 60.4331L263.179 59.9768C262.974 59.9719 262.77 60.0132 262.58 60.0984C262.39 60.1836 262.217 60.3107 262.072 60.4723C261.927 60.6338 261.812 60.8264 261.736 61.0384C261.659 61.2505 261.622 61.4775 261.627 61.7059L262.058 82.6234C262.063 82.959 262.186 83.2792 262.399 83.5166C262.612 83.7539 262.899 83.89 263.201 83.8962L281.528 84.3765C281.733 84.3782 281.937 84.3337 282.127 84.2458C282.317 84.1578 282.489 84.0282 282.633 83.8645C282.776 83.7009 282.889 83.5067 282.964 83.2934C283.039 83.0802 283.075 82.8523 283.069 82.6234L282.638 67.6858C282.647 67.5159 282.624 67.3457 282.57 67.1865C282.516 67.0273 282.432 66.8827 282.324 66.7623C282.216 66.642 282.086 66.5486 281.943 66.4884C281.801 66.4281 281.648 66.4024 281.495 66.4129L269.076 66.6771C268.957 66.6755 268.839 66.7005 268.729 66.7508C268.619 66.801 268.52 66.8754 268.436 66.9696C268.353 67.0638 268.287 67.1757 268.243 67.2987C268.199 67.4218 268.178 67.5534 268.181 67.6858L268.3 76.6435C268.295 76.7584 268.312 76.8731 268.35 76.9803C268.387 77.0875 268.444 77.1849 268.517 77.2662C268.59 77.3475 268.677 77.411 268.774 77.4527C268.87 77.4943 268.973 77.5132 269.076 77.5081L275.102 77.2199L275.178 77.2199C275.242 77.2153 275.304 77.1968 275.361 77.1653C275.419 77.1338 275.47 77.09 275.512 77.0365C275.554 76.9829 275.586 76.9207 275.606 76.8532C275.627 76.7858 275.635 76.7145 275.631 76.6435L275.393 72.5729C275.381 72.4991 275.345 72.4326 275.293 72.3848C275.241 72.337 275.175 72.3108 275.108 72.3108C275.04 72.3108 274.975 72.337 274.923 72.3848C274.871 72.4326 274.835 72.4991 274.822 72.5729L274.617 76.0311L269.874 75.803L269.971 68.7064L280.309 68.9346L279.964 80.9423L264.376 81.4226L264.721 63.411L286.842 63.0027L286.939 88.219L262.026 88.9634C261.937 88.9634 261.852 89.0027 261.789 89.0725C261.727 89.1423 261.691 89.2369 261.691 89.3357C261.691 89.4344 261.727 89.5291 261.789 89.5989C261.852 89.6687 261.937 89.7079 262.026 89.7079L287.974 90.4884C288.112 90.4982 288.25 90.4767 288.38 90.4251C288.509 90.3736 288.628 90.293 288.729 90.1885C288.83 90.084 288.911 89.9577 288.966 89.8172C289.022 89.6768 289.051 89.5252 289.052 89.3717C289.052 89.3717 289.128 61.7299 289.117 61.7059Z" fill="#D5D0C2"/>
<path d="M251.931 67.0153L233.604 66.535C233.397 66.5378 233.194 66.5873 233.005 66.6805C232.817 66.7737 232.647 66.9087 232.507 67.0772C232.367 67.2457 232.259 67.4442 232.19 67.6606C232.121 67.8771 232.092 68.1069 232.105 68.3362L232.526 83.2738C232.526 83.4419 232.556 83.6084 232.614 83.7636C232.672 83.9189 232.757 84.0597 232.864 84.1781C232.971 84.2964 233.099 84.3899 233.239 84.4531C233.378 84.5164 233.528 84.5482 233.679 84.5466L246.088 84.2824C246.207 84.284 246.325 84.259 246.436 84.2089C246.546 84.1588 246.647 84.0846 246.731 83.9906C246.816 83.8966 246.882 83.7848 246.927 83.6617C246.972 83.5386 246.995 83.4067 246.993 83.2738L246.875 74.316C246.878 74.2005 246.859 74.0856 246.821 73.9783C246.782 73.8711 246.724 73.7739 246.65 73.6928C246.576 73.6116 246.488 73.5483 246.391 73.5068C246.295 73.4653 246.191 73.4464 246.088 73.4514L240.061 73.7276L239.997 73.7276C239.867 73.7369 239.746 73.8025 239.659 73.9103C239.572 74.0181 239.527 74.1595 239.533 74.304L239.781 78.3746C239.781 78.4574 239.81 78.5368 239.863 78.5954C239.916 78.6539 239.987 78.6868 240.061 78.6868C240.136 78.6868 240.207 78.6539 240.259 78.5954C240.312 78.5368 240.342 78.4574 240.342 78.3746L240.557 74.9164L245.301 75.1445L245.204 82.2411L234.854 82.0129L235.199 70.0052L250.799 69.597C250.799 71.6863 250.497 84.8828 250.443 87.6085L228.332 88.0168C228.332 85.7594 228.235 64.7819 228.235 62.8006L253.149 62.0561C253.237 62.0561 253.322 62.0169 253.385 61.9471C253.448 61.8773 253.483 61.7826 253.483 61.6839C253.483 61.5852 253.448 61.4905 253.385 61.4207C253.322 61.3509 253.237 61.3116 253.149 61.3116L227.189 60.5312C227.056 60.528 226.923 60.5545 226.799 60.6092C226.675 60.6639 226.562 60.7456 226.466 60.8496C226.371 60.9536 226.295 61.0778 226.243 61.2149C226.192 61.352 226.165 61.4992 226.165 61.6479C226.165 61.6479 226.036 89.2656 226.047 89.2656C226.049 89.6022 226.171 89.9242 226.384 90.1622C226.598 90.4002 226.887 90.5353 227.189 90.5384L251.985 90.9947C252.19 90.9996 252.394 90.9583 252.585 90.8733C252.776 90.7882 252.95 90.6612 253.096 90.4999C253.242 90.3385 253.357 90.146 253.434 89.934C253.512 89.7219 253.551 89.4946 253.548 89.2656L253.138 68.2881C253.134 68.1162 253.099 67.9469 253.036 67.7899C252.973 67.6329 252.883 67.4912 252.771 67.373C252.659 67.2548 252.527 67.1624 252.383 67.101C252.239 67.0396 252.085 67.0105 251.931 67.0153Z" fill="#D5D0C2"/>
<path d="M217.445 61.7092C217.447 61.5416 217.418 61.3754 217.361 61.2202C217.304 61.0651 217.22 60.9241 217.114 60.8056C217.007 60.6871 216.881 60.5934 216.742 60.53C216.602 60.4666 216.453 60.4348 216.303 60.4364L191.507 59.9801C191.302 59.9752 191.097 60.0165 190.907 60.1015C190.716 60.1866 190.542 60.3136 190.396 60.4749C190.25 60.6363 190.135 60.8288 190.057 61.0409C189.98 61.2529 189.941 61.4802 189.944 61.7092L190.375 82.6266C190.384 82.9634 190.508 83.2836 190.723 83.5207C190.938 83.7577 191.227 83.8934 191.529 83.8995L209.856 84.3798C210.065 84.3881 210.274 84.3485 210.469 84.2635C210.663 84.1785 210.841 84.0498 210.989 83.8855C211.138 83.7212 211.254 83.5247 211.332 83.3082C211.41 83.0917 211.447 82.8597 211.441 82.6266L211.009 67.689C211.019 67.5181 210.996 67.3468 210.941 67.1867C210.886 67.0266 210.801 66.8814 210.692 66.7608C210.583 66.6403 210.452 66.5472 210.307 66.4877C210.163 66.4283 210.009 66.4039 209.856 66.4162L197.447 66.6804C197.328 66.6788 197.21 66.7038 197.099 66.7539C196.989 66.804 196.888 66.8782 196.804 66.9722C196.72 67.0662 196.653 67.1781 196.608 67.3012C196.563 67.4243 196.54 67.5561 196.542 67.689L196.66 76.6468C196.657 76.7623 196.676 76.8772 196.714 76.9845C196.753 77.0917 196.811 77.1889 196.885 77.27C196.959 77.3512 197.047 77.4145 197.144 77.456C197.24 77.4975 197.344 77.5163 197.447 77.5113L203.474 77.2232L203.538 77.2232C203.668 77.2139 203.789 77.1483 203.876 77.0405C203.963 76.9327 204.008 76.7913 204.002 76.6468L203.754 72.5762C203.754 72.4934 203.725 72.414 203.672 72.3554C203.619 72.2969 203.548 72.264 203.474 72.264C203.399 72.264 203.328 72.2969 203.276 72.3554C203.223 72.414 203.193 72.4934 203.193 72.5762L202.978 76.0344L198.234 75.8063L198.331 68.7097L208.681 68.9379C208.681 70.775 208.4 78.472 208.336 80.9456L192.736 81.3538L193.092 63.3422L215.203 62.934L215.3 88.1502L190.386 88.8947C190.298 88.8947 190.213 88.9339 190.15 89.0037C190.087 89.0735 190.052 89.1682 190.052 89.2669C190.052 89.3656 190.087 89.4603 190.15 89.5301C190.213 89.5999 190.298 89.6391 190.386 89.6391L216.346 90.4197C216.479 90.4229 216.612 90.3963 216.736 90.3416C216.86 90.287 216.973 90.2052 217.069 90.1012C217.164 89.9972 217.24 89.873 217.292 89.7359C217.343 89.5988 217.37 89.4516 217.37 89.3029C217.37 89.3029 217.456 61.7332 217.445 61.7092Z" fill="#D5D0C2"/>
<path d="M180.261 67.0135L161.934 66.5332C161.725 66.5248 161.517 66.5644 161.323 66.6495C161.128 66.7347 160.952 66.8635 160.804 67.028C160.657 67.1925 160.541 67.3891 160.464 67.6056C160.388 67.8221 160.353 68.0539 160.36 68.2864L160.791 83.224C160.782 83.3939 160.805 83.564 160.859 83.7232C160.913 83.8824 160.997 84.027 161.105 84.1474C161.213 84.2677 161.343 84.3612 161.486 84.4214C161.629 84.4816 161.781 84.5073 161.934 84.4968L174.353 84.2326C174.592 84.2295 174.821 84.1222 174.99 83.9337C175.16 83.7452 175.256 83.4905 175.259 83.224L175.129 74.2662C175.134 74.1513 175.117 74.0366 175.08 73.9294C175.042 73.8222 174.985 73.7248 174.912 73.6435C174.839 73.5622 174.752 73.4987 174.656 73.457C174.559 73.4154 174.456 73.3965 174.353 73.4017L168.327 73.6778L168.251 73.6778C168.187 73.6808 168.124 73.6982 168.066 73.7292C168.008 73.7601 167.956 73.8039 167.914 73.8578C167.872 73.9117 167.84 73.9746 167.82 74.0428C167.8 74.1109 167.793 74.1829 167.799 74.2542L168.047 78.3248C168.047 78.4076 168.076 78.487 168.129 78.5456C168.181 78.6041 168.253 78.637 168.327 78.637C168.401 78.637 168.472 78.6041 168.525 78.5456C168.578 78.487 168.607 78.4076 168.607 78.3248L168.812 74.8666L173.555 75.0948L173.469 82.1913L163.12 81.9632L163.465 69.9554L179.053 69.5472C179.053 71.6365 178.762 84.833 178.709 87.5588L156.598 87.967L156.49 62.7508L181.414 62.0063C181.503 62.0063 181.588 61.9671 181.651 61.8973C181.713 61.8275 181.749 61.7328 181.749 61.6341C181.749 61.5353 181.713 61.4407 181.651 61.3709C181.588 61.3011 181.503 61.2618 181.414 61.2618L155.455 60.4813C155.317 60.4715 155.18 60.4931 155.05 60.5446C154.92 60.5962 154.801 60.6767 154.7 60.7812C154.599 60.8858 154.518 61.0121 154.463 61.1526C154.407 61.293 154.378 61.4446 154.377 61.598C154.377 61.598 154.258 89.2158 154.269 89.2158C154.268 89.3834 154.296 89.5496 154.353 89.7048C154.41 89.8599 154.494 90.0009 154.601 90.1194C154.707 90.2379 154.833 90.3316 154.973 90.395C155.112 90.4584 155.261 90.4902 155.412 90.4886L180.207 90.9449C180.412 90.9498 180.616 90.9085 180.806 90.8233C180.997 90.7382 181.17 90.611 181.315 90.4494C181.46 90.2879 181.574 90.0953 181.65 89.8833C181.727 89.6713 181.764 89.4442 181.759 89.2158L181.436 68.3344C181.439 68.1611 181.411 67.9889 181.353 67.8279C181.295 67.667 181.208 67.5206 181.099 67.3975C180.989 67.2744 180.859 67.1769 180.715 67.111C180.571 67.045 180.417 67.0119 180.261 67.0135V67.0135Z" fill="#D5D0C2"/>
<path d="M145.758 61.7059C145.767 61.536 145.744 61.3658 145.69 61.2066C145.636 61.0474 145.552 60.9028 145.444 60.7825C145.336 60.6621 145.206 60.5687 145.063 60.5085C144.92 60.4483 144.767 60.4225 144.615 60.4331L119.82 59.9768C119.615 59.9719 119.411 60.0132 119.22 60.0984C119.03 60.1836 118.857 60.3107 118.712 60.4723C118.567 60.6338 118.453 60.8264 118.376 61.0384C118.3 61.2505 118.263 61.4775 118.267 61.7059L118.698 82.6234C118.704 82.959 118.826 83.2792 119.039 83.5166C119.252 83.7539 119.54 83.89 119.841 83.8962L138.168 84.3765C138.374 84.3782 138.578 84.3337 138.767 84.2458C138.957 84.1578 139.129 84.0282 139.273 83.8645C139.417 83.7009 139.53 83.5067 139.605 83.2934C139.68 83.0802 139.715 82.8523 139.71 82.6234L139.278 67.6858C139.288 67.5159 139.265 67.3457 139.211 67.1865C139.157 67.0273 139.073 66.8827 138.965 66.7623C138.857 66.642 138.727 66.5486 138.584 66.4884C138.441 66.4281 138.288 66.4024 138.136 66.4129L125.717 66.6771C125.476 66.6771 125.246 66.7834 125.076 66.9725C124.906 67.1617 124.811 67.4182 124.811 67.6858L124.94 76.6435C124.936 76.7584 124.953 76.8731 124.99 76.9803C125.027 77.0875 125.084 77.1849 125.157 77.2662C125.23 77.3475 125.318 77.411 125.414 77.4527C125.51 77.4943 125.613 77.5132 125.717 77.5081L131.743 77.2199L131.84 77.2199C131.904 77.2153 131.966 77.1968 132.023 77.1653C132.081 77.1338 132.132 77.09 132.174 77.0365C132.216 76.9829 132.248 76.9207 132.268 76.8532C132.289 76.7858 132.297 76.7145 132.293 76.6435L132.045 72.5729C132.045 72.4901 132.015 72.4107 131.963 72.3522C131.91 72.2936 131.839 72.2607 131.764 72.2607C131.69 72.2607 131.619 72.2936 131.566 72.3522C131.514 72.4107 131.484 72.4901 131.484 72.5729L131.279 76.0311L126.536 75.803C126.536 74.6022 126.611 70.1473 126.622 68.7064L136.971 68.9346L136.626 80.9423L121.059 81.4226L121.404 63.411L143.515 63.0027L143.623 88.219L118.698 88.9634C118.61 88.9634 118.525 89.0027 118.462 89.0725C118.399 89.1423 118.364 89.2369 118.364 89.3357C118.364 89.4344 118.399 89.5291 118.462 89.5989C118.525 89.6687 118.61 89.7079 118.698 89.7079L144.658 90.4884C144.795 90.4982 144.933 90.4767 145.063 90.4251C145.193 90.3736 145.312 90.293 145.413 90.1885C145.514 90.084 145.594 89.9577 145.65 89.8172C145.706 89.6768 145.735 89.5252 145.736 89.3717C145.736 89.3717 145.768 61.7299 145.758 61.7059Z" fill="#D5D0C2"/>
<path d="M108.582 67.0153L90.2552 66.535C90.0467 66.5346 89.8403 66.5817 89.6487 66.6733C89.4571 66.765 89.2843 66.8992 89.141 67.0679C88.9977 67.2365 88.8868 67.436 88.8151 67.6541C88.7434 67.8722 88.7126 68.1043 88.7243 68.3362L89.1555 83.2738C89.1459 83.4447 89.1692 83.616 89.2239 83.7761C89.2787 83.9362 89.3635 84.0814 89.4728 84.202C89.582 84.3225 89.7132 84.4157 89.8574 84.4751C90.0016 84.5345 90.1556 84.5589 90.309 84.5466L102.717 84.2824C102.837 84.284 102.955 84.259 103.066 84.2089C103.176 84.1588 103.277 84.0846 103.361 83.9906C103.445 83.8966 103.512 83.7848 103.557 83.6617C103.602 83.5386 103.624 83.4067 103.623 83.2738L103.504 74.316C103.507 74.2005 103.489 74.0856 103.451 73.9783C103.412 73.8711 103.354 73.7739 103.28 73.6928C103.206 73.6116 103.118 73.5483 103.021 73.5068C102.925 73.4653 102.821 73.4464 102.717 73.4514L96.6911 73.7276L96.6264 73.7276C96.4968 73.7369 96.3756 73.8025 96.2889 73.9103C96.2022 74.0181 96.1569 74.1594 96.1629 74.304L96.4108 78.3746C96.4108 78.4574 96.4403 78.5368 96.4929 78.5954C96.5455 78.6539 96.6168 78.6868 96.6911 78.6868C96.7655 78.6868 96.8368 78.6539 96.8893 78.5954C96.9419 78.5368 96.9714 78.4574 96.9714 78.3746L97.1762 74.9164L101.93 75.1445L101.833 82.2411L91.4841 82.0129L91.8291 70.0052L107.429 69.597L107.073 87.6085L84.9619 88.0168L84.8649 62.8006L109.779 62.0561C109.867 62.0561 109.952 62.0169 110.015 61.9471C110.078 61.8773 110.113 61.7826 110.113 61.6839C110.113 61.5852 110.078 61.4905 110.015 61.4207C109.952 61.3508 109.867 61.3116 109.779 61.3116L83.8192 60.5311C83.5459 60.5304 83.2825 60.6453 83.0824 60.8526C82.8822 61.0599 82.7602 61.3442 82.7411 61.6479C82.7411 61.6479 82.6225 89.2656 82.6333 89.2656C82.6361 89.6022 82.7574 89.9242 82.9711 90.1622C83.1848 90.4002 83.4738 90.5353 83.776 90.5384L108.571 90.9947C108.776 90.9996 108.98 90.9583 109.171 90.8731C109.361 90.788 109.534 90.6608 109.679 90.4992C109.824 90.3377 109.938 90.1451 110.014 89.9331C110.091 89.7211 110.128 89.494 110.124 89.2656L109.714 68.2881C109.709 67.9545 109.588 67.6361 109.377 67.399C109.166 67.162 108.882 67.0245 108.582 67.0153V67.0153Z" fill="#D5D0C2"/>
<path d="M74.0908 61.7082C74.0922 61.5406 74.0636 61.3744 74.0067 61.2193C73.9498 61.0641 73.8657 60.9231 73.7593 60.8046C73.6529 60.6861 73.5263 60.5924 73.387 60.529C73.2478 60.4656 73.0985 60.4338 72.948 60.4354L48.1528 59.9791C47.9468 59.9726 47.7418 60.0127 47.5502 60.0971C47.3586 60.1815 47.1844 60.3084 47.0382 60.4702C46.892 60.6319 46.7768 60.825 46.6997 61.0379C46.6226 61.2507 46.5852 61.4788 46.5896 61.7082L47.0209 82.6257C47.0291 82.9624 47.1537 83.2826 47.3685 83.5197C47.5834 83.7568 47.872 83.8924 48.1744 83.8985L66.5013 84.3788C66.71 84.3872 66.918 84.3476 67.1124 84.2625C67.3068 84.1773 67.4833 84.0485 67.631 83.884C67.7787 83.7195 67.8944 83.5229 67.9708 83.3064C68.0472 83.0899 68.0828 82.8582 68.0752 82.6257L67.644 67.6881C67.6535 67.5182 67.6304 67.348 67.5763 67.1888C67.5222 67.0296 67.4384 66.885 67.3303 66.7647C67.2223 66.6443 67.0925 66.5509 66.9496 66.4907C66.8066 66.4304 66.6538 66.4047 66.5013 66.4153L54.0821 66.6794C53.9633 66.6778 53.8454 66.7028 53.7354 66.7531C53.6255 66.8033 53.5258 66.8778 53.4422 66.9719C53.3587 67.0661 53.2931 67.178 53.2493 67.3011C53.2055 67.4241 53.1844 67.5557 53.1873 67.6881L53.3059 76.6458C53.3013 76.7607 53.3183 76.8754 53.3556 76.9827C53.393 77.0899 53.45 77.1872 53.523 77.2685C53.596 77.3498 53.6835 77.4134 53.7797 77.455C53.876 77.4966 53.9789 77.5155 54.0821 77.5104L60.1192 77.2222L60.1839 77.2222C60.2476 77.2176 60.31 77.1991 60.3673 77.1676C60.4246 77.1361 60.4757 77.0923 60.5178 77.0388C60.5599 76.9852 60.592 76.923 60.6124 76.8555C60.6328 76.7881 60.6411 76.7168 60.6367 76.6458L60.3995 72.5752C60.3995 72.4924 60.37 72.413 60.3174 72.3545C60.2648 72.2959 60.1935 72.263 60.1192 72.263C60.0449 72.263 59.9736 72.2959 59.921 72.3545C59.8684 72.413 59.8389 72.4924 59.8389 72.5752L59.6233 76.0334L54.8798 75.8053L54.9769 68.7087L65.3262 68.9369L64.9812 80.9446L49.3818 81.3529L49.7375 63.3413L71.8484 62.933L71.9455 88.1492L47.0316 88.8937C46.943 88.8937 46.858 88.9329 46.7953 89.0027C46.7327 89.0725 46.6974 89.1672 46.6974 89.2659C46.6974 89.3647 46.7327 89.4593 46.7953 89.5292C46.858 89.599 46.943 89.6382 47.0316 89.6382L72.9912 90.4187C73.1246 90.4219 73.2573 90.3954 73.3815 90.3407C73.5056 90.286 73.6187 90.2042 73.7141 90.1002C73.8095 89.9962 73.8853 89.872 73.937 89.7349C73.9887 89.5979 74.0153 89.4507 74.0153 89.302C74.0153 89.302 74.0908 61.7322 74.0908 61.7082Z" fill="#D5D0C2"/>
<path d="M36.913 67.0153L18.5861 66.535C18.3774 66.5266 18.1693 66.5662 17.975 66.6513C17.7806 66.7364 17.6041 66.8653 17.4564 67.0298C17.3087 67.1943 17.193 67.3909 17.1166 67.6074C17.0401 67.8239 17.0046 68.0556 17.0122 68.2881L17.4434 83.2257C17.4258 83.4061 17.4451 83.5885 17.4999 83.7593C17.5547 83.9301 17.6435 84.0849 17.7597 84.2121C17.8759 84.3392 18.0164 84.4353 18.1708 84.4932C18.3251 84.5512 18.4892 84.5694 18.6508 84.5466L31.07 84.2824C31.1884 84.2824 31.3056 84.2563 31.4149 84.2054C31.5242 84.1546 31.6233 84.0801 31.7065 83.9863C31.7898 83.8924 31.8554 83.7811 31.8997 83.6588C31.9441 83.5365 31.9662 83.4057 31.9648 83.2738L31.8462 74.316C31.8507 74.2011 31.8338 74.0864 31.7964 73.9792C31.7591 73.872 31.702 73.7746 31.629 73.6933C31.556 73.612 31.4686 73.5485 31.3724 73.5068C31.2761 73.4652 31.1731 73.4463 31.07 73.4514L25.0436 73.7276L24.9682 73.7276C24.9039 73.7306 24.8409 73.7481 24.7829 73.779C24.7249 73.8099 24.6731 73.8537 24.6307 73.9076C24.5884 73.9615 24.5564 74.0245 24.5365 74.0926C24.5167 74.1607 24.5095 74.2327 24.5154 74.304L24.7526 78.3746C24.7655 78.4484 24.8011 78.5149 24.8532 78.5627C24.9053 78.6105 24.9707 78.6367 25.0382 78.6367C25.1058 78.6367 25.1712 78.6105 25.2233 78.5627C25.2754 78.5149 25.311 78.4484 25.3239 78.3746L25.5288 74.9164L30.2722 75.1445C30.2722 76.3453 30.1967 80.8002 30.1752 82.2411L19.8259 82.0129L20.1708 70.0052L35.7703 69.597C35.7703 71.6863 35.4684 84.8828 35.4253 87.6085L13.3036 88.0168C13.3036 85.7594 13.2174 64.7819 13.2066 62.8006L38.1204 62.0561C38.2091 62.0561 38.2941 62.0169 38.3568 61.9471C38.4194 61.8773 38.4546 61.7826 38.4546 61.6839C38.4546 61.5852 38.4194 61.4905 38.3568 61.4207C38.2941 61.3508 38.2091 61.3116 38.1204 61.3116L12.1717 60.5311C12.0342 60.5213 11.8963 60.5429 11.7665 60.5944C11.6367 60.646 11.5178 60.7265 11.4169 60.831C11.316 60.9355 11.2352 61.0619 11.1796 61.2023C11.1241 61.3428 11.0948 61.4944 11.0936 61.6479C11.0936 61.6479 10.975 89.2656 10.975 89.2656C10.9779 89.6043 11.1007 89.928 11.3167 90.1664C11.5327 90.4047 11.8245 90.5384 12.1286 90.5384L36.9238 90.9947C37.1289 90.9996 37.3327 90.9583 37.523 90.8731C37.7134 90.788 37.8863 90.6608 38.0313 90.4992C38.1764 90.3377 38.2906 90.1451 38.367 89.9331C38.4435 89.7211 38.4806 89.494 38.4762 89.2656L38.0558 68.3362C38.0587 67.9931 37.9406 67.6625 37.7269 67.4155C37.5132 67.1684 37.2209 67.0247 36.913 67.0153V67.0153Z" fill="#D5D0C2"/>
<path d="M36.914 161.444L18.5871 160.963C18.3782 160.958 18.1707 161.001 17.977 161.088C17.7833 161.175 17.6075 161.305 17.4603 161.47C17.3131 161.635 17.1976 161.832 17.1207 162.048C17.0438 162.264 17.0072 162.496 17.0131 162.728L17.4443 177.654C17.4414 177.823 17.4689 177.99 17.5252 178.147C17.5815 178.303 17.6654 178.446 17.7719 178.565C17.8785 178.685 18.0055 178.78 18.1455 178.844C18.2855 178.908 18.4357 178.94 18.5871 178.939L31.0062 178.663C31.1251 178.664 31.243 178.639 31.3529 178.589C31.4629 178.539 31.5626 178.464 31.6461 178.37C31.7296 178.276 31.7953 178.164 31.8391 178.041C31.8829 177.918 31.904 177.786 31.901 177.654L31.7824 168.708C31.7869 168.593 31.77 168.478 31.7327 168.37C31.6955 168.262 31.6386 168.164 31.5658 168.082C31.493 167.999 31.4057 167.935 31.3094 167.892C31.2131 167.849 31.1099 167.828 31.0062 167.832L24.9799 168.12L24.9045 168.12C24.7748 168.132 24.6546 168.201 24.5699 168.311C24.4852 168.421 24.4427 168.564 24.4517 168.708L24.6889 172.779C24.7018 172.853 24.7374 172.919 24.7895 172.967C24.8416 173.015 24.907 173.041 24.9745 173.041C25.042 173.041 25.1075 173.015 25.1596 172.967C25.2117 172.919 25.2473 172.853 25.2602 172.779L25.4651 169.309L30.2085 169.537L30.1115 176.633L19.7621 176.405L20.1071 164.397L35.7066 163.989L35.3616 182.001L13.2615 182.409L13.1645 157.193L38.0567 156.472C38.1364 156.456 38.2086 156.41 38.2605 156.341C38.3125 156.272 38.3409 156.184 38.3409 156.094C38.3409 156.004 38.3125 155.917 38.2605 155.847C38.2086 155.778 38.1364 155.732 38.0567 155.716L12.108 154.947C11.9697 154.934 11.8305 154.953 11.6993 155.003C11.5681 155.053 11.4478 155.134 11.3462 155.239C11.2446 155.344 11.1639 155.472 11.1095 155.614C11.055 155.756 11.0279 155.91 11.0299 156.064C11.0299 156.064 10.9113 183.682 10.9113 183.682C10.9113 184.023 11.0329 184.349 11.2492 184.59C11.4655 184.831 11.7589 184.967 12.0649 184.967L36.8601 185.423C37.0661 185.428 37.2709 185.386 37.4619 185.3C37.653 185.214 37.8264 185.086 37.9716 184.923C38.1168 184.76 38.2307 184.566 38.3065 184.353C38.3823 184.14 38.4184 183.911 38.4125 183.682L38.0028 162.716C37.9932 162.392 37.8769 162.084 37.6761 161.849C37.4754 161.614 37.2041 161.47 36.914 161.444V161.444Z" fill="#D5D0C2"/>
<path d="M74.0908 156.101C74.0908 155.763 73.9708 155.438 73.7568 155.197C73.5428 154.957 73.2521 154.82 72.9481 154.817L48.1528 154.36C47.946 154.354 47.74 154.394 47.5477 154.479C47.3553 154.565 47.1806 154.693 47.0343 154.856C46.8879 155.019 46.773 155.213 46.6965 155.427C46.6201 155.642 46.5837 155.871 46.5897 156.101L46.9993 177.079C47.0102 177.415 47.1355 177.733 47.3498 177.97C47.5641 178.206 47.8513 178.343 48.1528 178.352L66.4798 178.832C66.6885 178.84 66.8965 178.801 67.0909 178.716C67.2853 178.631 67.4618 178.502 67.6095 178.337C67.7572 178.173 67.8729 177.976 67.9493 177.76C68.0257 177.543 68.0613 177.311 68.0537 177.079L67.6225 162.141C67.6254 161.973 67.5979 161.805 67.5416 161.649C67.4854 161.492 67.4015 161.35 67.2949 161.23C67.1884 161.11 67.0613 161.015 66.9213 160.951C66.7813 160.887 66.6312 160.855 66.4798 160.857L54.0606 161.133C53.9418 161.131 53.8238 161.156 53.7139 161.206C53.604 161.257 53.5043 161.331 53.4207 161.425C53.3372 161.519 53.2716 161.631 53.2278 161.754C53.184 161.877 53.1629 162.009 53.1658 162.141L53.2844 171.087C53.2799 171.203 53.2968 171.318 53.3341 171.426C53.3714 171.533 53.4282 171.631 53.501 171.714C53.5739 171.796 53.6612 171.861 53.7574 171.904C53.8537 171.947 53.9569 171.967 54.0606 171.964L60.0977 171.675L60.1624 171.675C60.2921 171.663 60.4122 171.595 60.4969 171.485C60.5816 171.375 60.6241 171.232 60.6151 171.087L60.378 167.028C60.378 166.946 60.3485 166.866 60.2959 166.808C60.2433 166.749 60.172 166.716 60.0977 166.716C60.0234 166.716 59.952 166.749 59.8995 166.808C59.8469 166.866 59.8174 166.946 59.8174 167.028L59.6018 170.487L54.8583 170.259L54.9554 163.162L65.3047 163.39L64.9597 175.398L49.3603 175.806C49.3603 173.705 49.6621 160.52 49.716 157.795L71.8269 157.386C71.8269 159.644 71.924 180.621 71.924 182.603L47.0101 183.347C46.9304 183.363 46.8583 183.409 46.8063 183.479C46.7544 183.548 46.7259 183.635 46.7259 183.725C46.7259 183.815 46.7544 183.903 46.8063 183.972C46.8583 184.041 46.9304 184.088 47.0101 184.103L72.9697 184.872C73.1035 184.877 73.2369 184.851 73.3617 184.797C73.4865 184.743 73.6002 184.662 73.6959 184.557C73.7916 184.453 73.8673 184.328 73.9185 184.19C73.9697 184.052 73.9953 183.904 73.9938 183.755C73.9938 183.755 74.0908 156.126 74.0908 156.101Z" fill="#D5D0C2"/>
<path d="M108.582 161.444L90.2548 160.963C90.0451 160.957 89.8363 160.998 89.6414 161.084C89.4464 161.17 89.2693 161.3 89.121 161.465C88.9726 161.631 88.8561 161.828 88.7786 162.045C88.701 162.262 88.6641 162.495 88.6701 162.728L89.1013 177.654C89.0984 177.823 89.1259 177.99 89.1822 178.147C89.2384 178.303 89.3223 178.446 89.4289 178.565C89.5354 178.685 89.6625 178.78 89.8025 178.844C89.9425 178.908 90.0926 178.94 90.244 178.939L102.739 178.687C102.858 178.69 102.977 178.666 103.089 178.617C103.2 178.567 103.301 178.493 103.386 178.399C103.47 178.304 103.537 178.192 103.581 178.068C103.626 177.944 103.647 177.811 103.644 177.678L103.526 168.732C103.53 168.616 103.513 168.499 103.475 168.391C103.437 168.282 103.379 168.183 103.305 168.101C103.231 168.019 103.143 167.954 103.045 167.912C102.948 167.87 102.843 167.851 102.739 167.856L96.7123 168.144L96.6477 168.144C96.5171 168.156 96.3958 168.224 96.3094 168.334C96.223 168.444 96.1781 168.586 96.1841 168.732L96.432 172.803C96.432 172.886 96.4616 172.965 96.5141 173.024C96.5667 173.082 96.638 173.115 96.7123 173.115C96.7867 173.115 96.858 173.082 96.9105 173.024C96.9631 172.965 96.9926 172.886 96.9926 172.803L97.1975 169.333L101.952 169.561L101.855 176.657L91.5053 176.429C91.5592 174.604 91.7856 166.895 91.8503 164.421L107.45 164.013L107.094 182.025L84.9831 182.433L84.8861 157.217L109.8 156.472C109.88 156.456 109.952 156.41 110.004 156.341C110.056 156.272 110.084 156.184 110.084 156.094C110.084 156.004 110.056 155.917 110.004 155.847C109.952 155.778 109.88 155.732 109.8 155.716L83.8404 154.947C83.7025 154.936 83.564 154.956 83.4335 155.007C83.303 155.058 83.1834 155.138 83.0821 155.243C82.9809 155.348 82.9002 155.475 82.8452 155.616C82.7901 155.758 82.7619 155.91 82.7623 156.064C82.7623 156.064 82.6437 183.682 82.6545 183.682C82.6545 184.021 82.7745 184.345 82.9885 184.586C83.2025 184.827 83.4932 184.963 83.7972 184.967L108.592 185.423C108.798 185.428 109.003 185.386 109.194 185.3C109.385 185.214 109.559 185.086 109.704 184.923C109.849 184.76 109.963 184.566 110.039 184.353C110.115 184.14 110.151 183.911 110.145 183.682L109.735 162.716C109.724 162.381 109.599 162.062 109.385 161.826C109.17 161.589 108.883 161.452 108.582 161.444Z" fill="#D5D0C2"/>
<path d="M145.758 156.101C145.76 155.933 145.731 155.766 145.674 155.61C145.618 155.454 145.534 155.313 145.427 155.193C145.321 155.074 145.195 154.979 145.055 154.914C144.916 154.849 144.767 154.816 144.616 154.816L119.82 154.36C119.614 154.355 119.41 154.396 119.219 154.482C119.027 154.568 118.854 154.697 118.709 154.859C118.564 155.022 118.45 155.216 118.374 155.43C118.298 155.643 118.262 155.871 118.268 156.101L118.678 177.078C118.686 177.413 118.809 177.732 119.021 177.968C119.234 178.205 119.52 178.342 119.82 178.351L138.147 178.831C138.356 178.838 138.563 178.797 138.757 178.712C138.95 178.626 139.126 178.497 139.273 178.333C139.421 178.169 139.537 177.973 139.614 177.757C139.691 177.541 139.727 177.31 139.721 177.078L139.29 162.141C139.293 161.972 139.265 161.805 139.209 161.648C139.153 161.492 139.069 161.349 138.962 161.229C138.856 161.11 138.729 161.015 138.589 160.951C138.449 160.886 138.299 160.854 138.147 160.856L125.728 161.132C125.609 161.13 125.49 161.155 125.38 161.206C125.269 161.256 125.169 161.33 125.085 161.424C125 161.518 124.934 161.63 124.889 161.753C124.844 161.876 124.821 162.008 124.823 162.141L124.952 171.086C124.946 171.202 124.962 171.318 124.998 171.427C125.035 171.536 125.092 171.635 125.165 171.717C125.238 171.8 125.326 171.864 125.423 171.907C125.52 171.949 125.624 171.968 125.728 171.963L131.754 171.675L131.841 171.675C131.97 171.663 132.091 171.594 132.175 171.484C132.26 171.374 132.302 171.231 132.293 171.086L132.045 167.028C132.045 166.945 132.016 166.866 131.963 166.807C131.911 166.749 131.84 166.716 131.765 166.716C131.691 166.716 131.62 166.749 131.567 166.807C131.514 166.866 131.485 166.945 131.485 167.028L131.28 170.486L126.537 170.258L126.623 163.161L136.972 163.39L136.627 175.397L121.039 175.806C121.039 173.704 121.33 160.52 121.384 157.794L143.494 157.386L143.602 182.602L118.678 183.346C118.598 183.362 118.526 183.409 118.474 183.478C118.422 183.547 118.393 183.634 118.393 183.725C118.393 183.815 118.422 183.902 118.474 183.971C118.526 184.04 118.598 184.087 118.678 184.103L144.637 184.871C144.775 184.883 144.914 184.863 145.044 184.812C145.175 184.761 145.294 184.68 145.395 184.576C145.497 184.471 145.577 184.344 145.632 184.202C145.687 184.061 145.716 183.909 145.715 183.755C145.715 183.755 145.769 156.125 145.758 156.101Z" fill="#D5D0C2"/>
<path d="M180.261 161.444L161.934 160.963C161.725 160.958 161.517 161.001 161.324 161.088C161.13 161.175 160.954 161.305 160.807 161.47C160.66 161.635 160.544 161.832 160.467 162.048C160.39 162.264 160.354 162.496 160.36 162.728L160.791 177.654C160.788 177.823 160.816 177.99 160.872 178.147C160.928 178.303 161.012 178.446 161.119 178.565C161.225 178.685 161.352 178.78 161.492 178.844C161.632 178.908 161.782 178.94 161.934 178.939L174.353 178.663C174.472 178.664 174.591 178.639 174.701 178.589C174.812 178.539 174.912 178.465 174.996 178.371C175.081 178.277 175.147 178.165 175.192 178.042C175.237 177.919 175.26 177.787 175.258 177.654L175.129 168.708C175.135 168.592 175.119 168.476 175.083 168.368C175.046 168.259 174.989 168.16 174.916 168.078C174.843 167.995 174.755 167.93 174.658 167.888C174.561 167.846 174.457 167.826 174.353 167.832L168.327 168.12L168.251 168.12C168.121 168.132 168.001 168.201 167.916 168.311C167.832 168.421 167.789 168.564 167.798 168.708L168.046 172.779C168.046 172.862 168.076 172.941 168.128 173C168.181 173.058 168.252 173.091 168.327 173.091C168.401 173.091 168.472 173.058 168.525 173C168.577 172.941 168.607 172.862 168.607 172.779L168.812 169.309L173.555 169.537C173.555 170.738 173.48 175.204 173.469 176.633L163.12 176.405L163.464 164.397L179.053 163.989L178.708 182.001L156.64 182.409L156.533 157.193L181.436 156.472C181.515 156.456 181.587 156.41 181.639 156.341C181.691 156.272 181.72 156.184 181.72 156.094C181.72 156.004 181.691 155.917 181.639 155.847C181.587 155.778 181.515 155.732 181.436 155.716L155.476 154.947C155.338 154.936 155.2 154.956 155.069 155.007C154.939 155.058 154.819 155.138 154.718 155.243C154.617 155.348 154.536 155.475 154.481 155.616C154.426 155.758 154.398 155.91 154.398 156.064C154.398 156.064 154.279 183.682 154.29 183.682C154.289 183.85 154.317 184.017 154.374 184.173C154.431 184.328 154.515 184.47 154.621 184.59C154.727 184.709 154.854 184.804 154.993 184.869C155.133 184.933 155.282 184.967 155.433 184.967L180.228 185.423C180.434 185.428 180.639 185.386 180.83 185.3C181.021 185.214 181.195 185.086 181.34 184.923C181.485 184.76 181.599 184.566 181.675 184.353C181.75 184.14 181.787 183.911 181.781 183.682L181.371 162.716C181.361 162.388 181.242 162.077 181.036 161.841C180.831 161.606 180.555 161.464 180.261 161.444Z" fill="#D5D0C2"/>
<path d="M217.446 156.101C217.446 155.763 217.326 155.438 217.112 155.197C216.898 154.957 216.607 154.82 216.303 154.817L191.508 154.36C191.301 154.357 191.097 154.4 190.906 154.486C190.715 154.573 190.542 154.701 190.396 154.863C190.25 155.025 190.135 155.219 190.057 155.431C189.98 155.644 189.941 155.872 189.944 156.101L190.354 177.079C190.365 177.415 190.49 177.733 190.705 177.97C190.919 178.206 191.206 178.343 191.508 178.352L209.834 178.832C210.044 178.84 210.252 178.801 210.447 178.716C210.642 178.631 210.819 178.502 210.968 178.338C211.116 178.174 211.233 177.977 211.311 177.761C211.388 177.544 211.425 177.312 211.419 177.079L210.988 162.141C210.991 161.972 210.963 161.803 210.906 161.646C210.849 161.488 210.764 161.346 210.657 161.226C210.549 161.106 210.421 161.011 210.279 160.948C210.138 160.884 209.987 160.853 209.834 160.857L197.426 161.133C197.306 161.129 197.187 161.153 197.076 161.203C196.965 161.252 196.864 161.326 196.779 161.421C196.694 161.515 196.628 161.628 196.583 161.751C196.539 161.875 196.518 162.008 196.521 162.141L196.639 171.087C196.635 171.204 196.652 171.32 196.69 171.429C196.728 171.537 196.785 171.636 196.859 171.718C196.933 171.801 197.022 171.865 197.12 171.907C197.217 171.95 197.322 171.969 197.426 171.964L203.452 171.675L203.517 171.675C203.648 171.663 203.769 171.595 203.855 171.485C203.942 171.376 203.987 171.233 203.981 171.087L203.733 167.028C203.733 166.946 203.703 166.866 203.651 166.808C203.598 166.749 203.527 166.716 203.452 166.716C203.378 166.716 203.307 166.749 203.254 166.808C203.202 166.866 203.172 166.946 203.172 167.028L202.957 170.487L198.213 170.259L198.31 163.162L208.659 163.39L208.314 175.398L192.715 175.806L193.071 157.795L215.182 157.386L215.279 182.603L190.365 183.347C190.285 183.363 190.213 183.409 190.161 183.479C190.109 183.548 190.081 183.635 190.081 183.725C190.081 183.815 190.109 183.903 190.161 183.972C190.213 184.041 190.285 184.088 190.365 184.103L216.324 184.872C216.458 184.877 216.592 184.851 216.716 184.797C216.841 184.743 216.955 184.662 217.051 184.557C217.146 184.453 217.222 184.328 217.273 184.19C217.324 184.052 217.35 183.904 217.349 183.755C217.349 183.755 217.456 156.125 217.446 156.101Z" fill="#D5D0C2"/>
<path d="M251.93 161.442L233.603 160.962C233.394 160.955 233.185 160.996 232.991 161.083C232.796 161.169 232.62 161.299 232.473 161.465C232.325 161.63 232.21 161.827 232.133 162.045C232.057 162.262 232.021 162.494 232.029 162.727L232.449 177.653C232.448 177.822 232.477 177.99 232.534 178.146C232.592 178.303 232.677 178.445 232.784 178.565C232.891 178.684 233.019 178.779 233.16 178.843C233.3 178.907 233.451 178.939 233.603 178.937L246.011 178.661C246.131 178.665 246.25 178.641 246.361 178.591C246.472 178.542 246.573 178.467 246.658 178.373C246.743 178.279 246.809 178.166 246.854 178.042C246.898 177.919 246.92 177.786 246.917 177.653L246.798 168.707C246.803 168.59 246.786 168.474 246.748 168.365C246.71 168.257 246.652 168.158 246.578 168.076C246.504 167.993 246.415 167.929 246.318 167.887C246.22 167.844 246.116 167.825 246.011 167.83L239.985 168.118L239.92 168.118C239.79 168.131 239.668 168.199 239.582 168.309C239.496 168.418 239.451 168.561 239.457 168.707L239.705 172.777C239.705 172.86 239.734 172.94 239.787 172.998C239.839 173.057 239.911 173.09 239.985 173.09C240.059 173.09 240.131 173.057 240.183 172.998C240.236 172.94 240.265 172.86 240.265 172.777L240.481 169.307L245.224 169.535L245.127 176.632L234.778 176.404L235.123 164.396L250.722 163.988L250.367 181.999L228.256 182.408L228.159 157.191L253.072 156.447C253.152 156.431 253.224 156.384 253.276 156.315C253.328 156.246 253.357 156.159 253.357 156.069C253.357 155.979 253.328 155.891 253.276 155.822C253.224 155.753 253.152 155.706 253.072 155.69L227.113 154.922C226.979 154.917 226.846 154.942 226.721 154.997C226.596 155.051 226.482 155.132 226.387 155.237C226.291 155.341 226.215 155.466 226.164 155.604C226.113 155.742 226.087 155.89 226.089 156.039C226.089 156.039 225.959 183.656 225.97 183.656C225.97 183.995 226.09 184.32 226.304 184.561C226.518 184.801 226.809 184.938 227.113 184.941L251.908 185.398C252.115 185.402 252.32 185.361 252.512 185.275C252.703 185.189 252.877 185.061 253.023 184.899C253.169 184.736 253.284 184.542 253.361 184.329C253.438 184.115 253.476 183.886 253.471 183.656L253.062 162.691C253.044 162.364 252.918 162.057 252.709 161.826C252.501 161.596 252.223 161.459 251.93 161.442Z" fill="#D5D0C2"/>
<path d="M289.111 156.099C289.112 155.931 289.083 155.764 289.027 155.609C288.97 155.453 288.886 155.311 288.78 155.192C288.673 155.072 288.547 154.977 288.408 154.912C288.268 154.848 288.119 154.814 287.968 154.814L263.173 154.358C262.967 154.353 262.762 154.395 262.571 154.481C262.38 154.567 262.206 154.695 262.061 154.858C261.916 155.021 261.802 155.215 261.726 155.428C261.65 155.642 261.614 155.87 261.62 156.099L262.03 177.077C262.038 177.411 262.161 177.73 262.374 177.967C262.586 178.203 262.872 178.341 263.173 178.35L281.5 178.83C281.708 178.837 281.915 178.796 282.109 178.71C282.302 178.624 282.478 178.495 282.626 178.331C282.773 178.167 282.889 177.971 282.966 177.755C283.043 177.54 283.079 177.309 283.073 177.077L282.642 162.139C282.645 161.971 282.618 161.803 282.561 161.647C282.505 161.49 282.421 161.348 282.315 161.228C282.208 161.108 282.081 161.013 281.941 160.949C281.801 160.885 281.651 160.853 281.5 160.854L269.08 161.131C268.962 161.129 268.844 161.154 268.734 161.204C268.624 161.254 268.524 161.329 268.44 161.423C268.357 161.517 268.291 161.629 268.248 161.752C268.204 161.875 268.183 162.007 268.186 162.139L268.304 171.085C268.3 171.2 268.317 171.316 268.354 171.423C268.391 171.531 268.448 171.629 268.521 171.712C268.594 171.794 268.681 171.858 268.777 171.901C268.873 171.944 268.977 171.965 269.08 171.961L275.107 171.673L275.182 171.673C275.312 171.661 275.432 171.592 275.517 171.482C275.601 171.372 275.644 171.23 275.635 171.085L275.398 167.026C275.385 166.952 275.349 166.886 275.297 166.838C275.245 166.79 275.18 166.764 275.112 166.764C275.045 166.764 274.979 166.79 274.927 166.838C274.875 166.886 274.839 166.952 274.826 167.026L274.622 170.485L269.835 170.28C269.835 169.08 269.91 164.625 269.932 163.184L280.271 163.412L279.926 175.42L264.337 175.828C264.337 173.727 264.639 160.542 264.682 157.816L286.804 157.408C286.804 159.666 286.89 180.643 286.901 182.624L261.987 183.369C261.907 183.385 261.835 183.431 261.783 183.5C261.731 183.57 261.703 183.657 261.703 183.747C261.703 183.837 261.731 183.925 261.783 183.994C261.835 184.063 261.907 184.109 261.987 184.125L287.935 184.894C288.073 184.905 288.212 184.885 288.342 184.834C288.473 184.783 288.592 184.703 288.694 184.598C288.795 184.493 288.876 184.366 288.931 184.225C288.986 184.084 289.014 183.931 289.014 183.777C289.014 183.777 289.121 156.123 289.111 156.099Z" fill="#D5D0C2"/>
</svg>
