<svg width="234" height="72" viewBox="0 0 234 72" fill="none" xmlns="http://www.w3.org/2000/svg">
<g clip-path="url(#clip0_203_6)">
<path d="M72.7118 71.5833H0.643555V0.625H72.7118V71.5833ZM2.07466 70.1953H71.2807V2.03407H2.07466V70.1953Z" fill="#F4F3F0"/>
<path d="M96.6992 27.5234V1.29785H107.87V3.14857L101.569 2.2863C100.416 2.13908 99.6682 2.05496 99.2837 2.05496V13.7902C99.6896 13.7902 100.48 13.7902 101.633 13.664L107.465 13.2855V15.01L101.633 14.6525C100.48 14.6525 99.6896 14.5263 99.2837 14.5263V27.5234H96.6992Z" fill="#F4F3F0"/>
<path d="M115.282 1.29837H120.366C122.583 1.16654 124.783 1.75786 126.624 2.98084C127.355 3.51613 127.942 4.21969 128.333 5.02995C128.724 5.84022 128.907 6.73249 128.867 7.62867C128.913 9.0442 128.417 10.425 127.479 11.4984C126.41 12.6132 124.999 13.3521 123.463 13.6015V13.7907C125.061 14.0709 126.511 14.8886 127.564 16.1041C128.681 17.4254 129.497 18.9673 129.956 20.6258C130.316 21.9482 130.795 23.2362 131.388 24.4744C131.741 25.2457 132.275 25.9233 132.947 26.4513C133.561 26.863 134.25 27.1557 134.976 27.3136V27.5239H133.417C132.462 27.5624 131.514 27.3597 130.661 26.9351C129.846 26.4345 129.205 25.7008 128.824 24.832C128.198 23.5761 127.711 22.2576 127.372 20.8992C126.928 18.8392 125.916 16.9398 124.446 15.4101C123.226 14.3389 121.637 13.7672 120.003 13.8118H119.768V13.1388H120.003C124.083 13.1388 126.112 11.2881 126.112 7.58662C126.112 3.88517 124.211 2.11857 120.366 2.11857H117.867V27.3557H115.282V1.29837Z" fill="#F4F3F0"/>
<path d="M139.718 27.5234V1.29785H142.302V27.5234H139.718Z" fill="#F4F3F0"/>
<path d="M152.191 27.5234V1.29785H154.776V27.5234H152.191ZM168.639 27.5234L156.164 14.0846L167.72 1.29785H170.988L158.471 13.0331L172.056 27.5234H168.639Z" fill="#F4F3F0"/>
<path d="M173.808 27.5234L184.039 1.29785H186.41L196.641 27.5234H193.865L189.144 15.2414H180.493L176.584 27.5234H173.808ZM184.317 3.27476L180.771 14.358H188.802L184.53 3.27476H184.317Z" fill="#F4F3F0"/>
<path d="M94.3711 67.6718L94.6061 65.4215H94.8196C95.8043 66.3097 96.9393 67.0215 98.1731 67.5245C99.3506 67.9818 100.603 68.2241 101.868 68.2396C103.423 68.3229 104.951 67.8189 106.14 66.8305C106.672 66.3577 107.092 65.7752 107.368 65.1245C107.645 64.4737 107.773 63.7709 107.742 63.066C107.742 62.2177 107.537 61.3816 107.144 60.6264C106.649 59.7485 105.989 58.9708 105.201 58.334C104.043 57.3979 102.807 56.5607 101.505 55.8313C100.395 55.2004 99.3693 54.5485 98.3654 53.8755C97.4223 53.2241 96.6049 52.4122 95.9517 51.4779C95.297 50.5073 94.9615 49.3619 94.9905 48.1971C94.9669 47.32 95.147 46.4491 95.5172 45.6509C95.8874 44.8527 96.4378 44.1483 97.1265 43.5913C98.6318 42.3808 100.523 41.7328 102.466 41.7617C103.563 41.7685 104.657 41.8741 105.735 42.0771C106.672 42.2197 107.585 42.4887 108.447 42.8763L108.255 44.9794H108.02C107.323 44.2153 106.465 43.6104 105.506 43.2071C104.546 42.8039 103.509 42.612 102.466 42.645C101.058 42.5835 99.673 43.0157 98.5576 43.8648C98.0679 44.2607 97.678 44.763 97.4186 45.3322C97.1592 45.9015 97.0373 46.5222 97.0624 47.1456C97.036 48.0951 97.3289 49.0267 97.8955 49.7955C98.4865 50.5707 99.2091 51.2395 100.031 51.7724C100.907 52.3612 101.826 52.9291 102.808 53.4759C103.791 54.0227 105.072 54.8219 106.14 55.579C107.206 56.2586 108.134 57.1289 108.874 58.1447C109.613 59.2774 109.978 60.6067 109.921 61.9513C109.952 63.2447 109.611 64.5204 108.939 65.6318C108.262 66.7069 107.292 67.5739 106.14 68.1344C104.807 68.7556 103.343 69.0583 101.868 69.0177C100.664 68.9959 99.4641 68.8763 98.2799 68.6602C96.9564 68.4153 95.6507 68.0851 94.3711 67.6718Z" fill="#F4F3F0"/>
<path d="M113.402 68.4711L123.634 42.2666H125.962L136.215 68.4711H133.438L128.717 56.1891H120.173L116.179 68.4711H113.402ZM123.826 44.2225L120.302 55.3058H128.312L124.04 44.2225H123.826Z" fill="#F4F3F0"/>
<path d="M142.388 68.4706V42.2871H153.559V44.1168L147.322 43.2335C146.168 43.0863 145.421 43.0022 145.036 43.0022V54.7374C145.442 54.7374 146.232 54.7374 147.386 54.6112L153.217 54.2537V55.9572L147.322 55.6207C146.168 55.6207 145.378 55.4945 144.972 55.4945V68.4706H142.388Z" fill="#F4F3F0"/>
<path d="M154.947 68.4711L165.179 42.2666H167.528L177.76 68.4711H175.09L170.369 56.1891H161.825L157.724 68.4711H154.947ZM165.435 44.2014L161.911 55.2847H169.921L165.649 44.2014H165.435Z" fill="#F4F3F0"/>
<path d="M183.933 42.2876H189.016C191.238 42.1528 193.443 42.7362 195.296 43.949C196.007 44.5013 196.572 45.2139 196.943 46.0266C197.315 46.8392 197.483 47.728 197.432 48.6179C197.474 50.0266 196.979 51.3997 196.044 52.4666C194.975 53.5815 193.564 54.3203 192.028 54.5697V54.801C193.626 55.0811 195.076 55.8988 196.129 57.1144C197.268 58.4226 198.106 59.9579 198.585 61.615C198.948 62.9296 199.427 64.2104 200.017 65.4426C200.364 66.2173 200.9 66.8962 201.576 67.4196C202.225 67.8399 202.95 68.1327 203.712 68.2818V68.4711H202.153C201.198 68.5096 200.25 68.3069 199.397 67.8822C198.587 67.3757 197.948 66.6437 197.56 65.7792C196.94 64.5209 196.453 63.203 196.108 61.8464C195.67 59.7905 194.656 57.8963 193.181 56.3783C191.965 55.2995 190.375 54.7201 188.739 54.759H188.504V54.086H188.739C192.818 54.086 194.848 52.2352 194.848 48.5338C194.848 44.8323 192.946 43.0657 189.102 43.0657H186.603V68.4711H184.018L183.933 42.2876Z" fill="#F4F3F0"/>
<path d="M208.347 68.4706V42.2871H210.931V68.4706H208.347Z" fill="#F4F3F0"/>
<path d="M218.515 67.6715L218.75 65.4211H218.963C219.944 66.314 221.08 67.0263 222.317 67.5242C223.494 67.9815 224.746 68.2238 226.012 68.2393C227.566 68.3184 229.092 67.8149 230.284 66.8302C230.808 66.3528 231.221 65.7689 231.494 65.1189C231.767 64.469 231.894 63.7684 231.865 63.0657C231.871 62.219 231.674 61.3828 231.288 60.6261C230.784 59.7539 230.126 58.9776 229.344 58.3337C228.183 57.3932 226.939 56.5557 225.627 55.831C224.538 55.2001 223.491 54.5481 222.509 53.8752C221.509 53.1985 220.641 52.3509 219.946 51.3725C219.307 50.3956 218.98 49.2531 219.006 48.0917C218.977 47.2138 219.155 46.3413 219.526 45.5424C219.896 44.7435 220.45 44.0396 221.142 43.4859C222.707 42.2749 224.665 41.6623 226.653 41.7614C227.749 41.7701 228.843 41.8757 229.921 42.0768C230.858 42.2194 231.771 42.4884 232.634 42.876L232.441 44.9791H232.206C231.508 44.2172 230.649 43.6138 229.69 43.2108C228.731 42.8077 227.695 42.6145 226.653 42.6446C225.244 42.5832 223.859 43.0154 222.744 43.8644C222.254 44.2604 221.864 44.7627 221.605 45.3319C221.345 45.9012 221.224 46.5218 221.249 47.1453C221.225 48.0912 221.51 49.0197 222.06 49.7952C222.659 50.5637 223.38 51.2314 224.196 51.7721C225.072 52.3609 225.991 52.9288 226.973 53.4756C227.956 54.0224 229.237 54.8216 230.305 55.5787C231.352 56.2769 232.258 57.1613 232.975 58.1865C233.704 59.3235 234.068 60.6496 234.022 61.9931C234.046 63.2885 233.698 64.5643 233.018 65.6735C232.355 66.7524 231.391 67.6211 230.241 68.1762C228.907 68.7952 227.444 69.0977 225.969 69.0595C224.765 69.0387 223.565 68.9192 222.381 68.702C221.071 68.4415 219.779 68.0973 218.515 67.6715V67.6715Z" fill="#F4F3F0"/>
<path d="M23.6055 53.2653V10.9932H41.6332V13.9585L31.4445 12.5705C30.228 12.3774 29.0014 12.251 27.7706 12.1919V31.1198C28.4328 31.1198 29.693 31.1198 31.5727 30.9305L45.3925 30.3416V33.1177L31.5727 32.5078C29.693 32.3816 28.4328 32.3185 27.7706 32.3185V53.3494L23.6055 53.2653Z" fill="#F4F3F0"/>
<path d="M30.8037 59.3438L31.1241 56.2102H31.4445C32.8338 57.3884 34.4154 58.3269 36.1223 58.9863C37.7691 59.6254 39.5214 59.9604 41.2914 59.9747C43.4302 60.0472 45.5188 59.3267 47.144 57.9557C47.866 57.2799 48.4308 56.4581 48.7995 55.5468C49.1683 54.6356 49.3322 53.6565 49.28 52.677C49.285 51.4943 49.0069 50.3271 48.4683 49.27C47.77 48.0502 46.8506 46.9668 45.7556 46.0733C44.1402 44.7522 42.4025 43.5834 40.5652 42.5822C39.0273 41.6989 37.5748 40.7735 36.2932 39.8271C34.9601 38.9142 33.8028 37.7747 32.8756 36.4621C31.7827 34.7371 31.3441 32.6872 31.6373 30.6746C31.9304 28.662 32.9364 26.8161 34.4776 25.463C36.6648 23.7605 39.4035 22.894 42.1885 23.0234C43.7232 23.0426 45.253 23.1974 46.7595 23.4861C48.0666 23.6812 49.3393 24.0565 50.5402 24.6007L50.2839 27.545H49.9635C48.9814 26.4851 47.7781 25.6468 46.4361 25.0877C45.094 24.5287 43.645 24.2621 42.1885 24.3063C40.2173 24.2096 38.2764 24.8142 36.7204 26.0098C36.0297 26.5603 35.4775 27.2605 35.107 28.0558C34.7365 28.8511 34.5576 29.7199 34.5844 30.5945C34.5504 31.9189 34.9553 33.2182 35.7378 34.296C36.5582 35.3751 37.5542 36.3131 38.6855 37.072C39.903 37.8923 41.1846 38.6914 42.573 39.4485C43.9614 40.2056 45.7129 41.3203 47.2295 42.3298C48.6914 43.2996 49.9526 44.5344 50.9461 45.9681C51.9777 47.5519 52.4921 49.4088 52.4199 51.289C52.4564 53.1006 51.9753 54.8859 51.0315 56.4415C50.1246 57.9896 48.7818 59.2459 47.1654 60.0588C45.3367 60.9321 43.3233 61.3646 41.2914 61.3207C39.613 61.2885 37.9406 61.1126 36.2932 60.7949C34.4323 60.4336 32.5982 59.9488 30.8037 59.3438V59.3438Z" fill="#F4F3F0"/>
</g>
<defs>
<clipPath id="clip0_203_6">
<rect width="233.357" height="70.9583" fill="white" transform="translate(0.643555 0.625)"/>
</clipPath>
</defs>
</svg>
