<svg width="271" height="313" viewBox="0 0 271 313" fill="none" xmlns="http://www.w3.org/2000/svg">
<g clip-path="url(#clip0_115_1177)">
<path d="M276.393 313.234L276.393 -0.00012207L0.000363077 -0.000146233L0.000335693 313.234L276.393 313.234ZM42.0842 307.7L58.083 276.841L74.0819 307.7L42.0842 307.7ZM85.8077 307.7L101.856 276.797L117.855 307.655L85.8077 307.7ZM129.412 307.7L145.411 276.841L161.41 307.7L129.412 307.7ZM173.185 307.7L189.184 276.841L205.183 307.7L173.185 307.7ZM216.789 307.7L232.828 276.797L248.837 307.655L216.789 307.7ZM271.325 307.7L260.185 307.7L271.374 286.072L271.374 296.919L268.343 302.763L271.374 302.763L271.325 307.7ZM227.094 269.304L211.086 300.195L195.067 269.259L227.094 269.304ZM4.95899 263.769L4.95899 225.351L271.275 225.351L271.275 263.725L4.95899 263.769ZM183.321 269.304L167.312 300.195L151.343 269.259L183.321 269.304ZM139.717 269.304L123.708 300.195L107.689 269.304L139.717 269.304ZM95.9933 269.304L79.9846 300.195L63.9659 269.304L95.9933 269.304ZM52.3891 269.304L36.3803 300.195L20.3616 269.304L52.3891 269.304ZM5.00865 137.446L271.325 137.447L271.325 175.776L5.00865 175.776L5.00865 137.446ZM42.5314 131.912L58.0831 101.928L73.6248 131.912L42.5314 131.912ZM86.3046 131.912L101.856 101.884L117.398 131.868L86.3046 131.912ZM129.909 131.912L145.461 101.928L161.002 131.912L129.909 131.912ZM173.632 131.912L189.184 101.928L204.726 131.912L173.632 131.912ZM217.237 131.912L232.828 101.884L248.38 131.868L217.237 131.912ZM271.374 181.31L271.374 193.995L261.914 212.235L245.915 181.377L271.374 181.31ZM234.319 181.31L218.32 212.169L202.321 181.31L234.319 181.31ZM190.545 181.31L174.547 212.169L158.548 181.31L190.545 181.31ZM146.941 181.31L130.942 212.169L114.944 181.31L146.941 181.31ZM103.218 181.31L87.2188 212.169L71.22 181.31L103.218 181.31ZM59.6134 181.31L43.6145 212.169L27.6157 181.31L59.6134 181.31ZM17.1817 181.31L26.6717 181.31L43.5649 213.94L60.458 181.31L70.2064 181.31L87.0996 213.94L103.993 181.31L113.93 181.31L130.823 213.94L147.716 181.31L157.604 181.31L174.497 213.94L191.39 181.31L201.327 181.31L218.22 213.94L235.114 181.31L244.981 181.31L261.874 213.94L271.374 195.699L271.374 210.83L266.744 219.773L256.936 219.773L240.042 187.11L223.149 219.773L213.391 219.773L196.498 187.11L179.605 219.773L169.667 219.773L152.774 187.11L135.881 219.773L126.133 219.773L109.24 187.11L92.3464 219.773L82.4092 219.773L65.5161 187.11L48.6229 219.773L38.8745 219.773L21.9813 187.11L5.33662 219.208L5.33662 204.72L17.4401 181.377L17.1817 181.31ZM267.608 219.773L271.335 212.601L271.335 219.773L267.608 219.773ZM223.954 219.773L239.973 188.881L256.021 219.773L223.954 219.773ZM180.35 219.773L196.369 188.881L212.377 219.773L180.35 219.773ZM136.626 219.773L152.635 188.881L168.644 219.773L136.626 219.773ZM93.0221 219.773L109.041 188.881L125.05 219.773L93.0221 219.773ZM49.2489 219.773L65.2676 188.881L81.2764 219.773L49.2489 219.773ZM5.65461 219.773L21.6634 188.881L37.6721 219.773L5.65461 219.773ZM270.738 269.259L254.69 300.151L238.671 269.259L270.738 269.259ZM271.374 131.868L260.652 131.868L271.374 111.159L271.374 122.006L268.343 127.85L271.374 127.85L271.374 131.868ZM270.778 94.2357L254.73 125.227L238.681 94.2357L270.778 94.2357ZM5.00866 87.8603L5.00866 49.4864L271.325 49.4864L271.325 87.9046L5.00866 87.8603ZM17.1221 5.51191L26.6419 5.51191L43.5351 38.1413L60.4282 5.51191L70.2064 5.51191L87.0996 38.1413L103.993 5.51192L113.93 5.51192L130.823 38.1413L147.716 5.51192L157.494 5.51192L174.388 38.1413L191.281 5.51192L201.218 5.51193L218.111 38.1414L235.004 5.51193L245.001 5.51193L261.894 38.1414L271.354 19.8786L271.354 35.009L266.724 43.9522L256.916 43.9522L240.023 11.3007L223.129 43.9522L213.371 43.9522L196.478 11.3007L179.585 43.9522L169.648 43.9522L152.754 11.3006L135.861 43.9522L126.113 43.9522L109.22 11.3006L92.3265 43.9522L82.3894 43.9522L65.4962 11.3006L48.603 43.9522L38.8547 43.9522L21.9615 11.3006L5.31674 43.3988L5.31674 28.9103L17.4202 5.56724L17.1221 5.51191ZM59.5538 5.51191L43.5549 36.3704L27.5561 5.51191L59.5538 5.51191ZM103.158 5.51192L87.1592 36.3704L71.1604 5.51191L103.158 5.51192ZM146.931 5.51192L130.932 36.3704L114.934 5.51192L146.931 5.51192ZM190.536 5.51192L174.537 36.3704L158.538 5.51192L190.536 5.51192ZM234.259 5.51193L218.26 36.3704L202.261 5.51193L234.259 5.51193ZM271.325 18.1298L261.864 36.3815L245.866 5.52298L271.374 5.52298L271.325 18.1298ZM267.608 43.9522L271.335 36.78L271.335 43.9522L267.608 43.9522ZM223.954 43.9522L240.013 13.0716L256.021 43.9522L223.954 43.9522ZM180.35 43.9522L196.408 13.0716L212.417 43.9522L180.35 43.9522ZM136.626 43.9522L152.635 13.0716L168.644 43.9522L136.626 43.9522ZM93.0221 43.9522L109.031 13.0716L125.04 43.9522L93.0221 43.9522ZM49.2489 43.9522L65.2577 13.0716L81.2665 43.9522L49.2489 43.9522ZM5.65463 43.9522L21.6634 13.0716L37.6721 43.9522L5.65463 43.9522ZM5.01861 5.55616L16.1979 5.55616L5.00866 27.1394L5.00866 16.2925L8.03952 10.4484L4.99878 10.4484L5.01861 5.55616ZM5.0186 94.28L8.78481 94.28L5.0186 101.541L5.0186 94.28ZM5.0186 103.312L10.1263 93.4388L18.9803 93.4388L36.3803 127.009L53.7703 93.4388L62.5846 93.4388L79.9846 127.009L97.3746 93.4388L106.318 93.4388L123.718 127.009L141.108 93.4388L149.952 93.4388L167.362 127.009L184.752 93.4388L193.696 93.4388L211.105 127.009L228.495 93.4388L237.3 93.4388L254.69 127.009L271.335 94.9109L271.335 109.366L259.678 131.835L249.294 131.835L232.828 100.113L216.362 131.868L205.68 131.868L189.224 100.113L172.758 131.868L161.907 131.868L145.451 100.113L128.985 131.868L118.302 131.868L101.846 100.113L85.3804 131.868L74.5291 131.868L58.0731 100.113L41.6073 131.868L30.9248 131.868L14.4689 100.113L4.99877 118.387L5.0186 103.312ZM52.4388 94.28L36.3902 125.271L20.3417 94.28L52.4388 94.28ZM96.043 94.28L79.9945 125.271L63.946 94.28L96.043 94.28ZM139.767 94.28L123.718 125.271L107.67 94.28L139.767 94.28ZM183.371 94.28L167.322 125.271L151.274 94.28L183.371 94.28ZM227.094 94.28L211.046 125.271L194.997 94.28L227.094 94.28ZM14.3894 101.884L29.9311 131.868L4.91924 131.868L4.91924 120.147L14.3894 101.884ZM4.91923 181.355L16.1979 181.355L5.00865 202.938L5.00865 192.091L8.0395 186.247L4.99876 186.247L4.91923 181.355ZM4.91922 269.259L8.64566 269.259L4.91922 276.454L4.91922 269.259ZM4.91922 278.225L9.55988 269.259L19.3579 269.259L36.3803 301.955L53.2735 269.293L63.0218 269.293L79.9846 301.955L96.8777 269.293L106.815 269.293L123.758 301.955L140.651 269.293L150.389 269.293L167.362 301.955L184.255 269.293L194.192 269.293L211.135 301.955L228.028 269.293L237.797 269.293L254.69 301.955L271.374 269.857L271.374 284.312L259.271 307.655L249.721 307.655L232.828 275.026L215.935 307.655L206.157 307.655L189.264 275.026L172.37 307.655L162.433 307.655L145.54 275.026L128.647 307.655L118.869 307.655L101.976 275.026L85.0823 307.655L75.1452 307.655L58.252 275.026L41.3588 307.655L31.5806 307.655L14.6875 275.026L5.21735 293.3L4.91922 278.225ZM14.3893 276.797L30.3882 307.655L4.91922 307.655L4.91922 295.06L14.3893 276.797Z" fill="#D5D0C2"/>
<path d="M258.665 281.757L262.64 274.186L246.889 274.186L250.814 281.757L254.69 289.316L258.665 281.757ZM251.103 276.887L258.377 276.887L256.558 280.406L254.69 283.915L252.871 280.406L251.103 276.887Z" fill="#D5D0C2"/>
<path d="M228.912 295.192L224.997 302.763L240.678 302.763L236.802 295.192L232.827 287.566L228.912 295.192ZM236.474 300.051L229.2 300.051L231.019 296.542L232.827 293.034L234.646 296.542L236.474 300.051Z" fill="#D5D0C2"/>
<path d="M215.05 281.757L219.024 274.186L203.334 274.186L207.259 281.757L211.184 289.316L215.05 281.757ZM207.487 276.887L214.771 276.887L212.953 280.406L211.134 283.915L209.306 280.406L207.487 276.887Z" fill="#D5D0C2"/>
<path d="M185.308 295.192L181.393 302.763L197.054 302.763L193.138 295.192L189.164 287.621L185.308 295.192ZM192.87 300.051L185.596 300.051L187.415 296.542L189.233 293.034L191.091 296.542L192.87 300.051Z" fill="#D5D0C2"/>
<path d="M171.28 281.757L175.195 274.186L159.505 274.186L163.43 281.757L167.405 289.316L171.28 281.757ZM163.718 276.887L171.002 276.887L169.183 280.406L167.365 283.915L165.536 280.406L163.718 276.887Z" fill="#D5D0C2"/>
<path d="M141.535 295.192L137.619 302.763L153.33 302.763L149.355 295.192L145.46 287.566L141.535 295.192ZM149.097 300.051L141.823 300.051L143.641 296.542L145.46 293.034L147.278 296.542L149.097 300.051Z" fill="#D5D0C2"/>
<path d="M127.671 281.757L131.597 274.186L115.906 274.186L119.831 281.757L123.806 289.316L127.671 281.757ZM120.109 276.887L127.393 276.887L125.575 280.406L123.756 283.915L121.938 280.406L120.109 276.887Z" fill="#D5D0C2"/>
<path d="M97.9297 295.192L94.0145 302.763L109.695 302.763L105.78 295.192L101.805 287.621L97.9297 295.192ZM105.492 300.051L98.2179 300.051L100.036 296.542L101.855 293.034L103.644 296.542L105.492 300.051Z" fill="#D5D0C2"/>
<path d="M83.8982 281.757L87.873 274.186L72.1823 274.186L76.1075 281.757L80.0326 289.316L83.8982 281.757ZM76.336 276.887L83.6199 276.887L81.7816 280.406L79.9631 283.915L78.1446 280.406L76.336 276.887Z" fill="#D5D0C2"/>
<path d="M54.1579 295.192L50.2427 302.763L65.8838 302.763L61.9685 295.192L57.9937 287.621L54.1579 295.192ZM61.7201 300.051L54.4461 300.051L56.2646 296.542L58.0831 293.034L59.9215 296.542L61.7201 300.051Z" fill="#D5D0C2"/>
<path d="M40.2965 281.757L44.2217 274.186L28.5309 274.186L32.4561 281.757L36.3812 289.316L40.2965 281.757ZM32.7343 276.887L40.0481 276.887L38.2296 280.406L36.4111 283.915L34.5926 280.406L32.7343 276.887Z" fill="#D5D0C2"/>
<path d="M18.4 295.192L14.4251 287.621L10.5099 295.192L6.5847 302.763L22.3252 302.763L18.4 295.192ZM10.8378 300.051L12.6563 296.542L14.4748 293.034L16.2933 296.542L18.1218 300.051L10.8378 300.051Z" fill="#D5D0C2"/>
<path d="M17.7383 207.277L13.8131 214.848L29.5039 214.848L25.5787 207.277L21.6635 199.718L17.7383 207.277ZM25.3005 212.147L18.0165 212.147L19.835 208.628L21.6635 205.119L23.482 208.628L25.3005 212.147Z" fill="#D5D0C2"/>
<path d="M43.5552 201.409L47.5301 193.838L51.4453 186.268L35.7645 186.268L39.6797 193.838L43.5552 201.409ZM47.1922 188.979L45.3737 192.488L43.5552 195.997L41.7367 192.488L39.9182 188.979L47.1922 188.979Z" fill="#D5D0C2"/>
<path d="M61.3418 207.277L57.4167 214.848L73.1074 214.848L69.1823 207.277L65.2571 199.718L61.3418 207.277ZM68.904 212.147L61.6201 212.147L63.4386 208.628L65.2571 205.119L67.0855 208.628L68.904 212.147Z" fill="#D5D0C2"/>
<path d="M87.1597 201.409L91.1346 193.838L95.0498 186.268L79.369 186.268L83.2842 193.838L87.1597 201.409ZM90.7967 188.979L88.9782 192.488L87.1597 195.997L85.3412 192.488L83.5227 188.979L90.7967 188.979Z" fill="#D5D0C2"/>
<path d="M105.117 207.277L101.192 214.848L116.883 214.848L112.958 207.277L108.983 199.718L105.117 207.277ZM112.679 212.147L105.395 212.147L107.214 208.628L109.032 205.119L110.861 208.628L112.679 212.147Z" fill="#D5D0C2"/>
<path d="M130.933 201.409L134.858 193.838L138.773 186.268L123.093 186.268L127.008 193.838L130.933 201.409ZM134.57 188.979L132.752 192.488L130.933 195.997L129.115 192.488L127.296 188.979L134.57 188.979Z" fill="#D5D0C2"/>
<path d="M148.718 207.277L144.743 214.848L160.483 214.848L156.558 207.277L152.633 199.718L148.718 207.277ZM156.28 212.147L148.996 212.147L150.815 208.628L152.633 205.119L154.452 208.628L156.28 212.147Z" fill="#D5D0C2"/>
<path d="M174.537 201.409L178.462 193.838L182.377 186.268L166.696 186.268L170.611 193.838L174.537 201.409ZM178.174 188.979L176.355 192.488L174.537 195.997L172.718 192.488L170.9 188.979L178.174 188.979Z" fill="#D5D0C2"/>
<path d="M192.49 207.277L188.565 214.848L204.256 214.848L200.331 207.277L196.356 199.718L192.49 207.277ZM200.052 212.147L192.769 212.147L194.587 208.628L196.406 205.119L198.224 208.628L200.052 212.147Z" fill="#D5D0C2"/>
<path d="M218.307 201.409L222.282 193.838L226.197 186.268L210.467 186.268L214.382 193.838L218.307 201.409ZM221.894 188.979L220.076 192.488L218.257 195.997L216.439 192.488L214.62 188.979L221.894 188.979Z" fill="#D5D0C2"/>
<path d="M236.097 207.277L232.122 214.848L247.862 214.848L243.937 207.277L239.962 199.718L236.097 207.277ZM243.659 212.147L236.375 212.147L238.193 208.628L240.012 205.119L241.83 208.628L243.659 212.147Z" fill="#D5D0C2"/>
<path d="M261.914 201.409L265.829 193.838L269.804 186.268L254.063 186.268L257.988 193.838L261.914 201.409ZM265.551 188.979L263.732 192.488L261.914 195.997L260.095 192.488L258.267 188.979L265.551 188.979Z" fill="#D5D0C2"/>
<path d="M17.7383 31.4654L13.8131 39.0361L29.5039 39.0361L25.5787 31.4654L21.6635 23.9057L17.7383 31.4654ZM25.3005 36.3355L18.0165 36.3355L19.835 32.8157L21.6635 29.3071L23.482 32.8157L25.3005 36.3355Z" fill="#D5D0C2"/>
<path d="M43.5552 25.6006L47.5301 18.0298L51.4453 10.4591L35.7645 10.4591L39.6797 18.0298L43.5552 25.6006ZM47.1922 13.1708L45.3737 16.6795L43.5552 20.1882L41.7367 16.6795L39.9182 13.1708L47.1922 13.1708Z" fill="#D5D0C2"/>
<path d="M61.3418 31.4654L57.4167 39.0361L73.1074 39.0361L69.1823 31.4654L65.2571 23.9057L61.3418 31.4654ZM68.8643 36.3133L61.5803 36.3133L63.3988 32.7936L65.2173 29.2849L67.0458 32.7936L68.8643 36.3133Z" fill="#D5D0C2"/>
<path d="M87.1597 25.6006L91.1346 18.0298L95.0498 10.4591L79.369 10.4591L83.2842 18.0298L87.1597 25.6006ZM90.7967 13.1708L88.9782 16.6795L87.1597 20.1882L85.3412 16.6795L83.5227 13.1708L90.7967 13.1708Z" fill="#D5D0C2"/>
<path d="M105.117 31.4654L101.192 39.0361L116.883 39.0361L112.958 31.4654L108.983 23.9057L105.117 31.4654ZM112.679 36.3355L105.395 36.3355L107.214 32.8157L109.032 29.3071L110.861 32.8157L112.679 36.3355Z" fill="#D5D0C2"/>
<path d="M130.933 25.6006L134.858 18.0298L138.773 10.4591L123.093 10.4591L127.008 18.0298L130.933 25.6006ZM134.57 13.1708L132.752 16.6795L130.933 20.1882L129.115 16.6795L127.296 13.1708L134.57 13.1708Z" fill="#D5D0C2"/>
<path d="M148.718 31.4654L144.743 39.0361L160.483 39.0361L156.558 31.4654L152.633 23.9057L148.718 31.4654ZM156.31 36.3133L149.026 36.3133L150.844 32.7936L152.663 29.2849L154.481 32.7936L156.31 36.3133Z" fill="#D5D0C2"/>
<path d="M174.537 25.6006L178.462 18.0298L182.377 10.4591L166.696 10.4591L170.611 18.0298L174.537 25.6006ZM178.174 13.1708L176.355 16.6795L174.537 20.1882L172.718 16.6795L170.9 13.1708L178.174 13.1708Z" fill="#D5D0C2"/>
<path d="M192.49 31.4654L188.565 39.0361L204.256 39.0361L200.331 31.4654L196.356 23.9057L192.49 31.4654ZM200.033 36.3133L192.749 36.3133L194.567 32.7936L196.386 29.2849L198.204 32.7936L200.033 36.3133Z" fill="#D5D0C2"/>
<path d="M218.307 25.6006L222.282 18.0298L226.197 10.4591L210.467 10.4591L214.382 18.0298L218.307 25.6006ZM221.894 13.1708L220.076 16.6795L218.257 20.1882L216.439 16.6795L214.62 13.1708L221.894 13.1708Z" fill="#D5D0C2"/>
<path d="M236.097 31.4654L232.122 39.0361L247.862 39.0361L243.937 31.4654L239.962 23.9057L236.097 31.4654ZM243.659 36.3133L236.375 36.3133L238.193 32.7936L240.012 29.2849L241.83 32.7936L243.659 36.3133Z" fill="#D5D0C2"/>
<path d="M261.914 25.6006L265.829 18.0298L269.804 10.4591L254.063 10.4591L257.988 18.0298L261.914 25.6006ZM265.551 13.1708L263.732 16.6795L261.914 20.1882L260.095 16.6795L258.267 13.1708L265.551 13.1708Z" fill="#D5D0C2"/>
<path d="M266.499 231.793C266.508 231.637 266.487 231.48 266.437 231.333C266.387 231.186 266.31 231.053 266.21 230.942C266.11 230.831 265.991 230.745 265.859 230.689C265.727 230.634 265.586 230.61 265.446 230.62L242.59 230.199C242.401 230.195 242.213 230.233 242.038 230.311C241.862 230.39 241.703 230.507 241.569 230.656C241.436 230.805 241.33 230.983 241.26 231.178C241.189 231.373 241.155 231.583 241.159 231.793L241.537 251.13C241.542 251.439 241.655 251.734 241.851 251.953C242.048 252.172 242.312 252.297 242.59 252.303L259.483 252.746C259.675 252.752 259.867 252.714 260.045 252.635C260.224 252.556 260.386 252.437 260.522 252.286C260.657 252.135 260.764 251.954 260.835 251.755C260.906 251.556 260.94 251.344 260.934 251.13L260.537 237.361C260.545 237.204 260.524 237.047 260.474 236.9C260.425 236.754 260.347 236.62 260.248 236.509C260.148 236.398 260.028 236.312 259.897 236.257C259.765 236.201 259.624 236.178 259.483 236.187L248.036 236.431C247.927 236.431 247.819 236.455 247.718 236.502C247.617 236.549 247.526 236.617 247.449 236.704C247.372 236.79 247.312 236.893 247.271 237.006C247.23 237.118 247.21 237.239 247.211 237.361L247.32 245.618C247.316 245.723 247.332 245.829 247.366 245.928C247.401 246.027 247.453 246.117 247.52 246.192C247.588 246.267 247.668 246.325 247.757 246.363C247.846 246.402 247.941 246.419 248.036 246.415L253.591 246.16L253.66 246.16C253.719 246.157 253.778 246.141 253.831 246.113C253.885 246.084 253.932 246.044 253.971 245.994C254.01 245.944 254.04 245.886 254.058 245.824C254.076 245.761 254.083 245.694 254.078 245.629L253.859 241.876C253.847 241.808 253.814 241.747 253.766 241.703C253.718 241.659 253.658 241.635 253.596 241.635C253.533 241.635 253.473 241.659 253.425 241.703C253.377 241.747 253.344 241.808 253.332 241.876L253.144 245.064L248.771 244.854L248.861 238.312L258.39 238.523L258.072 249.591L243.693 249.934L244.011 233.332L264.402 232.955L264.492 256.199L241.527 256.885C241.445 256.885 241.367 256.921 241.309 256.986C241.251 257.05 241.219 257.137 241.219 257.228C241.219 257.319 241.251 257.407 241.309 257.471C241.367 257.535 241.445 257.571 241.527 257.571L265.446 258.291C265.572 258.3 265.7 258.28 265.819 258.232C265.939 258.185 266.049 258.111 266.142 258.014C266.235 257.918 266.309 257.802 266.36 257.672C266.411 257.543 266.438 257.403 266.439 257.261C266.439 257.261 266.509 231.815 266.499 231.793Z" fill="#D5D0C2"/>
<path d="M232.223 236.729L215.33 236.286C215.138 236.279 214.946 236.315 214.767 236.394C214.588 236.472 214.425 236.591 214.289 236.742C214.153 236.894 214.046 237.075 213.976 237.275C213.905 237.474 213.872 237.688 213.879 237.902L214.267 251.671C214.266 251.827 214.292 251.981 214.345 252.125C214.398 252.268 214.477 252.399 214.576 252.508C214.675 252.618 214.793 252.704 214.922 252.761C215.052 252.819 215.191 252.847 215.33 252.845L226.768 252.601C226.878 252.603 226.987 252.579 227.089 252.533C227.191 252.487 227.283 252.419 227.361 252.332C227.439 252.245 227.5 252.142 227.542 252.029C227.583 251.915 227.604 251.794 227.603 251.671L227.493 243.414C227.496 243.308 227.479 243.202 227.444 243.103C227.408 243.004 227.355 242.915 227.286 242.84C227.218 242.765 227.137 242.707 227.048 242.668C226.959 242.63 226.863 242.613 226.768 242.617L221.213 242.872L221.153 242.872C221.034 242.881 220.922 242.941 220.842 243.04C220.762 243.14 220.721 243.27 220.726 243.403L220.955 247.155C220.955 247.232 220.982 247.305 221.03 247.359C221.079 247.413 221.144 247.443 221.213 247.443C221.282 247.443 221.347 247.413 221.396 247.359C221.444 247.305 221.471 247.232 221.471 247.155L221.67 243.968L226.042 244.178L225.953 250.719L216.413 250.509L216.731 239.441L231.11 239.064C231.11 240.99 230.832 253.154 230.782 255.667L210.401 256.043C210.401 253.962 210.312 234.626 210.312 232.8L233.277 232.114C233.358 232.114 233.437 232.077 233.495 232.013C233.552 231.949 233.585 231.861 233.585 231.77C233.585 231.679 233.552 231.592 233.495 231.528C233.437 231.463 233.358 231.427 233.277 231.427L209.348 230.708C209.225 230.705 209.103 230.729 208.988 230.78C208.874 230.83 208.77 230.906 208.682 231.001C208.594 231.097 208.524 231.212 208.476 231.338C208.429 231.464 208.404 231.6 208.404 231.737C208.404 231.737 208.285 257.194 208.295 257.194C208.295 257.348 208.322 257.501 208.375 257.643C208.428 257.786 208.505 257.915 208.603 258.024C208.701 258.133 208.817 258.219 208.945 258.278C209.073 258.337 209.21 258.368 209.348 258.368L232.204 258.788C232.393 258.793 232.581 258.755 232.757 258.676C232.933 258.598 233.093 258.481 233.228 258.332C233.362 258.183 233.468 258.006 233.54 257.81C233.612 257.615 233.647 257.405 233.644 257.194L233.267 237.858C233.25 237.559 233.133 237.278 232.941 237.069C232.748 236.861 232.492 236.739 232.223 236.729Z" fill="#D5D0C2"/>
<path d="M200.433 231.793C200.433 231.482 200.322 231.183 200.124 230.963C199.927 230.743 199.659 230.619 199.38 230.619L176.524 230.199C176.335 230.194 176.146 230.232 175.97 230.311C175.794 230.389 175.634 230.506 175.5 230.655C175.365 230.804 175.259 230.981 175.188 231.177C175.116 231.372 175.08 231.582 175.083 231.793L175.461 251.129C175.468 251.439 175.583 251.735 175.781 251.953C175.979 252.172 176.245 252.297 176.524 252.302L193.417 252.745C193.61 252.753 193.802 252.716 193.982 252.638C194.162 252.56 194.325 252.441 194.462 252.289C194.599 252.138 194.706 251.957 194.778 251.757C194.85 251.558 194.884 251.344 194.878 251.129L194.481 237.36C194.489 237.202 194.468 237.045 194.417 236.897C194.367 236.749 194.289 236.616 194.188 236.504C194.087 236.393 193.967 236.307 193.834 236.253C193.701 236.198 193.559 236.175 193.417 236.187L181.98 236.43C181.87 236.429 181.76 236.452 181.659 236.498C181.557 236.544 181.464 236.613 181.386 236.699C181.309 236.786 181.247 236.889 181.206 237.003C181.164 237.116 181.144 237.238 181.145 237.36L181.254 245.617C181.251 245.723 181.268 245.829 181.304 245.928C181.339 246.027 181.393 246.117 181.461 246.192C181.529 246.266 181.61 246.325 181.699 246.363C181.789 246.401 181.884 246.419 181.98 246.414L187.534 246.159L187.594 246.159C187.714 246.151 187.825 246.09 187.905 245.991C187.985 245.892 188.027 245.761 188.021 245.628L187.793 241.876C187.793 241.8 187.766 241.726 187.717 241.672C187.669 241.618 187.603 241.588 187.534 241.588C187.466 241.588 187.4 241.618 187.352 241.672C187.303 241.726 187.276 241.8 187.276 241.876L187.077 245.064L182.705 244.853L182.794 238.312L192.334 238.522C192.334 240.216 192.076 247.322 192.016 249.591L177.637 249.967L177.965 233.364L198.346 232.988L198.436 256.232L175.471 256.918C175.389 256.918 175.311 256.954 175.253 257.018C175.195 257.083 175.163 257.17 175.163 257.261C175.163 257.352 175.195 257.439 175.253 257.504C175.311 257.568 175.389 257.604 175.471 257.604L199.399 258.323C199.522 258.326 199.645 258.302 199.759 258.252C199.874 258.201 199.978 258.126 200.066 258.03C200.154 257.934 200.224 257.82 200.271 257.693C200.319 257.567 200.343 257.431 200.343 257.294C200.343 257.294 200.443 231.815 200.433 231.793Z" fill="#D5D0C2"/>
<path d="M166.159 236.729L149.266 236.286C149.074 236.28 148.882 236.318 148.704 236.397C148.525 236.476 148.363 236.595 148.227 236.746C148.092 236.897 147.985 237.078 147.914 237.277C147.843 237.476 147.809 237.688 147.815 237.902L148.212 251.671C148.204 251.828 148.225 251.985 148.275 252.131C148.324 252.278 148.402 252.412 148.501 252.522C148.601 252.633 148.721 252.719 148.852 252.775C148.984 252.831 149.125 252.854 149.266 252.845L160.713 252.601C160.934 252.598 161.145 252.499 161.301 252.326C161.457 252.152 161.545 251.917 161.548 251.671L161.429 243.414C161.433 243.308 161.417 243.203 161.383 243.104C161.348 243.005 161.296 242.915 161.229 242.84C161.161 242.765 161.081 242.707 160.992 242.668C160.903 242.63 160.808 242.613 160.713 242.617L155.158 242.872L155.089 242.872C155.03 242.875 154.971 242.891 154.918 242.919C154.864 242.948 154.817 242.988 154.778 243.038C154.739 243.088 154.709 243.146 154.691 243.208C154.673 243.271 154.666 243.337 154.671 243.403L154.9 247.155C154.9 247.232 154.927 247.305 154.976 247.359C155.024 247.413 155.09 247.443 155.158 247.443C155.227 247.443 155.293 247.413 155.341 247.359C155.389 247.305 155.417 247.232 155.417 247.155L155.605 243.968L159.978 244.178L159.898 250.719L150.359 250.509L150.677 239.441L165.046 239.064C165.046 240.99 164.777 253.154 164.728 255.667L144.386 256.043L144.287 232.8L167.262 232.114C167.343 232.114 167.422 232.077 167.48 232.013C167.537 231.949 167.57 231.861 167.57 231.77C167.57 231.679 167.537 231.592 167.48 231.528C167.422 231.463 167.343 231.427 167.262 231.427L143.333 230.708C143.206 230.699 143.079 230.719 142.96 230.766C142.84 230.814 142.73 230.888 142.637 230.984C142.544 231.081 142.47 231.197 142.419 231.327C142.367 231.456 142.34 231.596 142.339 231.737C142.339 231.737 142.23 257.194 142.24 257.194C142.231 257.351 142.253 257.508 142.302 257.655C142.352 257.801 142.43 257.935 142.529 258.046C142.629 258.156 142.748 258.243 142.88 258.298C143.012 258.354 143.153 258.377 143.293 258.368L166.149 258.788C166.338 258.793 166.526 258.755 166.701 258.676C166.877 258.598 167.036 258.48 167.17 258.331C167.303 258.183 167.409 258.005 167.479 257.81C167.55 257.614 167.584 257.405 167.58 257.194L167.202 237.858C167.187 237.558 167.072 237.276 166.878 237.067C166.685 236.857 166.428 236.737 166.159 236.729Z" fill="#D5D0C2"/>
<path d="M134.356 231.793C134.365 231.637 134.344 231.48 134.294 231.333C134.244 231.186 134.167 231.053 134.067 230.942C133.968 230.831 133.848 230.745 133.716 230.689C133.584 230.634 133.444 230.61 133.303 230.62L110.448 230.199C110.259 230.195 110.071 230.233 109.895 230.311C109.72 230.39 109.56 230.507 109.427 230.656C109.293 230.805 109.188 230.983 109.117 231.178C109.047 231.373 109.013 231.583 109.017 231.793L109.394 251.13C109.399 251.439 109.512 251.734 109.708 251.953C109.905 252.172 110.17 252.297 110.448 252.303L127.341 252.746C127.533 252.752 127.724 252.714 127.902 252.635C128.081 252.556 128.243 252.437 128.379 252.286C128.515 252.135 128.621 251.954 128.692 251.755C128.763 251.556 128.797 251.344 128.792 251.13L128.394 237.361C128.403 237.204 128.382 237.047 128.332 236.9C128.282 236.754 128.205 236.62 128.105 236.509C128.005 236.398 127.886 236.312 127.754 236.257C127.622 236.201 127.481 236.178 127.341 236.187L115.893 236.431C115.673 236.434 115.462 236.533 115.306 236.706C115.15 236.88 115.061 237.115 115.058 237.361L115.178 245.618C115.173 245.723 115.189 245.829 115.223 245.928C115.258 246.027 115.31 246.117 115.378 246.192C115.445 246.267 115.526 246.325 115.614 246.363C115.703 246.402 115.798 246.419 115.893 246.415L121.448 246.16L121.527 246.16C121.587 246.157 121.645 246.141 121.698 246.113C121.752 246.084 121.799 246.044 121.839 245.994C121.878 245.944 121.907 245.886 121.925 245.824C121.944 245.761 121.95 245.694 121.945 245.629L121.716 241.876C121.716 241.8 121.689 241.727 121.641 241.673C121.592 241.619 121.526 241.589 121.458 241.589C121.389 241.589 121.324 241.619 121.275 241.673C121.227 241.727 121.2 241.8 121.2 241.876L121.011 245.064L116.638 244.854C116.638 243.747 116.708 239.641 116.718 238.312L126.258 238.523L125.94 249.591L111.59 249.934L111.908 233.332L132.289 232.955L132.389 256.199L109.414 256.885C109.332 256.885 109.254 256.921 109.196 256.986C109.138 257.05 109.106 257.137 109.106 257.228C109.106 257.319 109.138 257.407 109.196 257.471C109.254 257.535 109.332 257.571 109.414 257.571L133.343 258.291C133.47 258.3 133.597 258.28 133.716 258.232C133.836 258.185 133.946 258.111 134.039 258.014C134.132 257.918 134.206 257.802 134.257 257.672C134.308 257.543 134.335 257.403 134.336 257.261C134.336 257.261 134.366 231.815 134.356 231.793Z" fill="#D5D0C2"/>
<path d="M100.086 236.729L83.1932 236.286C83.0004 236.279 82.8081 236.315 82.6285 236.393C82.4488 236.472 82.2854 236.59 82.1485 236.742C82.0116 236.893 81.9041 237.074 81.8325 237.274C81.7609 237.474 81.7269 237.687 81.7324 237.902L82.1299 251.671C82.121 251.829 82.1425 251.987 82.193 252.134C82.2434 252.282 82.3216 252.416 82.4223 252.527C82.523 252.638 82.6439 252.724 82.7769 252.779C82.9098 252.833 83.0518 252.856 83.1932 252.845L94.6308 252.601C94.7408 252.602 94.85 252.579 94.9519 252.533C95.0537 252.487 95.1463 252.419 95.2241 252.332C95.3018 252.245 95.3633 252.142 95.4047 252.029C95.4462 251.915 95.4669 251.794 95.4656 251.671L95.3563 243.414C95.3591 243.308 95.3422 243.202 95.3066 243.103C95.271 243.004 95.2175 242.915 95.1494 242.84C95.0814 242.765 95.0002 242.707 94.9109 242.668C94.8217 242.63 94.7264 242.613 94.6308 242.617L89.076 242.872L89.0164 242.872C88.8968 242.881 88.7851 242.941 88.7052 243.04C88.6253 243.14 88.5836 243.27 88.5891 243.403L88.8176 247.155C88.8176 247.232 88.8448 247.305 88.8933 247.359C88.9417 247.413 89.0075 247.443 89.076 247.443C89.1445 247.443 89.2102 247.413 89.2587 247.359C89.3071 247.305 89.3343 247.232 89.3343 247.155L89.5231 243.968L93.9054 244.178L93.816 250.719L84.2763 250.509L84.5943 239.441L98.9734 239.064L98.6455 255.667L78.2643 256.043L78.1749 232.8L101.14 232.114C101.221 232.114 101.3 232.077 101.358 232.013C101.415 231.949 101.448 231.861 101.448 231.77C101.448 231.679 101.415 231.592 101.358 231.528C101.3 231.463 101.221 231.427 101.14 231.427L77.211 230.708C76.9591 230.707 76.7163 230.813 76.5318 231.004C76.3473 231.195 76.2349 231.457 76.2173 231.737C76.2173 231.737 76.108 257.194 76.1179 257.194C76.1179 257.348 76.1451 257.501 76.1981 257.643C76.251 257.786 76.3286 257.915 76.4264 258.024C76.5243 258.133 76.6404 258.219 76.7681 258.278C76.8959 258.337 77.0329 258.368 77.1712 258.368L100.027 258.788C100.216 258.793 100.404 258.755 100.579 258.676C100.755 258.598 100.914 258.48 101.048 258.331C101.181 258.183 101.287 258.005 101.357 257.81C101.428 257.614 101.462 257.405 101.458 257.194L101.08 237.858C101.066 237.567 100.958 237.292 100.775 237.084C100.592 236.877 100.347 236.75 100.086 236.729Z" fill="#D5D0C2"/>
<path d="M68.2959 231.793C68.2959 231.482 68.1849 231.183 67.9874 230.963C67.7899 230.743 67.5219 230.619 67.2426 230.619L44.3871 230.199C44.1972 230.193 44.0083 230.23 43.8316 230.308C43.655 230.385 43.4944 230.502 43.3597 230.651C43.2249 230.801 43.1188 230.979 43.0477 231.175C42.9766 231.371 42.9421 231.581 42.9462 231.793L43.3238 251.129C43.3314 251.439 43.4462 251.735 43.6443 251.953C43.8423 252.172 44.1084 252.297 44.3871 252.302L61.2803 252.745C61.4727 252.753 61.6644 252.716 61.8436 252.638C62.0228 252.559 62.1855 252.441 62.3216 252.289C62.4578 252.137 62.5644 251.956 62.6348 251.757C62.7053 251.557 62.738 251.343 62.7311 251.129L62.3336 237.36C62.3423 237.203 62.3211 237.047 62.2712 236.9C62.2214 236.753 62.1441 236.62 62.0445 236.509C61.9449 236.398 61.8252 236.312 61.6935 236.256C61.5617 236.201 61.4209 236.177 61.2803 236.187L49.8327 236.43C49.7235 236.43 49.6154 236.454 49.5147 236.501C49.414 236.548 49.3226 236.617 49.2459 236.703C49.1692 236.79 49.1086 236.892 49.0678 237.005C49.0269 237.118 49.0065 237.238 49.0079 237.36L49.1172 245.617C49.113 245.723 49.1285 245.829 49.163 245.927C49.1975 246.026 49.25 246.116 49.3173 246.191C49.3846 246.266 49.4652 246.325 49.5539 246.363C49.6427 246.401 49.7376 246.419 49.8327 246.414L55.3975 246.159L55.4571 246.159C55.5163 246.157 55.5744 246.141 55.6279 246.112C55.6814 246.084 55.7291 246.043 55.7681 245.993C55.8072 245.944 55.8367 245.886 55.855 245.823C55.8733 245.76 55.8799 245.694 55.8744 245.628L55.6558 241.876C55.6558 241.8 55.6286 241.726 55.5802 241.672C55.5317 241.618 55.466 241.588 55.3975 241.588C55.329 241.588 55.2632 241.618 55.2148 241.672C55.1663 241.726 55.1391 241.8 55.1391 241.876L54.9403 245.064L50.568 244.853L50.6574 238.312L60.1971 238.522L59.8791 249.591L45.5 249.967L45.828 233.364L66.2091 232.988L66.2985 256.232L43.3337 256.918C43.252 256.918 43.1737 256.954 43.1159 257.018C43.0581 257.083 43.0257 257.17 43.0257 257.261C43.0257 257.352 43.0581 257.439 43.1159 257.504C43.1737 257.568 43.252 257.604 43.3337 257.604L67.2625 258.323C67.3855 258.326 67.5078 258.302 67.6222 258.252C67.7366 258.201 67.8409 258.126 67.9288 258.03C68.0167 257.934 68.0866 257.82 68.1343 257.693C68.1819 257.567 68.2065 257.431 68.2065 257.294C68.2065 257.294 68.2959 231.815 68.2959 231.793Z" fill="#D5D0C2"/>
<path d="M34.0286 236.731L17.1355 236.288C16.9434 236.282 16.7523 236.319 16.5738 236.398C16.3953 236.478 16.2332 236.596 16.0973 236.748C15.9615 236.899 15.8548 237.079 15.7839 237.278C15.7129 237.477 15.6791 237.69 15.6846 237.904L16.0821 251.673C16.0734 251.829 16.0946 251.986 16.1445 252.133C16.1943 252.28 16.2716 252.413 16.3712 252.524C16.4709 252.635 16.5905 252.721 16.7223 252.777C16.854 252.832 16.9949 252.856 17.1355 252.846L28.5831 252.603C28.6922 252.603 28.8003 252.579 28.901 252.532C29.0017 252.485 29.0931 252.416 29.1698 252.33C29.2466 252.243 29.3071 252.141 29.3479 252.028C29.3888 251.915 29.4092 251.794 29.4079 251.673L29.2985 243.416C29.3028 243.31 29.2872 243.204 29.2527 243.105C29.2183 243.007 29.1657 242.917 29.0984 242.842C29.0311 242.767 28.9505 242.708 28.8618 242.67C28.7731 242.632 28.6781 242.614 28.5831 242.619L23.0282 242.874L22.9586 242.874C22.8994 242.876 22.8413 242.892 22.7878 242.921C22.7344 242.949 22.6866 242.99 22.6476 243.039C22.6086 243.089 22.579 243.147 22.5607 243.21C22.5425 243.273 22.5358 243.339 22.5413 243.405L22.7599 247.157C22.7718 247.225 22.8046 247.286 22.8526 247.33C22.9007 247.375 22.961 247.399 23.0232 247.399C23.0855 247.399 23.1458 247.375 23.1938 247.33C23.2418 247.286 23.2746 247.225 23.2866 247.157L23.4754 243.969L27.8477 244.18C27.8477 245.286 27.7782 249.393 27.7583 250.721L18.2186 250.511L18.5366 239.442L32.9157 239.066C32.9157 240.992 32.6374 253.156 32.5977 255.669L12.2265 256.045C12.2265 253.964 12.147 234.628 12.1371 232.801L35.1018 232.115C35.1835 232.115 35.2619 232.079 35.3197 232.015C35.3774 231.95 35.4099 231.863 35.4099 231.772C35.4099 231.681 35.3774 231.594 35.3197 231.529C35.2619 231.465 35.1835 231.429 35.1018 231.429L11.1831 230.709C11.0563 230.7 10.9292 230.72 10.8096 230.768C10.69 230.815 10.5803 230.89 10.4873 230.986C10.3943 231.082 10.3199 231.199 10.2687 231.328C10.2175 231.458 10.1905 231.597 10.1894 231.739L10.0801 257.196C10.0737 257.364 10.0996 257.531 10.1561 257.686C10.2127 257.841 10.2984 257.982 10.4077 258.097C10.5169 258.212 10.6471 258.3 10.7894 258.355C10.9317 258.409 11.0829 258.429 11.2328 258.414L34.0883 258.834C34.2773 258.839 34.4652 258.801 34.6406 258.722C34.8161 258.644 34.9754 258.526 35.1091 258.377C35.2428 258.228 35.3481 258.051 35.4186 257.856C35.489 257.66 35.5233 257.451 35.5192 257.24L35.1416 237.904C35.1377 237.745 35.1059 237.589 35.0479 237.445C34.9898 237.3 34.9068 237.169 34.8034 237.06C34.7 236.951 34.5784 236.866 34.4455 236.81C34.3125 236.753 34.1709 236.726 34.0286 236.731Z" fill="#D5D0C2"/>
<path d="M258.665 106.842L262.64 99.2714L246.889 99.2714L250.814 106.842L254.69 114.402L258.665 106.842ZM251.103 101.972L258.377 101.972L256.558 105.492L254.69 109L252.871 105.492L251.103 101.972Z" fill="#D5D0C2"/>
<path d="M228.912 120.28L224.997 127.851L240.678 127.851L236.762 120.28L232.827 112.687L228.912 120.28ZM236.474 125.139L229.2 125.139L231.019 121.63L232.827 118.122L234.646 121.63L236.474 125.139Z" fill="#D5D0C2"/>
<path d="M215.05 106.842L219.024 99.2714L203.334 99.2714L207.259 106.842L211.184 114.402L215.05 106.842ZM207.487 101.972L214.771 101.972L212.953 105.492L211.134 109L209.306 105.492L207.487 101.972Z" fill="#D5D0C2"/>
<path d="M185.308 120.28L181.393 127.851L197.054 127.851L193.138 120.28L189.164 112.709L185.308 120.28ZM192.87 125.139L185.596 125.139L187.415 121.63L189.233 118.122L191.091 121.63L192.87 125.139Z" fill="#D5D0C2"/>
<path d="M171.28 106.842L175.195 99.2714L159.505 99.2714L163.43 106.842L167.405 114.402L171.28 106.842ZM163.718 101.972L171.002 101.972L169.183 105.492L167.365 109L165.536 105.492L163.718 101.972Z" fill="#D5D0C2"/>
<path d="M141.535 120.28L137.619 127.851L153.33 127.851L149.415 120.28L145.49 112.709L141.535 120.28ZM149.097 125.139L141.823 125.139L143.641 121.63L145.46 118.122L147.278 121.63L149.097 125.139Z" fill="#D5D0C2"/>
<path d="M127.671 106.842L131.597 99.2714L115.906 99.2714L119.831 106.842L123.806 114.402L127.671 106.842ZM120.109 101.972L127.393 101.972L125.575 105.492L123.756 109L121.938 105.492L120.109 101.972Z" fill="#D5D0C2"/>
<path d="M97.9297 120.28L94.0145 127.851L109.695 127.851L105.78 120.28L101.805 112.709L97.9297 120.28ZM105.492 125.139L98.2179 125.139L100.036 121.63L101.855 118.122L103.644 121.63L105.492 125.139Z" fill="#D5D0C2"/>
<path d="M83.8982 106.842L87.873 99.2714L72.1823 99.2714L76.1075 106.842L80.0326 114.402L83.8982 106.842ZM76.336 101.972L83.6199 101.972L81.7816 105.492L79.9631 109L78.1446 105.492L76.336 101.972Z" fill="#D5D0C2"/>
<path d="M54.1579 120.28L50.2427 127.851L65.8838 127.851L61.9685 120.28L57.9937 112.709L54.1579 120.28ZM61.7201 125.139L54.4461 125.139L56.2646 121.63L58.0831 118.122L59.9215 121.63L61.7201 125.139Z" fill="#D5D0C2"/>
<path d="M40.2965 106.842L44.2217 99.2714L28.5309 99.2714L32.4561 106.842L36.3812 114.402L40.2965 106.842ZM32.7343 101.972L40.0481 101.972L38.2296 105.492L36.4111 109L34.5926 105.492L32.7343 101.972Z" fill="#D5D0C2"/>
<path d="M18.4 120.28L14.4251 112.709L10.5099 120.28L6.5847 127.851L22.3252 127.851L18.4 120.28ZM10.8378 125.139L12.6563 121.63L14.4748 118.122L16.2933 121.63L18.1218 125.139L10.8378 125.139Z" fill="#D5D0C2"/>
<path d="M266.499 56.8787C266.508 56.7221 266.487 56.5652 266.437 56.4184C266.387 56.2717 266.31 56.1384 266.21 56.0275C266.11 55.9166 265.991 55.8305 265.859 55.7749C265.727 55.7194 265.586 55.6957 265.446 55.7054L242.59 55.2849C242.401 55.2803 242.213 55.3184 242.038 55.3969C241.862 55.4754 241.703 55.5927 241.569 55.7416C241.436 55.8905 241.33 56.068 241.26 56.2634C241.189 56.4589 241.155 56.6681 241.159 56.8787L241.557 76.1597C241.562 76.4691 241.675 76.7643 241.871 76.9831C242.067 77.2019 242.332 77.3273 242.61 77.333L259.503 77.7757C259.693 77.7773 259.881 77.7363 260.056 77.6552C260.231 77.5741 260.389 77.4546 260.522 77.3038C260.655 77.153 260.759 76.974 260.828 76.7774C260.897 76.5808 260.93 76.3708 260.924 76.1597L260.527 62.3907C260.536 62.2341 260.514 62.0772 260.464 61.9305C260.415 61.7837 260.337 61.6505 260.238 61.5395C260.138 61.4286 260.018 61.3425 259.887 61.287C259.755 61.2315 259.614 61.2078 259.473 61.2175L248.026 61.461C247.916 61.4595 247.808 61.4825 247.706 61.5289C247.605 61.5752 247.513 61.6438 247.436 61.7306C247.359 61.8174 247.299 61.9206 247.258 62.034C247.218 62.1474 247.198 62.2687 247.201 62.3907L247.31 70.6477C247.306 70.7536 247.322 70.8594 247.356 70.9582C247.391 71.057 247.443 71.1467 247.511 71.2217C247.578 71.2966 247.658 71.3552 247.747 71.3936C247.836 71.4319 247.931 71.4493 248.026 71.4446L253.581 71.179L253.65 71.179C253.709 71.1748 253.767 71.1577 253.819 71.1286C253.872 71.0996 253.919 71.0593 253.958 71.0099C253.997 70.9606 254.027 70.9032 254.045 70.841C254.064 70.7788 254.072 70.7131 254.068 70.6477L253.849 66.8955C253.837 66.8275 253.804 66.7662 253.756 66.7221C253.708 66.678 253.648 66.6539 253.586 66.6539C253.523 66.6539 253.463 66.678 253.415 66.7221C253.367 66.7662 253.334 66.8275 253.322 66.8955L253.134 70.0832L248.761 69.8729L248.851 63.3315L258.38 63.5418L258.062 74.6102L243.693 75.0529L244.011 58.4504L264.402 58.0741L264.492 81.3176L241.527 82.0038C241.445 82.0038 241.367 82.04 241.309 82.1043C241.251 82.1687 241.219 82.2559 241.219 82.3469C241.219 82.4379 241.251 82.5252 241.309 82.5896C241.367 82.6539 241.445 82.69 241.527 82.69L265.446 83.4095C265.572 83.4185 265.7 83.3987 265.819 83.3511C265.939 83.3036 266.049 83.2294 266.142 83.1331C266.235 83.0367 266.309 82.9203 266.36 82.7908C266.411 82.6613 266.438 82.5216 266.439 82.3801C266.439 82.3801 266.509 56.9008 266.499 56.8787Z" fill="#D5D0C2"/>
<path d="M232.222 61.7726L215.329 61.3299C215.139 61.3325 214.951 61.3781 214.778 61.464C214.604 61.5499 214.448 61.6743 214.318 61.8297C214.189 61.985 214.09 62.168 214.026 62.3675C213.962 62.567 213.936 62.7788 213.948 62.9902L214.335 76.7592C214.335 76.9142 214.363 77.0676 214.416 77.2107C214.47 77.3538 214.548 77.4836 214.647 77.5927C214.746 77.7018 214.863 77.788 214.992 77.8463C215.121 77.9046 215.259 77.9339 215.399 77.9324L226.836 77.6889C226.946 77.6904 227.055 77.6674 227.157 77.6212C227.259 77.575 227.352 77.5065 227.429 77.4199C227.507 77.3333 227.569 77.2302 227.61 77.1167C227.652 77.0032 227.672 76.8817 227.671 76.7592L227.562 68.5022C227.564 68.3957 227.548 68.2898 227.512 68.1909C227.476 68.0921 227.423 68.0025 227.355 67.9277C227.287 67.8529 227.206 67.7946 227.116 67.7563C227.027 67.718 226.932 67.7006 226.836 67.7052L221.281 67.9598L221.222 67.9598C221.102 67.9684 220.991 68.0289 220.911 68.1282C220.831 68.2276 220.789 68.3579 220.794 68.4911L221.023 72.2433C221.023 72.3196 221.05 72.3928 221.099 72.4468C221.147 72.5008 221.213 72.5311 221.281 72.5311C221.35 72.5311 221.416 72.5008 221.464 72.4468C221.513 72.3928 221.54 72.3196 221.54 72.2433L221.738 69.0556L226.111 69.2659L226.021 75.8073L216.482 75.597L216.8 64.5286L231.179 64.1523C231.179 66.0782 230.901 78.2423 230.851 80.7548L210.47 81.1312C210.47 79.0503 210.38 59.7139 210.38 57.8876L233.345 57.2014C233.427 57.2014 233.505 57.1653 233.563 57.1009C233.621 57.0366 233.653 56.9493 233.653 56.8583C233.653 56.7673 233.621 56.68 233.563 56.6157C233.505 56.5513 233.427 56.5152 233.345 56.5152L209.416 55.7957C209.293 55.7928 209.171 55.8172 209.057 55.8676C208.942 55.9181 208.838 55.9934 208.75 56.0893C208.662 56.1851 208.592 56.2996 208.545 56.426C208.497 56.5524 208.472 56.688 208.472 56.8251C208.472 56.8251 208.353 82.2823 208.363 82.2823C208.366 82.5925 208.477 82.8893 208.674 83.1087C208.871 83.3281 209.138 83.4526 209.416 83.4555L232.272 83.8761C232.461 83.8806 232.65 83.8425 232.826 83.7641C233.002 83.6858 233.162 83.5687 233.296 83.42C233.431 83.2712 233.537 83.0938 233.608 82.8983C233.68 82.7029 233.715 82.4933 233.713 82.2823L233.335 62.9459C233.331 62.7874 233.299 62.6314 233.241 62.4866C233.183 62.3419 233.1 62.2113 232.997 62.1024C232.894 61.9934 232.772 61.9082 232.639 61.8516C232.506 61.7951 232.364 61.7682 232.222 61.7726Z" fill="#D5D0C2"/>
<path d="M200.433 56.881C200.434 56.7266 200.408 56.5734 200.355 56.4303C200.303 56.2873 200.225 56.1574 200.127 56.0481C200.029 55.9389 199.912 55.8525 199.784 55.7941C199.656 55.7357 199.518 55.7063 199.379 55.7078L176.524 55.2872C176.334 55.2827 176.146 55.3208 175.97 55.3992C175.794 55.4775 175.634 55.5946 175.5 55.7434C175.365 55.8921 175.259 56.0695 175.187 56.265C175.116 56.4605 175.08 56.67 175.083 56.881L175.481 76.1621C175.488 76.4725 175.603 76.7677 175.801 76.9862C175.999 77.2047 176.265 77.3298 176.544 77.3353L193.437 77.7781C193.63 77.7857 193.822 77.7493 194.002 77.6709C194.181 77.5925 194.345 77.474 194.482 77.3225C194.619 77.1711 194.726 76.9899 194.798 76.7903C194.869 76.5907 194.903 76.3769 194.898 76.1621L194.5 62.3931C194.509 62.2355 194.488 62.0776 194.437 61.93C194.387 61.7825 194.309 61.6486 194.208 61.5375C194.107 61.4264 193.986 61.3405 193.853 61.2857C193.72 61.231 193.578 61.2085 193.437 61.2198L181.999 61.4633C181.889 61.4619 181.78 61.4849 181.678 61.5311C181.576 61.5773 181.484 61.6457 181.406 61.7324C181.328 61.819 181.267 61.9221 181.225 62.0355C181.184 62.149 181.163 62.2706 181.165 62.3931L181.274 70.6501C181.271 70.7565 181.288 70.8625 181.324 70.9613C181.359 71.0602 181.413 71.1498 181.481 71.2246C181.549 71.2993 181.63 71.3577 181.719 71.3959C181.808 71.4342 181.904 71.4516 181.999 71.447L187.554 71.1813L187.614 71.1813C187.733 71.1728 187.845 71.1123 187.925 71.013C188.005 70.9136 188.047 70.7833 188.041 70.6501L187.813 66.8979C187.813 66.8216 187.785 66.7484 187.737 66.6944C187.688 66.6405 187.623 66.6101 187.554 66.6101C187.486 66.6101 187.42 66.6405 187.371 66.6944C187.323 66.7484 187.296 66.8216 187.296 66.8979L187.097 70.0856L182.725 69.8753L182.814 63.3339L192.354 63.5442C192.354 65.2377 192.095 72.3325 192.036 74.6125L177.657 74.9889L177.985 58.3863L198.366 58.01L198.455 81.2535L175.49 81.9398C175.409 81.9398 175.33 81.9759 175.273 82.0403C175.215 82.1046 175.182 82.1919 175.182 82.2829C175.182 82.3739 175.215 82.4612 175.273 82.5255C175.33 82.5899 175.409 82.626 175.49 82.626L199.419 83.3455C199.542 83.3484 199.664 83.324 199.779 83.2736C199.893 83.2231 199.998 83.1478 200.086 83.0519C200.173 82.956 200.243 82.8416 200.291 82.7152C200.339 82.5889 200.363 82.4532 200.363 82.3161C200.363 82.3161 200.443 56.9032 200.433 56.881Z" fill="#D5D0C2"/>
<path d="M166.161 61.7715L149.268 61.3288C149.076 61.321 148.884 61.3575 148.705 61.436C148.526 61.5145 148.363 61.6332 148.227 61.7848C148.091 61.9365 147.984 62.1177 147.914 62.3173C147.843 62.5168 147.81 62.7304 147.817 62.9447L148.215 76.7138C148.206 76.8704 148.227 77.0272 148.277 77.174C148.327 77.3207 148.404 77.454 148.504 77.5649C148.604 77.6759 148.723 77.762 148.855 77.8175C148.987 77.873 149.128 77.8967 149.268 77.887L160.716 77.6435C160.936 77.6406 161.147 77.5417 161.303 77.368C161.459 77.1943 161.548 76.9594 161.551 76.7138L161.431 68.4568C161.436 68.3509 161.42 68.2452 161.385 68.1463C161.351 68.0475 161.298 67.9578 161.231 67.8828C161.164 67.8078 161.083 67.7493 160.995 67.7109C160.906 67.6725 160.811 67.6551 160.716 67.6599L155.161 67.9144L155.091 67.9144C155.032 67.9171 154.974 67.9333 154.921 67.9618C154.867 67.9903 154.819 68.0306 154.78 68.0803C154.741 68.13 154.712 68.188 154.693 68.2508C154.675 68.3137 154.669 68.38 154.674 68.4457L154.903 72.1979C154.903 72.2742 154.93 72.3474 154.978 72.4014C155.027 72.4553 155.092 72.4856 155.161 72.4856C155.229 72.4856 155.295 72.4553 155.344 72.4014C155.392 72.3474 155.419 72.2742 155.419 72.1979L155.608 69.0102L159.98 69.2205L159.901 75.7619L150.361 75.5516L150.679 64.4833L165.048 64.1069C165.048 66.0328 164.78 78.1969 164.73 80.7094L144.349 81.0857L144.25 57.8422L167.225 57.156C167.306 57.156 167.385 57.1198 167.442 57.0555C167.5 56.9911 167.533 56.9039 167.533 56.8129C167.533 56.7219 167.5 56.6346 167.442 56.5703C167.385 56.5059 167.306 56.4698 167.225 56.4698L143.296 55.7503C143.169 55.7413 143.042 55.7611 142.922 55.8087C142.803 55.8562 142.693 55.9304 142.6 56.0268C142.507 56.1231 142.433 56.2396 142.382 56.369C142.33 56.4985 142.303 56.6382 142.302 56.7797C142.302 56.7797 142.193 82.2369 142.203 82.2369C142.202 82.3913 142.228 82.5446 142.28 82.6876C142.333 82.8306 142.41 82.9605 142.508 83.0698C142.607 83.179 142.723 83.2654 142.852 83.3238C142.98 83.3822 143.118 83.4116 143.256 83.4101L166.112 83.8307C166.301 83.8352 166.489 83.7971 166.664 83.7186C166.84 83.6401 166.999 83.5229 167.133 83.374C167.266 83.2251 167.372 83.0475 167.442 82.8521C167.512 82.6567 167.547 82.4474 167.543 82.2369L167.245 62.989C167.247 62.8293 167.221 62.6705 167.168 62.5222C167.114 62.3738 167.035 62.2389 166.934 62.1254C166.833 62.0119 166.712 61.9221 166.58 61.8613C166.447 61.8005 166.305 61.77 166.161 61.7715Z" fill="#D5D0C2"/>
<path d="M134.356 56.8787C134.365 56.7221 134.344 56.5652 134.294 56.4184C134.244 56.2717 134.167 56.1384 134.067 56.0275C133.968 55.9166 133.848 55.8305 133.716 55.7749C133.584 55.7194 133.444 55.6957 133.303 55.7054L110.448 55.2849C110.259 55.2803 110.071 55.3184 109.895 55.3969C109.72 55.4754 109.56 55.5927 109.427 55.7416C109.293 55.8905 109.188 56.068 109.117 56.2634C109.047 56.4589 109.013 56.6681 109.017 56.8787L109.414 76.1597C109.419 76.4691 109.532 76.7643 109.728 76.9831C109.925 77.2019 110.19 77.3273 110.467 77.333L127.361 77.7757C127.55 77.7773 127.738 77.7363 127.913 77.6552C128.088 77.5741 128.247 77.4546 128.379 77.3038C128.512 77.153 128.616 76.974 128.685 76.7774C128.754 76.5808 128.787 76.3708 128.782 76.1597L128.384 62.3907C128.393 62.2341 128.372 62.0772 128.322 61.9305C128.272 61.7837 128.195 61.6505 128.095 61.5395C127.995 61.4286 127.876 61.3425 127.744 61.287C127.612 61.2315 127.471 61.2078 127.331 61.2175L115.883 61.461C115.662 61.461 115.449 61.5589 115.293 61.7333C115.136 61.9077 115.048 62.1441 115.048 62.3907L115.168 70.6477C115.163 70.7536 115.179 70.8594 115.214 70.9582C115.248 71.057 115.301 71.1467 115.368 71.2217C115.435 71.2966 115.516 71.3552 115.604 71.3936C115.693 71.4319 115.788 71.4493 115.883 71.4446L121.438 71.179L121.527 71.179C121.586 71.1748 121.644 71.1577 121.697 71.1286C121.749 71.0996 121.796 71.0593 121.835 71.0099C121.874 70.9606 121.904 70.9032 121.922 70.841C121.941 70.7788 121.949 70.7131 121.945 70.6477L121.716 66.8955C121.716 66.8192 121.689 66.746 121.641 66.6921C121.592 66.6381 121.526 66.6077 121.458 66.6077C121.389 66.6077 121.324 66.6381 121.275 66.6921C121.227 66.746 121.2 66.8192 121.2 66.8955L121.011 70.0832L116.638 69.8729C116.638 68.7661 116.708 64.6597 116.718 63.3315L126.258 63.5418L125.94 74.6102L111.59 75.0529L111.908 58.4504L132.289 58.0741L132.389 81.3176L109.414 82.0038C109.332 82.0038 109.254 82.04 109.196 82.1043C109.138 82.1687 109.106 82.2559 109.106 82.3469C109.106 82.4379 109.138 82.5252 109.196 82.5896C109.254 82.6539 109.332 82.69 109.414 82.69L133.343 83.4095C133.47 83.4185 133.597 83.3987 133.716 83.3511C133.836 83.3036 133.946 83.2294 134.039 83.1331C134.132 83.0367 134.206 82.9203 134.257 82.7908C134.308 82.6613 134.335 82.5216 134.336 82.3801C134.336 82.3801 134.366 56.9008 134.356 56.8787Z" fill="#D5D0C2"/>
<path d="M100.088 61.7726L83.1953 61.3299C83.0031 61.3296 82.8128 61.3729 82.6362 61.4574C82.4596 61.5419 82.3004 61.6656 82.1683 61.8211C82.0362 61.9766 81.9339 62.1604 81.8679 62.3614C81.8018 62.5625 81.7733 62.7764 81.7842 62.9901L82.1816 76.7592C82.1728 76.9168 82.1943 77.0746 82.2447 77.2222C82.2952 77.3698 82.3734 77.5036 82.4741 77.6148C82.5748 77.7259 82.6957 77.8117 82.8286 77.8665C82.9616 77.9213 83.1035 77.9438 83.2449 77.9324L94.6826 77.6889C94.7926 77.6904 94.9017 77.6673 95.0036 77.6211C95.1055 77.5749 95.198 77.5065 95.2758 77.4199C95.3536 77.3333 95.415 77.2302 95.4565 77.1167C95.498 77.0032 95.5187 76.8817 95.5173 76.7592L95.408 68.5022C95.4108 68.3957 95.3939 68.2898 95.3583 68.1909C95.3227 68.0921 95.2693 68.0025 95.2012 67.9277C95.1331 67.8529 95.0519 67.7946 94.9627 67.7563C94.8735 67.718 94.7781 67.7006 94.6826 67.7052L89.1277 67.9598L89.0681 67.9598C88.9486 67.9684 88.8369 68.0289 88.757 68.1282C88.6771 68.2276 88.6354 68.3579 88.6408 68.4911L88.8694 72.2433C88.8694 72.3196 88.8966 72.3928 88.945 72.4468C88.9935 72.5007 89.0592 72.5311 89.1277 72.5311C89.1963 72.5311 89.262 72.5007 89.3104 72.4468C89.3589 72.3928 89.3861 72.3196 89.3861 72.2433L89.5749 69.0556L93.9572 69.2659L93.8678 75.8073L84.3281 75.597L84.6461 64.5286L99.0252 64.1523L98.6972 80.7548L78.3161 81.1312L78.2267 57.8876L101.191 57.2014C101.273 57.2014 101.352 57.1653 101.409 57.1009C101.467 57.0366 101.499 56.9493 101.499 56.8583C101.499 56.7673 101.467 56.68 101.409 56.6157C101.352 56.5513 101.273 56.5152 101.191 56.5152L77.2628 55.7957C77.0108 55.795 76.7681 55.901 76.5836 56.0921C76.3991 56.2832 76.2867 56.5452 76.2691 56.8251C76.2691 56.8251 76.1597 82.2823 76.1697 82.2823C76.1723 82.5925 76.2841 82.8893 76.4811 83.1087C76.678 83.3281 76.9445 83.4526 77.223 83.4555L100.078 83.8761C100.268 83.8806 100.455 83.8425 100.631 83.764C100.806 83.6855 100.966 83.5683 101.099 83.4194C101.233 83.2704 101.338 83.0929 101.409 82.8975C101.479 82.7021 101.514 82.4928 101.509 82.2823L101.132 62.9459C101.127 62.6383 101.016 62.3448 100.821 62.1263C100.627 61.9078 100.364 61.7811 100.088 61.7726Z" fill="#D5D0C2"/>
<path d="M68.2959 56.881C68.2972 56.7266 68.2708 56.5734 68.2184 56.4303C68.1659 56.2873 68.0884 56.1574 67.9903 56.0482C67.8922 55.9389 67.7756 55.8525 67.6472 55.7941C67.5188 55.7357 67.3812 55.7063 67.2425 55.7078L44.387 55.2872C44.1972 55.2812 44.0082 55.3182 43.8316 55.396C43.655 55.4738 43.4944 55.5908 43.3596 55.7399C43.2249 55.8889 43.1187 56.067 43.0476 56.2631C42.9766 56.4593 42.9421 56.6695 42.9462 56.881L43.3436 76.1621C43.3513 76.4725 43.4661 76.7677 43.6641 76.9862C43.8621 77.2047 44.1282 77.3298 44.4069 77.3353L61.3001 77.7781C61.4925 77.7858 61.6842 77.7493 61.8634 77.6709C62.0426 77.5924 62.2053 77.4736 62.3414 77.322C62.4776 77.1704 62.5842 76.9891 62.6546 76.7896C62.7251 76.59 62.7579 76.3764 62.7509 76.1621L62.3534 62.3931C62.3622 62.2365 62.3409 62.0796 62.291 61.9329C62.2412 61.7861 62.1639 61.6529 62.0643 61.5419C61.9647 61.431 61.8451 61.3449 61.7133 61.2894C61.5816 61.2338 61.4407 61.2101 61.3001 61.2198L49.8525 61.4634C49.7429 61.4618 49.6343 61.4849 49.5329 61.5312C49.4316 61.5776 49.3397 61.6462 49.2627 61.733C49.1857 61.8198 49.1252 61.9229 49.0848 62.0364C49.0444 62.1498 49.025 62.2711 49.0277 62.3931L49.137 70.6501C49.1328 70.756 49.1484 70.8617 49.1829 70.9605C49.2173 71.0594 49.2699 71.1491 49.3372 71.224C49.4045 71.299 49.485 71.3576 49.5738 71.3959C49.6625 71.4343 49.7574 71.4517 49.8525 71.447L55.4173 71.1814L55.4769 71.1814C55.5357 71.1771 55.5931 71.16 55.646 71.131C55.6988 71.102 55.7459 71.0617 55.7847 71.0123C55.8235 70.9629 55.8531 70.9055 55.8719 70.8434C55.8907 70.7812 55.8983 70.7155 55.8943 70.6501L55.6757 66.8979C55.6757 66.8216 55.6484 66.7484 55.6 66.6944C55.5515 66.6405 55.4858 66.6101 55.4173 66.6101C55.3488 66.6101 55.2831 66.6405 55.2346 66.6944C55.1862 66.7484 55.1589 66.8216 55.1589 66.8979L54.9602 70.0856L50.5878 69.8753L50.6773 63.3339L60.2169 63.5442L59.899 74.6125L45.5199 74.9889L45.8478 58.3864L66.2289 58.01L66.3184 81.2535L43.3536 81.9398C43.2719 81.9398 43.1935 81.9759 43.1358 82.0403C43.078 82.1046 43.0455 82.1919 43.0455 82.2829C43.0455 82.3739 43.078 82.4612 43.1358 82.5255C43.1935 82.5899 43.2719 82.626 43.3536 82.626L67.2823 83.3455C67.4053 83.3484 67.5276 83.324 67.642 83.2736C67.7565 83.2231 67.8607 83.1478 67.9486 83.0519C68.0366 82.956 68.1064 82.8416 68.1541 82.7152C68.2018 82.5889 68.2263 82.4532 68.2263 82.3161C68.2263 82.3161 68.2959 56.9032 68.2959 56.881Z" fill="#D5D0C2"/>
<path d="M34.0266 61.7726L17.1334 61.3299C16.941 61.3222 16.7492 61.3586 16.57 61.4371C16.3909 61.5156 16.2281 61.6343 16.092 61.786C15.9559 61.9376 15.8493 62.1188 15.7788 62.3184C15.7084 62.518 15.6756 62.7316 15.6826 62.9459L16.08 76.7149C16.0638 76.8811 16.0816 77.0493 16.1321 77.2067C16.1826 77.3642 16.2645 77.5069 16.3716 77.6241C16.4788 77.7412 16.6083 77.8298 16.7505 77.8832C16.8928 77.9366 17.0441 77.9535 17.193 77.9324L28.6406 77.6889C28.7497 77.6889 28.8578 77.6648 28.9586 77.6179C29.0593 77.5711 29.1506 77.5024 29.2274 77.4159C29.3041 77.3294 29.3646 77.2268 29.4055 77.1141C29.4463 77.0014 29.4667 76.8807 29.4654 76.7592L29.3561 68.5022C29.3603 68.3963 29.3447 68.2905 29.3102 68.1917C29.2758 68.0929 29.2232 68.0031 29.1559 67.9282C29.0886 67.8532 29.0081 67.7947 28.9193 67.7563C28.8306 67.7179 28.7357 67.7005 28.6406 67.7052L23.0857 67.9598L23.0162 67.9598C22.9569 67.9625 22.8988 67.9787 22.8454 68.0072C22.7919 68.0357 22.7442 68.076 22.7051 68.1257C22.6661 68.1754 22.6366 68.2334 22.6183 68.2963C22.6 68.3591 22.5934 68.4254 22.5988 68.4911L22.8174 72.2433C22.8294 72.3113 22.8621 72.3726 22.9102 72.4167C22.9582 72.4608 23.0185 72.4849 23.0807 72.4849C23.143 72.4849 23.2033 72.4608 23.2513 72.4167C23.2994 72.3726 23.3322 72.3113 23.3441 72.2433L23.5329 69.0556L27.9053 69.2659C27.9053 70.3727 27.8357 74.4791 27.8158 75.8073L18.2761 75.597L18.5941 64.5286L32.9732 64.1523C32.9732 66.0782 32.695 78.2423 32.6552 80.7548L12.2642 81.1312C12.2642 79.0503 12.1847 59.7139 12.1747 57.8876L35.1395 57.2014C35.2212 57.2014 35.2996 57.1653 35.3573 57.1009C35.4151 57.0366 35.4476 56.9493 35.4476 56.8583C35.4476 56.7673 35.4151 56.68 35.3573 56.6157C35.2996 56.5513 35.2212 56.5152 35.1395 56.5152L11.2207 55.7957C11.094 55.7867 10.9669 55.8065 10.8473 55.8541C10.7277 55.9016 10.618 55.9758 10.525 56.0721C10.432 56.1685 10.3576 56.2849 10.3063 56.4144C10.2551 56.5439 10.2281 56.6836 10.227 56.8251L10.1177 82.2823C10.1204 82.5944 10.2335 82.8928 10.4326 83.1126C10.6318 83.3323 10.9007 83.4555 11.181 83.4555L34.0365 83.8761C34.2255 83.8806 34.4134 83.8425 34.5888 83.764C34.7643 83.6855 34.9237 83.5683 35.0574 83.4194C35.1911 83.2704 35.2963 83.0929 35.3668 82.8975C35.4373 82.7021 35.4715 82.4928 35.4674 82.2823L35.0799 62.9902C35.0826 62.6739 34.9738 62.3692 34.7768 62.1415C34.5797 61.9138 34.3103 61.7813 34.0266 61.7726Z" fill="#D5D0C2"/>
<path d="M34.0264 148.814L17.1332 148.371C16.9407 148.366 16.7494 148.405 16.5708 148.486C16.3923 148.566 16.2303 148.686 16.0946 148.838C15.9589 148.99 15.8524 149.171 15.7816 149.371C15.7107 149.57 15.677 149.784 15.6824 149.998L16.0799 163.756C16.0772 163.911 16.1025 164.066 16.1544 164.21C16.2063 164.354 16.2836 164.486 16.3818 164.596C16.48 164.706 16.5971 164.794 16.7262 164.853C16.8553 164.912 16.9937 164.942 17.1332 164.94L28.5808 164.686C28.6903 164.687 28.799 164.664 28.9004 164.618C29.0017 164.571 29.0936 164.503 29.1706 164.416C29.2476 164.329 29.3081 164.226 29.3485 164.113C29.3888 163.999 29.4083 163.878 29.4056 163.756L29.2963 155.51C29.3004 155.404 29.2848 155.297 29.2505 155.198C29.2161 155.099 29.1637 155.008 29.0966 154.932C29.0294 154.857 28.949 154.797 28.8603 154.757C28.7715 154.718 28.6764 154.699 28.5808 154.702L23.0259 154.968L22.9564 154.968C22.8368 154.979 22.7261 155.042 22.648 155.144C22.5699 155.245 22.5308 155.377 22.539 155.51L22.7576 159.262C22.7696 159.33 22.8023 159.391 22.8504 159.436C22.8984 159.48 22.9587 159.504 23.021 159.504C23.0832 159.504 23.1435 159.48 23.1915 159.436C23.2396 159.391 23.2724 159.33 23.2843 159.262L23.4731 156.063L27.8455 156.274L27.756 162.815L18.2163 162.605L18.5343 151.536L32.9134 151.16L32.5954 167.763L12.2242 168.139L12.1348 144.895L35.0797 144.231C35.1532 144.217 35.2197 144.174 35.2676 144.11C35.3155 144.046 35.3417 143.966 35.3417 143.883C35.3417 143.8 35.3155 143.719 35.2676 143.655C35.2197 143.592 35.1532 143.549 35.0797 143.534L11.161 142.826C11.0335 142.813 10.9052 142.831 10.7843 142.877C10.6633 142.923 10.5524 142.997 10.4588 143.094C10.3651 143.191 10.2908 143.309 10.2406 143.44C10.1904 143.571 10.1654 143.713 10.1672 143.855L10.0579 169.312C10.0579 169.626 10.17 169.928 10.3694 170.15C10.5688 170.372 10.8392 170.497 11.1212 170.497L33.9767 170.917C34.1666 170.922 34.3553 170.883 34.5315 170.804C34.7076 170.725 34.8674 170.607 35.0013 170.457C35.1351 170.306 35.2401 170.128 35.31 169.931C35.3798 169.734 35.4131 169.524 35.4076 169.312L35.03 149.987C35.0212 149.688 34.914 149.404 34.7289 149.187C34.5438 148.971 34.2938 148.838 34.0264 148.814Z" fill="#D5D0C2"/>
<path d="M68.2959 143.889C68.2959 143.577 68.1853 143.277 67.988 143.055C67.7907 142.834 67.5228 142.708 67.2426 142.705L44.3871 142.284C44.1964 142.278 44.0065 142.315 43.8292 142.394C43.6519 142.472 43.4909 142.59 43.356 142.74C43.2211 142.891 43.1152 143.07 43.0447 143.268C42.9742 143.465 42.9407 143.676 42.9462 143.889L43.3238 163.225C43.3338 163.535 43.4494 163.828 43.6469 164.046C43.8444 164.264 44.1091 164.39 44.3871 164.399L61.2803 164.841C61.4727 164.849 61.6644 164.813 61.8436 164.734C62.0228 164.656 62.1855 164.537 62.3216 164.385C62.4578 164.234 62.5644 164.052 62.6348 163.853C62.7053 163.653 62.738 163.44 62.7311 163.225L62.3336 149.456C62.3363 149.301 62.3109 149.146 62.2591 149.002C62.2072 148.858 62.1299 148.727 62.0316 148.616C61.9334 148.506 61.8163 148.418 61.6873 148.359C61.5582 148.3 61.4198 148.27 61.2803 148.272L49.8327 148.527C49.7231 148.525 49.6144 148.548 49.5131 148.594C49.4118 148.641 49.3198 148.709 49.2429 148.796C49.1659 148.883 49.1054 148.986 49.065 149.1C49.0246 149.213 49.0052 149.334 49.0079 149.456L49.1172 157.702C49.113 157.809 49.1286 157.915 49.163 158.014C49.1974 158.114 49.2497 158.204 49.3169 158.28C49.384 158.356 49.4645 158.415 49.5532 158.455C49.642 158.494 49.7371 158.513 49.8327 158.51L55.3975 158.245L55.4571 158.245C55.5767 158.233 55.6874 158.17 55.7655 158.069C55.8436 157.967 55.8827 157.836 55.8744 157.702L55.6558 153.961C55.6558 153.885 55.6286 153.812 55.5802 153.758C55.5317 153.704 55.466 153.673 55.3975 153.673C55.329 153.673 55.2632 153.704 55.2148 153.758C55.1663 153.812 55.1391 153.885 55.1391 153.961L54.9403 157.149L50.568 156.938L50.6574 150.397L60.1971 150.607L59.8791 161.676L45.5 162.052C45.5 160.115 45.7783 147.962 45.828 145.45L66.2091 145.073C66.2091 147.154 66.2985 166.49 66.2985 168.317L43.3337 169.003C43.2603 169.018 43.1938 169.061 43.1459 169.124C43.098 169.188 43.0718 169.269 43.0718 169.352C43.0718 169.435 43.098 169.515 43.1459 169.579C43.1938 169.643 43.2603 169.686 43.3337 169.7L67.2625 170.409C67.3858 170.413 67.5087 170.39 67.6238 170.34C67.7388 170.29 67.8436 170.215 67.9318 170.119C68.0201 170.022 68.0899 169.907 68.1371 169.78C68.1843 169.653 68.2079 169.517 68.2065 169.379C68.2065 169.379 68.2959 143.911 68.2959 143.889Z" fill="#D5D0C2"/>
<path d="M100.088 148.814L83.1947 148.371C83.0014 148.365 82.8089 148.403 82.6292 148.482C82.4495 148.562 82.2863 148.682 82.1495 148.834C82.0128 148.986 81.9054 149.168 81.8339 149.368C81.7625 149.568 81.7284 149.783 81.7339 149.998L82.1314 163.756C82.1287 163.911 82.1541 164.066 82.2059 164.21C82.2578 164.354 82.3351 164.486 82.4333 164.596C82.5316 164.706 82.6487 164.794 82.7777 164.853C82.9068 164.912 83.0452 164.942 83.1847 164.94L94.7019 164.708C94.8123 164.711 94.922 164.689 95.0245 164.643C95.127 164.598 95.2201 164.529 95.2982 164.442C95.3763 164.355 95.4376 164.252 95.4786 164.137C95.5196 164.023 95.5393 163.901 95.5366 163.778L95.4273 155.532C95.4315 155.425 95.4157 155.318 95.3807 155.217C95.3458 155.117 95.2925 155.026 95.2242 154.95C95.156 154.874 95.0744 154.815 94.9844 154.776C94.8945 154.737 94.7983 154.719 94.7019 154.724L89.147 154.99L89.0874 154.99C88.967 155.001 88.8553 155.064 88.7756 155.165C88.6959 155.266 88.6545 155.398 88.6601 155.532L88.8887 159.284C88.8887 159.361 88.9159 159.434 88.9643 159.488C89.0128 159.542 89.0785 159.572 89.147 159.572C89.2156 159.572 89.2813 159.542 89.3297 159.488C89.3782 159.434 89.4054 159.361 89.4054 159.284L89.5942 156.086L93.9765 156.296L93.887 162.837L84.3474 162.627C84.397 160.945 84.6057 153.839 84.6654 151.559L99.0444 151.182L98.7165 167.785L78.3354 168.161L78.246 144.918L101.211 144.231C101.284 144.217 101.351 144.174 101.399 144.11C101.446 144.046 101.473 143.966 101.473 143.883C101.473 143.8 101.446 143.719 101.399 143.655C101.351 143.592 101.284 143.549 101.211 143.534L77.2821 142.826C77.155 142.815 77.0273 142.834 76.907 142.881C76.7867 142.928 76.6765 143.002 76.5831 143.098C76.4898 143.195 76.4154 143.312 76.3647 143.442C76.314 143.573 76.288 143.713 76.2883 143.855C76.2883 143.855 76.179 169.312 76.189 169.312C76.1889 169.624 76.2996 169.924 76.4969 170.146C76.6941 170.368 76.962 170.494 77.2423 170.497L100.098 170.917C100.288 170.922 100.476 170.883 100.653 170.804C100.829 170.725 100.989 170.607 101.122 170.457C101.256 170.306 101.361 170.128 101.431 169.931C101.501 169.734 101.534 169.524 101.529 169.312L101.151 149.987C101.141 149.677 101.026 149.384 100.828 149.166C100.63 148.948 100.366 148.822 100.088 148.814Z" fill="#D5D0C2"/>
<path d="M134.357 143.889C134.358 143.734 134.332 143.58 134.28 143.437C134.227 143.293 134.15 143.162 134.052 143.052C133.954 142.942 133.838 142.855 133.709 142.795C133.581 142.735 133.443 142.705 133.304 142.705L110.448 142.284C110.258 142.279 110.07 142.318 109.894 142.397C109.717 142.476 109.558 142.594 109.424 142.745C109.29 142.895 109.185 143.074 109.115 143.27C109.045 143.467 109.012 143.677 109.017 143.889L109.395 163.225C109.402 163.534 109.516 163.827 109.712 164.046C109.908 164.264 110.171 164.39 110.448 164.399L127.341 164.841C127.533 164.847 127.725 164.81 127.903 164.731C128.082 164.652 128.244 164.533 128.38 164.382C128.515 164.23 128.622 164.05 128.693 163.851C128.764 163.652 128.798 163.439 128.792 163.225L128.395 149.456C128.397 149.301 128.372 149.147 128.32 149.002C128.268 148.858 128.191 148.727 128.093 148.616C127.995 148.506 127.878 148.418 127.748 148.359C127.619 148.3 127.481 148.271 127.341 148.272L115.894 148.527C115.784 148.525 115.675 148.548 115.573 148.594C115.471 148.641 115.378 148.709 115.301 148.796C115.223 148.882 115.161 148.985 115.12 149.099C115.078 149.212 115.058 149.334 115.059 149.456L115.178 157.702C115.173 157.809 115.187 157.916 115.221 158.016C115.255 158.116 115.307 158.207 115.375 158.284C115.442 158.36 115.523 158.419 115.613 158.458C115.702 158.497 115.798 158.515 115.894 158.51L121.449 158.245L121.528 158.245C121.648 158.233 121.759 158.17 121.837 158.069C121.915 157.967 121.954 157.836 121.946 157.702L121.717 153.961C121.717 153.885 121.69 153.812 121.641 153.758C121.593 153.704 121.527 153.673 121.459 153.673C121.39 153.673 121.324 153.704 121.276 153.758C121.228 153.812 121.2 153.885 121.2 153.961L121.011 157.149L116.639 156.939L116.719 150.397L126.258 150.607L125.94 161.676L111.571 162.052C111.571 160.115 111.839 147.962 111.889 145.45L132.27 145.073L132.37 168.317L109.395 169.003C109.321 169.018 109.255 169.061 109.207 169.124C109.159 169.188 109.133 169.269 109.133 169.352C109.133 169.435 109.159 169.515 109.207 169.579C109.255 169.643 109.321 169.686 109.395 169.7L133.324 170.409C133.451 170.419 133.578 170.401 133.699 170.354C133.819 170.307 133.929 170.233 134.023 170.136C134.116 170.039 134.19 169.922 134.241 169.792C134.292 169.662 134.318 169.521 134.317 169.379C134.317 169.379 134.367 143.911 134.357 143.889Z" fill="#D5D0C2"/>
<path d="M166.158 148.814L149.265 148.371C149.072 148.366 148.881 148.405 148.702 148.486C148.524 148.566 148.362 148.686 148.226 148.838C148.09 148.99 147.984 149.171 147.913 149.371C147.842 149.57 147.808 149.784 147.814 149.998L148.211 163.756C148.209 163.911 148.234 164.066 148.286 164.21C148.338 164.354 148.415 164.486 148.513 164.596C148.612 164.706 148.729 164.794 148.858 164.853C148.987 164.912 149.125 164.942 149.265 164.94L160.712 164.686C160.822 164.687 160.931 164.664 161.033 164.618C161.135 164.572 161.228 164.503 161.305 164.417C161.383 164.33 161.445 164.227 161.486 164.113C161.528 164 161.548 163.878 161.547 163.756L161.428 155.51C161.433 155.403 161.419 155.296 161.385 155.196C161.351 155.096 161.299 155.005 161.231 154.929C161.164 154.852 161.083 154.793 160.993 154.754C160.904 154.715 160.808 154.697 160.712 154.702L155.157 154.968L155.088 154.968C154.968 154.979 154.858 155.042 154.779 155.144C154.701 155.245 154.662 155.377 154.67 155.51L154.899 159.262C154.899 159.338 154.926 159.412 154.975 159.466C155.023 159.52 155.089 159.55 155.157 159.55C155.226 159.55 155.292 159.52 155.34 159.466C155.389 159.412 155.416 159.338 155.416 159.262L155.605 156.063L159.977 156.274C159.977 157.381 159.907 161.498 159.897 162.815L150.358 162.605L150.676 151.536L165.045 151.16L164.727 167.763L144.386 168.139L144.286 144.895L167.241 144.231C167.314 144.217 167.381 144.174 167.429 144.11C167.477 144.046 167.503 143.966 167.503 143.883C167.503 143.8 167.477 143.719 167.429 143.655C167.381 143.592 167.314 143.549 167.241 143.534L143.312 142.826C143.185 142.815 143.058 142.834 142.937 142.881C142.817 142.928 142.707 143.002 142.613 143.098C142.52 143.195 142.446 143.312 142.395 143.442C142.344 143.573 142.318 143.713 142.319 143.855C142.319 143.855 142.209 169.312 142.219 169.312C142.218 169.467 142.244 169.621 142.297 169.765C142.349 169.908 142.426 170.039 142.524 170.149C142.622 170.259 142.739 170.347 142.867 170.406C142.996 170.466 143.133 170.497 143.273 170.497L166.128 170.917C166.318 170.922 166.507 170.883 166.683 170.804C166.859 170.725 167.019 170.607 167.153 170.457C167.286 170.306 167.391 170.128 167.461 169.931C167.531 169.734 167.564 169.524 167.559 169.312L167.181 149.987C167.172 149.685 167.062 149.397 166.873 149.18C166.684 148.963 166.429 148.833 166.158 148.814Z" fill="#D5D0C2"/>
<path d="M200.433 143.889C200.433 143.577 200.322 143.277 200.125 143.055C199.928 142.834 199.66 142.707 199.38 142.705L176.524 142.284C176.334 142.281 176.146 142.32 175.97 142.4C175.794 142.48 175.634 142.598 175.499 142.747C175.365 142.897 175.259 143.075 175.187 143.271C175.116 143.467 175.081 143.677 175.083 143.889L175.461 163.225C175.471 163.535 175.586 163.828 175.784 164.046C175.981 164.264 176.246 164.39 176.524 164.399L193.417 164.841C193.61 164.849 193.802 164.812 193.982 164.734C194.162 164.656 194.325 164.537 194.462 164.386C194.599 164.234 194.706 164.053 194.778 163.854C194.85 163.654 194.884 163.44 194.878 163.225L194.481 149.456C194.483 149.3 194.458 149.145 194.405 149C194.353 148.854 194.274 148.723 194.175 148.612C194.076 148.502 193.958 148.414 193.827 148.356C193.697 148.298 193.558 148.269 193.417 148.272L181.98 148.527C181.869 148.523 181.759 148.545 181.657 148.591C181.554 148.637 181.461 148.705 181.383 148.792C181.305 148.879 181.244 148.983 181.203 149.097C181.162 149.211 181.142 149.333 181.145 149.456L181.254 157.702C181.25 157.81 181.266 157.917 181.301 158.017C181.336 158.117 181.389 158.208 181.457 158.284C181.525 158.36 181.607 158.419 181.697 158.458C181.787 158.497 181.883 158.515 181.98 158.51L187.534 158.245L187.594 158.245C187.714 158.233 187.826 158.17 187.906 158.069C187.986 157.968 188.027 157.837 188.021 157.702L187.793 153.961C187.793 153.885 187.766 153.812 187.717 153.758C187.669 153.704 187.603 153.673 187.534 153.673C187.466 153.673 187.4 153.704 187.352 153.758C187.303 153.812 187.276 153.885 187.276 153.961L187.077 157.149L182.705 156.938L182.794 150.397L192.334 150.607L192.016 161.676L177.637 162.052L177.965 145.45L198.346 145.073L198.436 168.317L175.471 169.003C175.397 169.018 175.331 169.061 175.283 169.124C175.235 169.188 175.209 169.269 175.209 169.352C175.209 169.435 175.235 169.515 175.283 169.579C175.331 169.643 175.397 169.686 175.471 169.7L199.399 170.409C199.523 170.413 199.646 170.39 199.761 170.34C199.876 170.29 199.981 170.215 200.069 170.119C200.157 170.022 200.227 169.907 200.274 169.78C200.321 169.653 200.345 169.517 200.343 169.379C200.343 169.379 200.443 143.911 200.433 143.889Z" fill="#D5D0C2"/>
<path d="M232.223 148.813L215.33 148.37C215.137 148.364 214.945 148.402 214.766 148.482C214.587 148.561 214.424 148.681 214.288 148.834C214.152 148.986 214.046 149.168 213.975 149.368C213.905 149.568 213.872 149.782 213.879 149.997L214.267 163.755C214.265 163.911 214.292 164.066 214.345 164.21C214.398 164.354 214.476 164.486 214.575 164.596C214.674 164.706 214.792 164.793 214.922 164.852C215.051 164.911 215.19 164.941 215.33 164.939L226.768 164.685C226.878 164.688 226.988 164.666 227.09 164.62C227.193 164.575 227.286 164.506 227.364 164.419C227.442 164.332 227.503 164.229 227.544 164.114C227.585 164 227.605 163.878 227.602 163.755L227.493 155.509C227.497 155.402 227.481 155.295 227.447 155.194C227.412 155.094 227.358 155.003 227.29 154.927C227.222 154.851 227.14 154.792 227.05 154.753C226.96 154.714 226.864 154.696 226.768 154.701L221.213 154.967L221.153 154.967C221.033 154.978 220.921 155.041 220.841 155.142C220.762 155.243 220.72 155.375 220.726 155.509L220.954 159.261C220.954 159.338 220.982 159.411 221.03 159.465C221.079 159.519 221.144 159.549 221.213 159.549C221.281 159.549 221.347 159.519 221.396 159.465C221.444 159.411 221.471 159.338 221.471 159.261L221.67 156.063L226.042 156.273L225.953 162.814L216.413 162.604L216.731 151.536L231.11 151.159L230.782 167.762L210.401 168.138L210.312 144.895L233.277 144.208C233.35 144.194 233.416 144.151 233.464 144.087C233.512 144.023 233.539 143.943 233.539 143.86C233.539 143.777 233.512 143.696 233.464 143.632C233.416 143.569 233.35 143.526 233.277 143.511L209.348 142.803C209.224 142.798 209.102 142.822 208.986 142.871C208.871 142.921 208.767 142.997 208.678 143.093C208.59 143.189 208.52 143.304 208.473 143.431C208.426 143.558 208.402 143.695 208.404 143.832C208.404 143.832 208.285 169.289 208.295 169.289C208.294 169.601 208.405 169.901 208.602 170.123C208.8 170.345 209.068 170.471 209.348 170.474L232.203 170.894C232.394 170.899 232.583 170.86 232.759 170.781C232.936 170.702 233.097 170.584 233.231 170.434C233.366 170.284 233.472 170.106 233.543 169.909C233.614 169.712 233.648 169.501 233.644 169.289L233.267 149.964C233.25 149.663 233.134 149.379 232.942 149.167C232.749 148.955 232.494 148.829 232.223 148.813Z" fill="#D5D0C2"/>
<path d="M266.492 143.887C266.494 143.732 266.468 143.579 266.415 143.435C266.363 143.291 266.285 143.161 266.187 143.051C266.09 142.94 265.973 142.853 265.845 142.793C265.716 142.734 265.578 142.703 265.439 142.703L242.584 142.282C242.394 142.278 242.205 142.316 242.029 142.395C241.853 142.475 241.693 142.593 241.559 142.743C241.425 142.893 241.32 143.072 241.25 143.269C241.18 143.465 241.147 143.676 241.153 143.887L241.53 163.224C241.538 163.532 241.651 163.826 241.847 164.044C242.043 164.262 242.307 164.389 242.584 164.397L259.477 164.84C259.669 164.846 259.86 164.808 260.038 164.729C260.217 164.65 260.379 164.531 260.515 164.38C260.651 164.229 260.757 164.048 260.828 163.849C260.899 163.65 260.933 163.438 260.928 163.224L260.53 149.455C260.533 149.299 260.507 149.145 260.456 149.001C260.404 148.856 260.326 148.725 260.228 148.615C260.13 148.504 260.013 148.417 259.884 148.358C259.755 148.299 259.616 148.269 259.477 148.27L248.029 148.525C247.92 148.523 247.811 148.547 247.71 148.593C247.608 148.639 247.516 148.708 247.439 148.795C247.362 148.881 247.302 148.985 247.262 149.098C247.221 149.211 247.202 149.333 247.204 149.455L247.314 157.701C247.31 157.807 247.325 157.913 247.36 158.013C247.394 158.112 247.446 158.202 247.513 158.278C247.581 158.354 247.661 158.414 247.75 158.453C247.839 158.493 247.934 158.512 248.029 158.509L253.584 158.243L253.654 158.243C253.773 158.232 253.884 158.168 253.962 158.067C254.04 157.966 254.079 157.834 254.071 157.701L253.852 153.96C253.84 153.891 253.808 153.83 253.76 153.786C253.712 153.742 253.651 153.718 253.589 153.718C253.527 153.718 253.467 153.742 253.418 153.786C253.37 153.83 253.338 153.891 253.326 153.96L253.137 157.147L248.725 156.959C248.725 155.852 248.794 151.746 248.814 150.418L258.344 150.628L258.026 161.696L243.657 162.073C243.657 160.136 243.935 147.983 243.975 145.47L264.366 145.094C264.366 147.175 264.445 166.511 264.455 168.337L241.491 169.024C241.417 169.038 241.351 169.081 241.303 169.145C241.255 169.209 241.229 169.289 241.229 169.372C241.229 169.455 241.255 169.536 241.303 169.6C241.351 169.663 241.417 169.706 241.491 169.721L265.409 170.429C265.536 170.44 265.664 170.421 265.784 170.374C265.905 170.327 266.015 170.253 266.108 170.157C266.202 170.06 266.276 169.943 266.327 169.813C266.377 169.682 266.403 169.542 266.403 169.4C266.403 169.4 266.502 143.909 266.492 143.887Z" fill="#D5D0C2"/>
</g>
<defs>
<clipPath id="clip0_115_1177">
<rect width="271" height="313" fill="white"/>
</clipPath>
</defs>
</svg>
