<svg width="294" height="340" viewBox="0 0 294 340" fill="none" xmlns="http://www.w3.org/2000/svg">
<g style="mix-blend-mode:overlay">
<path d="M299.849 339.819L299.849 0.00088501L-0.00122151 0.000858796L-0.00125122 339.819L299.849 339.819ZM45.6543 333.815L63.011 300.338L80.3677 333.815L45.6543 333.815ZM93.0887 333.815L110.499 300.29L127.856 333.767L93.0887 333.815ZM140.394 333.815L157.75 300.338L175.107 333.815L140.394 333.815ZM187.882 333.815L205.239 300.338L222.595 333.815L187.882 333.815ZM235.187 333.815L252.587 300.29L269.954 333.767L235.187 333.815ZM294.351 333.815L282.266 333.815L294.404 310.352L294.404 322.12L291.116 328.46L294.404 328.46L294.351 333.815ZM246.366 292.161L228.999 325.674L211.621 292.113L246.366 292.161ZM5.37824 286.157L5.37824 244.478L294.297 244.478L294.297 286.109L5.37824 286.157ZM198.878 292.161L181.511 325.674L164.186 292.113L198.878 292.161ZM151.573 292.161L134.206 325.674L116.827 292.161L151.573 292.161ZM104.139 292.161L86.7713 325.674L69.3931 292.161L104.139 292.161ZM56.8338 292.161L39.4663 325.674L22.0881 292.161L56.8338 292.161ZM5.43215 149.113L294.351 149.113L294.351 190.695L5.43214 190.695L5.43215 149.113ZM46.1395 143.109L63.011 110.58L79.8718 143.109L46.1395 143.109ZM93.6277 143.109L110.499 110.532L127.36 143.061L93.6277 143.109ZM140.933 143.109L157.804 110.58L174.665 143.109L140.933 143.109ZM188.367 143.109L205.239 110.58L222.099 143.109L188.367 143.109ZM235.672 143.109L252.587 110.532L269.458 143.061L235.672 143.109ZM294.404 196.699L294.404 210.46L284.141 230.249L266.785 196.771L294.404 196.699ZM254.204 196.699L236.847 230.177L219.491 196.699L254.204 196.699ZM206.716 196.699L189.359 230.177L172.002 196.699L206.716 196.699ZM159.411 196.699L142.054 230.177L124.697 196.699L159.411 196.699ZM111.976 196.699L94.6195 230.177L77.2629 196.699L111.976 196.699ZM64.6712 196.699L47.3145 230.177L29.9579 196.699L64.6712 196.699ZM18.6383 196.699L28.9337 196.699L47.2606 232.098L65.5876 196.699L76.1633 196.699L94.4902 232.098L112.817 196.699L123.598 196.699L141.925 232.098L160.251 196.699L170.978 196.699L189.305 232.098L207.632 196.699L218.412 196.699L236.739 232.098L255.066 196.699L265.771 196.699L284.098 232.098L294.404 212.309L294.404 228.724L289.381 238.426L278.74 238.426L260.413 202.991L242.087 238.426L231.5 238.426L213.173 202.991L194.846 238.426L184.066 238.426L165.739 202.991L147.412 238.426L136.836 238.426L118.509 202.991L100.182 238.426L89.4018 238.426L71.0749 202.991L52.7479 238.426L42.1722 238.426L23.8453 202.991L5.78791 237.814L5.78791 222.096L18.9186 196.771L18.6383 196.699ZM290.319 238.426L294.361 230.645L294.361 238.426L290.319 238.426ZM242.96 238.426L260.338 204.913L277.749 238.426L242.96 238.426ZM195.655 238.426L213.033 204.913L230.4 238.426L195.655 238.426ZM148.22 238.426L165.588 204.913L182.955 238.426L148.22 238.426ZM100.915 238.426L118.294 204.913L135.661 238.426L100.915 238.426ZM53.4271 238.426L70.8053 204.913L88.1728 238.426L53.4271 238.426ZM6.13288 238.426L23.5003 204.913L40.8677 238.426L6.13288 238.426ZM293.715 292.113L276.304 325.626L258.926 292.113L293.715 292.113ZM294.404 143.061L282.772 143.061L294.404 120.594L294.404 132.362L291.116 138.702L294.404 138.702L294.404 143.061ZM293.758 102.235L276.347 135.856L258.937 102.235L293.758 102.235ZM5.43215 95.3181L5.43215 53.6874L294.351 53.6874L294.351 95.3662L5.43215 95.3181ZM18.5736 5.98072L28.9014 5.98072L47.2283 41.3794L65.5552 5.98072L76.1633 5.98072L94.4902 41.3794L112.817 5.98073L123.598 5.98073L141.925 41.3794L160.251 5.98073L170.86 5.98073L189.186 41.3794L207.513 5.98074L218.294 5.98074L236.621 41.3795L254.948 5.98074L265.793 5.98074L284.12 41.3795L294.383 21.5667L294.383 37.9813L289.359 47.6835L278.719 47.6835L260.392 12.2607L242.065 47.6835L231.478 47.6835L213.152 12.2607L194.825 47.6835L184.044 47.6835L165.717 12.2607L147.39 47.6835L136.815 47.6835L118.488 12.2607L100.161 47.6835L89.3802 47.6835L71.0533 12.2607L52.7264 47.6835L42.1507 47.6835L23.8238 12.2607L5.76635 47.0831L5.76635 31.365L18.8971 6.04075L18.5736 5.98072ZM64.6066 5.98072L47.2499 39.4582L29.8932 5.98072L64.6066 5.98072ZM111.912 5.98073L94.5549 39.4582L77.1982 5.98072L111.912 5.98073ZM159.4 5.98073L142.043 39.4582L124.686 5.98073L159.4 5.98073ZM206.705 5.98074L189.348 39.4582L171.991 5.98073L206.705 5.98074ZM254.139 5.98074L236.783 39.4582L219.426 5.98074L254.139 5.98074ZM294.351 19.6695L284.088 39.4702L266.731 5.9927L294.404 5.99271L294.351 19.6695ZM290.319 47.6835L294.361 39.9026L294.361 47.6835L290.319 47.6835ZM242.96 47.6835L260.381 14.182L277.749 47.6835L242.96 47.6835ZM195.655 47.6835L213.076 14.182L230.444 47.6835L195.655 47.6835ZM148.22 47.6835L165.588 14.182L182.955 47.6835L148.22 47.6835ZM100.915 47.6835L118.283 14.182L135.65 47.6835L100.915 47.6835ZM53.4271 47.6835L70.7946 14.182L88.162 47.6835L53.4271 47.6835ZM6.1329 47.6835L23.5003 14.182L40.8678 47.6835L6.1329 47.6835ZM5.44293 6.02872L17.571 6.02872L5.43216 29.4438L5.43216 17.6762L8.72024 11.3362L5.42138 11.3362L5.44293 6.02872ZM5.44292 102.283L9.52877 102.283L5.44292 110.16L5.44292 102.283ZM5.44292 112.081L10.9842 101.37L20.5896 101.37L39.4663 137.789L58.3323 101.37L67.8946 101.37L86.7713 137.789L105.637 101.37L115.34 101.37L134.216 137.789L153.082 101.37L162.677 101.37L181.565 137.789L200.431 101.37L210.133 101.37L229.021 137.789L247.886 101.37L257.438 101.37L276.304 137.789L294.361 102.967L294.361 118.649L281.716 143.025L270.45 143.025L252.587 108.611L234.723 143.061L223.134 143.061L205.282 108.611L187.418 143.061L175.646 143.061L157.794 108.611L139.93 143.061L128.341 143.061L110.488 108.611L92.6251 143.061L80.8528 143.061L63.0002 108.611L45.1369 143.061L33.5478 143.061L15.6952 108.611L5.42137 128.435L5.44292 112.081ZM56.8877 102.283L39.4771 135.904L22.0665 102.283L56.8877 102.283ZM104.193 102.283L86.7821 135.904L69.3715 102.283L104.193 102.283ZM151.627 102.283L134.216 135.904L116.806 102.283L151.627 102.283ZM198.932 102.283L181.521 135.904L164.111 102.283L198.932 102.283ZM246.366 102.283L228.956 135.904L211.545 102.283L246.366 102.283ZM15.609 110.532L32.4697 143.061L5.33513 143.061L5.33513 130.345L15.609 110.532ZM5.33513 196.747L17.571 196.747L5.43214 220.162L5.43214 208.395L8.72023 202.055L5.42137 202.055L5.33513 196.747ZM5.33512 292.113L9.37781 292.113L5.33512 299.918L5.33512 292.113ZM5.33512 301.839L10.3696 292.113L20.9992 292.113L39.4663 327.583L57.7932 292.149L68.3689 292.149L86.7713 327.583L105.098 292.149L115.879 292.149L134.26 327.583L152.586 292.149L163.151 292.149L181.565 327.583L199.891 292.149L210.672 292.149L229.053 327.583L247.38 292.149L257.977 292.149L276.304 327.583L294.404 292.761L294.404 308.443L281.274 333.767L270.914 333.767L252.587 298.369L234.26 333.767L223.652 333.767L205.325 298.369L186.998 333.767L176.217 333.767L157.891 298.369L139.564 333.767L128.956 333.767L110.629 298.369L92.3017 333.767L81.5212 333.767L63.1943 298.369L44.8674 333.767L34.2593 333.767L15.9324 298.369L5.65854 318.193L5.33512 301.839ZM15.609 300.29L32.9656 333.767L5.33511 333.767L5.33512 320.103L15.609 300.29Z" fill="white" fill-opacity="0.2"/>
<path d="M280.616 305.671L284.928 297.458L267.841 297.458L272.099 305.671L276.303 313.873L280.616 305.671ZM272.412 300.388L280.303 300.388L278.33 304.206L276.303 308.013L274.33 304.206L272.412 300.388Z" fill="white" fill-opacity="0.2"/>
<path d="M248.338 320.246L244.091 328.459L261.103 328.459L256.898 320.246L252.586 311.972L248.338 320.246ZM256.542 325.517L248.651 325.517L250.624 321.711L252.586 317.904L254.559 321.711L256.542 325.517Z" fill="white" fill-opacity="0.2"/>
<path d="M233.3 305.671L237.612 297.458L220.59 297.458L224.848 305.671L229.106 313.873L233.3 305.671ZM225.096 300.388L232.998 300.388L231.025 304.206L229.053 308.013L227.069 304.206L225.096 300.388Z" fill="white" fill-opacity="0.2"/>
<path d="M201.033 320.246L196.785 328.459L213.775 328.459L209.528 320.246L205.216 312.032L201.033 320.246ZM209.237 325.517L201.345 325.517L203.318 321.711L205.291 317.904L207.307 321.711L209.237 325.517Z" fill="white" fill-opacity="0.2"/>
<path d="M185.813 305.671L190.061 297.458L173.038 297.458L177.296 305.671L181.609 313.873L185.813 305.671ZM177.609 300.388L185.511 300.388L183.538 304.206L181.565 308.013L179.582 304.206L177.609 300.388Z" fill="white" fill-opacity="0.2"/>
<path d="M153.545 320.246L149.298 328.459L166.342 328.459L162.03 320.246L157.804 311.972L153.545 320.246ZM161.749 325.517L153.858 325.517L155.831 321.711L157.804 317.904L159.776 321.711L161.749 325.517Z" fill="white" fill-opacity="0.2"/>
<path d="M138.504 305.671L142.763 297.458L125.74 297.458L129.999 305.671L134.311 313.873L138.504 305.671ZM130.3 300.388L138.203 300.388L136.23 304.206L134.257 308.013L132.284 304.206L130.3 300.388Z" fill="white" fill-opacity="0.2"/>
<path d="M106.242 320.246L101.994 328.459L119.006 328.459L114.758 320.246L110.446 312.032L106.242 320.246ZM114.446 325.517L106.554 325.517L108.527 321.711L110.5 317.904L112.441 321.711L114.446 325.517Z" fill="white" fill-opacity="0.2"/>
<path d="M91.0169 305.671L95.3291 297.458L78.3066 297.458L82.565 305.671L86.8232 313.873L91.0169 305.671ZM82.8129 300.388L90.715 300.388L88.7206 304.206L86.7478 308.013L84.7749 304.206L82.8129 300.388Z" fill="white" fill-opacity="0.2"/>
<path d="M58.7536 320.246L54.5061 328.459L71.4746 328.459L67.2271 320.246L62.9149 312.032L58.7536 320.246ZM66.9576 325.517L59.0662 325.517L61.0391 321.711L63.0119 317.904L65.0063 321.711L66.9576 325.517Z" fill="white" fill-opacity="0.2"/>
<path d="M43.7134 305.671L47.9717 297.458L30.9492 297.458L35.2075 305.671L39.4658 313.873L43.7134 305.671ZM35.5094 300.388L43.4438 300.388L41.471 304.206L39.4982 308.013L37.5253 304.206L35.5094 300.388Z" fill="white" fill-opacity="0.2"/>
<path d="M19.9614 320.246L15.6492 312.032L11.4017 320.246L7.14332 328.459L24.2197 328.459L19.9614 320.246ZM11.7574 325.517L13.7302 321.711L15.7031 317.904L17.6759 321.711L19.6595 325.517L11.7574 325.517Z" fill="white" fill-opacity="0.2"/>
<path d="M19.2446 224.87L14.9863 233.083L32.0088 233.083L27.7505 224.87L23.5029 216.669L19.2446 224.87ZM27.4486 230.154L19.5465 230.154L21.5193 226.335L23.5029 222.529L25.4758 226.335L27.4486 230.154Z" fill="white" fill-opacity="0.2"/>
<path d="M47.2528 218.504L51.565 210.291L55.8125 202.078L38.8008 202.078L43.0483 210.291L47.2528 218.504ZM51.1984 205.02L49.2256 208.826L47.2528 212.633L45.2799 208.826L43.3071 205.02L51.1984 205.02Z" fill="white" fill-opacity="0.2"/>
<path d="M66.5464 224.87L62.2881 233.083L79.3105 233.083L75.0523 224.87L70.7939 216.669L66.5464 224.87ZM74.7504 230.154L66.8482 230.154L68.8211 226.335L70.7939 222.529L72.7775 226.335L74.7504 230.154Z" fill="white" fill-opacity="0.2"/>
<path d="M94.5545 218.504L98.8667 210.291L103.114 202.078L86.1026 202.078L90.3501 210.291L94.5545 218.504ZM98.5002 205.02L96.5273 208.826L94.5545 212.633L92.5817 208.826L90.6088 205.02L98.5002 205.02Z" fill="white" fill-opacity="0.2"/>
<path d="M114.035 224.87L109.776 233.083L126.799 233.083L122.541 224.87L118.228 216.669L114.035 224.87ZM122.239 230.154L114.337 230.154L116.309 226.335L118.282 222.529L120.266 226.335L122.239 230.154Z" fill="white" fill-opacity="0.2"/>
<path d="M142.042 218.504L146.3 210.291L150.548 202.078L133.536 202.078L137.784 210.291L142.042 218.504ZM145.988 205.02L144.015 208.826L142.042 212.633L140.069 208.826L138.096 205.02L145.988 205.02Z" fill="white" fill-opacity="0.2"/>
<path d="M161.337 224.87L157.025 233.083L174.102 233.083L169.843 224.87L165.585 216.669L161.337 224.87ZM169.541 230.154L161.639 230.154L163.612 226.335L165.585 222.529L167.558 226.335L169.541 230.154Z" fill="white" fill-opacity="0.2"/>
<path d="M189.348 218.504L193.606 210.291L197.854 202.078L180.842 202.078L185.089 210.291L189.348 218.504ZM193.293 205.02L191.321 208.826L189.348 212.633L187.375 208.826L185.402 205.02L193.293 205.02Z" fill="white" fill-opacity="0.2"/>
<path d="M208.826 224.87L204.567 233.083L221.59 233.083L217.332 224.87L213.019 216.669L208.826 224.87ZM217.03 230.154L209.128 230.154L211.1 226.335L213.073 222.529L215.046 226.335L217.03 230.154Z" fill="white" fill-opacity="0.2"/>
<path d="M236.834 218.504L241.146 210.291L245.394 202.078L228.328 202.078L232.575 210.291L236.834 218.504ZM240.726 205.02L238.753 208.826L236.78 212.633L234.807 208.826L232.834 205.02L240.726 205.02Z" fill="white" fill-opacity="0.2"/>
<path d="M256.131 224.87L251.819 233.083L268.896 233.083L264.637 224.87L260.325 216.669L256.131 224.87ZM264.335 230.154L256.433 230.154L258.406 226.335L260.379 222.529L262.352 226.335L264.335 230.154Z" fill="white" fill-opacity="0.2"/>
<path d="M284.139 218.504L288.387 210.291L292.699 202.078L275.623 202.078L279.881 210.291L284.139 218.504ZM288.085 205.02L286.112 208.826L284.139 212.633L282.167 208.826L280.183 205.02L288.085 205.02Z" fill="white" fill-opacity="0.2"/>
<path d="M19.2446 34.1373L14.9863 42.3506L32.0088 42.3506L27.7505 34.1373L23.5029 25.9361L19.2446 34.1373ZM27.4486 39.4207L19.5465 39.4207L21.5193 35.6023L23.5029 31.7958L25.4758 35.6023L27.4486 39.4207Z" fill="white" fill-opacity="0.2"/>
<path d="M47.2528 27.7739L51.565 19.5607L55.8125 11.3474L38.8008 11.3474L43.0483 19.5606L47.2528 27.7739ZM51.1984 14.2892L49.2256 18.0957L47.2528 21.9021L45.2799 18.0957L43.3071 14.2892L51.1984 14.2892Z" fill="white" fill-opacity="0.2"/>
<path d="M66.5464 34.1373L62.2881 42.3506L79.3105 42.3506L75.0523 34.1373L70.7939 25.9361L66.5464 34.1373ZM74.7073 39.3967L66.8051 39.3967L68.778 35.5782L70.7508 31.7718L72.7344 35.5783L74.7073 39.3967Z" fill="white" fill-opacity="0.2"/>
<path d="M94.5545 27.7739L98.8667 19.5607L103.114 11.3474L86.1026 11.3474L90.3501 19.5606L94.5545 27.7739ZM98.5002 14.2892L96.5273 18.0957L94.5545 21.9021L92.5817 18.0957L90.6088 14.2892L98.5002 14.2892Z" fill="white" fill-opacity="0.2"/>
<path d="M114.035 34.1373L109.776 42.3506L126.799 42.3506L122.541 34.1373L118.228 25.9361L114.035 34.1373ZM122.239 39.4207L114.337 39.4207L116.309 35.6023L118.282 31.7958L120.266 35.6023L122.239 39.4207Z" fill="white" fill-opacity="0.2"/>
<path d="M142.042 27.7739L146.3 19.5607L150.548 11.3474L133.536 11.3474L137.784 19.5606L142.042 27.7739ZM145.988 14.2892L144.015 18.0957L142.042 21.9021L140.069 18.0957L138.096 14.2892L145.988 14.2892Z" fill="white" fill-opacity="0.2"/>
<path d="M161.337 34.1373L157.025 42.3506L174.102 42.3506L169.843 34.1373L165.585 25.9361L161.337 34.1373ZM169.574 39.3967L161.672 39.3967L163.644 35.5782L165.617 31.7718L167.59 35.5783L169.574 39.3967Z" fill="white" fill-opacity="0.2"/>
<path d="M189.348 27.7739L193.606 19.5607L197.854 11.3474L180.842 11.3474L185.089 19.5606L189.348 27.7739ZM193.293 14.2892L191.321 18.0957L189.348 21.9021L187.375 18.0957L185.402 14.2892L193.293 14.2892Z" fill="white" fill-opacity="0.2"/>
<path d="M208.826 34.1373L204.567 42.3506L221.59 42.3506L217.332 34.1373L213.019 25.9361L208.826 34.1373ZM217.008 39.3967L209.106 39.3967L211.079 35.5782L213.052 31.7718L215.024 35.5783L217.008 39.3967Z" fill="white" fill-opacity="0.2"/>
<path d="M236.834 27.7739L241.146 19.5607L245.394 11.3474L228.328 11.3474L232.575 19.5606L236.834 27.7739ZM240.726 14.2892L238.753 18.0957L236.78 21.9021L234.807 18.0957L232.834 14.2892L240.726 14.2892Z" fill="white" fill-opacity="0.2"/>
<path d="M256.131 34.1373L251.819 42.3506L268.896 42.3506L264.637 34.1373L260.325 25.9361L256.131 34.1373ZM264.335 39.3967L256.433 39.3967L258.406 35.5782L260.379 31.7718L262.352 35.5783L264.335 39.3967Z" fill="white" fill-opacity="0.2"/>
<path d="M284.139 27.7739L288.387 19.5607L292.699 11.3474L275.623 11.3474L279.881 19.5606L284.139 27.7739ZM288.085 14.2892L286.112 18.0957L284.139 21.9021L282.167 18.0957L280.183 14.2892L288.085 14.2892Z" fill="white" fill-opacity="0.2"/>
<path d="M289.116 251.467C289.126 251.297 289.102 251.127 289.048 250.968C288.994 250.809 288.91 250.664 288.802 250.544C288.694 250.423 288.565 250.33 288.422 250.27C288.279 250.209 288.126 250.184 287.973 250.194L263.178 249.738C262.973 249.733 262.769 249.774 262.579 249.86C262.389 249.945 262.216 250.072 262.071 250.233C261.926 250.395 261.811 250.588 261.735 250.8C261.658 251.012 261.621 251.239 261.626 251.467L262.035 272.445C262.041 272.78 262.163 273.1 262.376 273.338C262.589 273.575 262.877 273.711 263.178 273.717L281.505 274.198C281.713 274.204 281.921 274.163 282.114 274.078C282.308 273.992 282.484 273.863 282.631 273.699C282.779 273.535 282.894 273.339 282.971 273.123C283.048 272.907 283.085 272.677 283.079 272.445L282.648 257.507C282.657 257.337 282.634 257.167 282.58 257.008C282.526 256.848 282.442 256.704 282.334 256.583C282.226 256.463 282.096 256.37 281.953 256.309C281.81 256.249 281.658 256.224 281.505 256.234L269.086 256.498C268.967 256.498 268.85 256.524 268.741 256.575C268.632 256.626 268.533 256.701 268.449 256.794C268.366 256.888 268.3 257 268.256 257.122C268.212 257.244 268.19 257.375 268.191 257.507L268.31 266.465C268.305 266.58 268.322 266.694 268.359 266.801C268.397 266.909 268.454 267.006 268.527 267.087C268.6 267.169 268.687 267.232 268.783 267.274C268.88 267.315 268.983 267.334 269.086 267.329L275.112 267.053L275.188 267.053C275.252 267.05 275.315 267.033 275.373 267.002C275.431 266.971 275.483 266.927 275.525 266.873C275.567 266.819 275.599 266.756 275.619 266.688C275.639 266.62 275.646 266.548 275.64 266.477L275.403 262.406C275.39 262.332 275.355 262.266 275.303 262.218C275.251 262.17 275.185 262.144 275.118 262.144C275.05 262.144 274.985 262.17 274.933 262.218C274.88 262.266 274.845 262.332 274.832 262.406L274.627 265.864L269.884 265.636L269.981 258.54L280.319 258.768L279.974 270.775L264.375 271.148L264.72 253.136L286.841 252.728L286.938 277.944L262.025 278.689C261.936 278.689 261.851 278.728 261.788 278.798C261.726 278.867 261.69 278.962 261.69 279.061C261.69 279.159 261.726 279.254 261.788 279.324C261.851 279.394 261.936 279.433 262.025 279.433L287.973 280.214C288.111 280.223 288.249 280.202 288.379 280.15C288.508 280.099 288.627 280.018 288.728 279.914C288.829 279.809 288.91 279.683 288.965 279.542C289.021 279.402 289.05 279.25 289.051 279.097C289.051 279.097 289.127 251.491 289.116 251.467Z" fill="white" fill-opacity="0.2"/>
<path d="M251.929 256.822L233.602 256.341C233.393 256.333 233.185 256.373 232.991 256.458C232.797 256.543 232.62 256.672 232.472 256.836C232.325 257.001 232.209 257.197 232.132 257.414C232.056 257.63 232.021 257.862 232.028 258.094L232.448 273.032C232.447 273.201 232.476 273.368 232.534 273.524C232.591 273.68 232.676 273.821 232.784 273.94C232.891 274.059 233.019 274.152 233.16 274.215C233.3 274.277 233.451 274.308 233.602 274.305L246.01 274.041C246.13 274.042 246.248 274.017 246.359 273.967C246.469 273.917 246.57 273.843 246.654 273.749C246.738 273.655 246.805 273.543 246.85 273.42C246.895 273.297 246.917 273.165 246.916 273.032L246.797 264.074C246.8 263.959 246.782 263.844 246.744 263.737C246.705 263.629 246.647 263.532 246.573 263.451C246.499 263.37 246.411 263.307 246.314 263.265C246.217 263.224 246.114 263.205 246.01 263.21L239.984 263.486L239.919 263.486C239.79 263.495 239.669 263.561 239.582 263.669C239.495 263.776 239.45 263.918 239.456 264.062L239.704 268.133C239.704 268.216 239.733 268.295 239.786 268.354C239.838 268.412 239.91 268.445 239.984 268.445C240.058 268.445 240.13 268.412 240.182 268.354C240.235 268.295 240.264 268.216 240.264 268.133L240.48 264.675L245.223 264.903L245.126 271.999L234.777 271.771L235.122 259.764L250.722 259.355C250.722 261.445 250.42 274.641 250.366 277.367L228.255 277.775C228.255 275.518 228.158 254.54 228.158 252.559L253.072 251.814C253.16 251.814 253.245 251.775 253.308 251.705C253.371 251.636 253.406 251.541 253.406 251.442C253.406 251.343 253.371 251.249 253.308 251.179C253.245 251.109 253.16 251.07 253.072 251.07L227.112 250.289C226.979 250.286 226.846 250.313 226.722 250.367C226.598 250.422 226.485 250.504 226.389 250.608C226.294 250.712 226.218 250.836 226.166 250.973C226.115 251.11 226.088 251.257 226.088 251.406C226.088 251.406 225.959 279.024 225.969 279.024C225.969 279.191 225.999 279.357 226.056 279.511C226.114 279.665 226.198 279.806 226.304 279.924C226.41 280.042 226.536 280.136 226.675 280.2C226.813 280.264 226.962 280.297 227.112 280.297L251.907 280.753C252.113 280.758 252.317 280.717 252.508 280.632C252.699 280.547 252.873 280.42 253.019 280.258C253.164 280.097 253.28 279.904 253.357 279.692C253.435 279.48 253.473 279.253 253.471 279.024L253.061 258.046C253.042 257.722 252.916 257.417 252.707 257.191C252.498 256.965 252.22 256.833 251.929 256.822Z" fill="white" fill-opacity="0.2"/>
<path d="M217.445 251.466C217.445 251.129 217.324 250.805 217.11 250.566C216.896 250.328 216.605 250.193 216.302 250.193L191.507 249.737C191.301 249.732 191.097 249.774 190.906 249.859C190.715 249.944 190.541 250.071 190.395 250.232C190.249 250.393 190.134 250.586 190.057 250.798C189.979 251.01 189.94 251.237 189.943 251.466L190.353 272.444C190.361 272.78 190.486 273.101 190.701 273.338C190.916 273.575 191.204 273.711 191.507 273.717L209.833 274.197C210.043 274.205 210.251 274.166 210.446 274.081C210.641 273.996 210.818 273.867 210.967 273.703C211.115 273.538 211.232 273.342 211.31 273.125C211.387 272.909 211.424 272.677 211.418 272.444L210.987 257.506C210.997 257.335 210.973 257.164 210.919 257.004C210.864 256.844 210.779 256.698 210.67 256.578C210.561 256.457 210.429 256.364 210.285 256.305C210.141 256.245 209.987 256.221 209.833 256.233L197.425 256.497C197.306 256.496 197.187 256.521 197.077 256.571C196.966 256.621 196.866 256.695 196.782 256.789C196.697 256.883 196.631 256.995 196.586 257.118C196.541 257.241 196.518 257.373 196.52 257.506L196.638 266.464C196.635 266.579 196.653 266.694 196.692 266.802C196.731 266.909 196.789 267.006 196.863 267.087C196.936 267.168 197.024 267.232 197.121 267.273C197.218 267.315 197.321 267.333 197.425 267.328L203.451 267.052L203.516 267.052C203.646 267.043 203.767 266.977 203.854 266.87C203.94 266.762 203.986 266.62 203.98 266.476L203.732 262.405C203.732 262.322 203.702 262.243 203.65 262.185C203.597 262.126 203.526 262.093 203.451 262.093C203.377 262.093 203.306 262.126 203.253 262.185C203.201 262.243 203.171 262.322 203.171 262.405L202.956 265.864L198.212 265.635L198.309 258.539L208.658 258.767C208.658 260.604 208.378 268.313 208.313 270.775L192.714 271.183L193.07 253.171L215.181 252.763L215.278 277.979L190.364 278.724C190.275 278.724 190.19 278.763 190.128 278.833C190.065 278.903 190.03 278.997 190.03 279.096C190.03 279.195 190.065 279.289 190.128 279.359C190.19 279.429 190.275 279.468 190.364 279.468L216.323 280.249C216.457 280.252 216.59 280.225 216.714 280.171C216.838 280.116 216.951 280.034 217.046 279.93C217.142 279.826 217.217 279.702 217.269 279.565C217.321 279.428 217.348 279.281 217.348 279.132C217.348 279.132 217.455 251.49 217.445 251.466Z" fill="white" fill-opacity="0.2"/>
<path d="M180.259 256.822L161.932 256.341C161.724 256.335 161.516 256.376 161.323 256.461C161.129 256.547 160.953 256.676 160.806 256.84C160.658 257.004 160.543 257.2 160.466 257.416C160.389 257.631 160.352 257.862 160.358 258.094L160.789 273.032C160.78 273.202 160.803 273.372 160.857 273.531C160.911 273.691 160.995 273.835 161.103 273.955C161.211 274.076 161.341 274.169 161.484 274.229C161.627 274.29 161.779 274.315 161.932 274.305L174.351 274.041C174.59 274.038 174.819 273.93 174.988 273.742C175.158 273.553 175.254 273.299 175.257 273.032L175.127 264.074C175.132 263.959 175.115 263.845 175.078 263.737C175.04 263.63 174.983 263.533 174.91 263.452C174.837 263.37 174.75 263.307 174.653 263.265C174.557 263.223 174.454 263.205 174.351 263.21L168.325 263.486L168.249 263.486C168.185 263.489 168.122 263.506 168.064 263.537C168.006 263.568 167.954 263.612 167.912 263.666C167.87 263.72 167.837 263.783 167.818 263.851C167.798 263.919 167.791 263.991 167.797 264.062L168.044 268.133C168.044 268.216 168.074 268.295 168.127 268.354C168.179 268.412 168.25 268.445 168.325 268.445C168.399 268.445 168.47 268.412 168.523 268.354C168.576 268.295 168.605 268.216 168.605 268.133L168.81 264.675L173.553 264.903L173.467 271.999L163.118 271.771L163.463 259.764L179.051 259.355C179.051 261.445 178.76 274.641 178.706 277.367L156.639 277.775L156.531 252.559L181.455 251.814C181.544 251.814 181.629 251.775 181.692 251.705C181.754 251.636 181.79 251.541 181.79 251.442C181.79 251.343 181.754 251.249 181.692 251.179C181.629 251.109 181.544 251.07 181.455 251.07L155.496 250.289C155.358 250.28 155.221 250.301 155.091 250.353C154.961 250.404 154.842 250.485 154.741 250.589C154.64 250.694 154.559 250.82 154.504 250.961C154.448 251.101 154.419 251.253 154.418 251.406C154.418 251.406 154.299 279.024 154.31 279.024C154.301 279.194 154.324 279.364 154.378 279.523C154.432 279.682 154.516 279.827 154.624 279.947C154.732 280.068 154.862 280.161 155.005 280.221C155.147 280.282 155.3 280.307 155.453 280.297L180.248 280.753C180.453 280.758 180.657 280.717 180.847 280.631C181.038 280.546 181.211 280.419 181.356 280.258C181.501 280.096 181.615 279.903 181.691 279.691C181.768 279.479 181.805 279.252 181.8 279.024L181.391 258.046C181.375 257.721 181.249 257.415 181.04 257.188C180.83 256.961 180.551 256.83 180.259 256.822Z" fill="white" fill-opacity="0.2"/>
<path d="M145.757 251.467C145.766 251.297 145.743 251.127 145.689 250.968C145.635 250.809 145.551 250.664 145.443 250.544C145.335 250.423 145.205 250.33 145.062 250.27C144.919 250.209 144.766 250.184 144.614 250.194L119.819 249.738C119.614 249.733 119.41 249.774 119.219 249.86C119.029 249.945 118.856 250.072 118.711 250.233C118.566 250.395 118.452 250.588 118.375 250.8C118.299 251.012 118.262 251.239 118.266 251.467L118.676 272.445C118.681 272.78 118.804 273.1 119.017 273.338C119.23 273.575 119.517 273.711 119.819 273.717L138.146 274.198C138.354 274.204 138.561 274.163 138.755 274.078C138.948 273.992 139.124 273.863 139.272 273.699C139.419 273.535 139.535 273.339 139.612 273.123C139.689 272.907 139.725 272.677 139.719 272.445L139.288 257.507C139.298 257.337 139.275 257.167 139.221 257.008C139.166 256.848 139.083 256.704 138.975 256.583C138.867 256.463 138.737 256.37 138.594 256.309C138.451 256.249 138.298 256.224 138.146 256.234L125.726 256.498C125.487 256.501 125.258 256.609 125.089 256.797C124.92 256.986 124.824 257.24 124.821 257.507L124.95 266.465C124.946 266.58 124.962 266.694 125 266.801C125.037 266.909 125.094 267.006 125.167 267.087C125.24 267.169 125.328 267.232 125.424 267.274C125.52 267.315 125.623 267.334 125.726 267.329L131.753 267.053L131.839 267.053C131.903 267.05 131.966 267.033 132.024 267.002C132.082 266.971 132.134 266.927 132.176 266.873C132.219 266.819 132.251 266.756 132.271 266.688C132.29 266.62 132.298 266.548 132.292 266.477L132.044 262.406C132.044 262.323 132.014 262.244 131.962 262.185C131.909 262.127 131.838 262.094 131.763 262.094C131.689 262.094 131.618 262.127 131.565 262.185C131.513 262.244 131.483 262.323 131.483 262.406L131.278 265.864L126.535 265.636C126.535 264.435 126.61 259.981 126.621 258.54L136.97 258.768L136.625 270.775L121.058 271.148L121.403 253.136L143.514 252.728L143.622 277.944L118.697 278.689C118.609 278.689 118.524 278.728 118.461 278.798C118.398 278.867 118.363 278.962 118.363 279.061C118.363 279.159 118.398 279.254 118.461 279.324C118.524 279.394 118.609 279.433 118.697 279.433L144.657 280.214C144.794 280.223 144.932 280.202 145.062 280.15C145.192 280.099 145.311 280.018 145.412 279.914C145.513 279.809 145.593 279.683 145.649 279.542C145.705 279.402 145.734 279.25 145.735 279.097C145.735 279.097 145.767 251.491 145.757 251.467Z" fill="white" fill-opacity="0.2"/>
<path d="M108.58 256.822L90.2534 256.341C90.0442 256.333 89.8357 256.373 89.6407 256.458C89.4458 256.543 89.2686 256.671 89.1201 256.836C88.9715 257 88.8549 257.196 88.7772 257.413C88.6996 257.629 88.6626 257.861 88.6687 258.094L89.0999 273.032C89.0902 273.203 89.1135 273.374 89.1683 273.534C89.223 273.695 89.3078 273.84 89.4171 273.96C89.5263 274.081 89.6575 274.174 89.8017 274.233C89.946 274.293 90.1 274.317 90.2534 274.305L102.662 274.041C102.781 274.042 102.9 274.017 103.01 273.967C103.121 273.917 103.221 273.843 103.305 273.749C103.39 273.655 103.456 273.543 103.501 273.42C103.546 273.297 103.569 273.165 103.567 273.032L103.449 264.074C103.452 263.959 103.433 263.844 103.395 263.737C103.356 263.629 103.298 263.532 103.224 263.451C103.151 263.37 103.062 263.307 102.966 263.265C102.869 263.224 102.765 263.205 102.662 263.21L96.6355 263.486L96.5708 263.486C96.4411 263.495 96.3199 263.561 96.2332 263.669C96.1465 263.776 96.1013 263.918 96.1072 264.062L96.3552 268.133C96.3552 268.216 96.3847 268.295 96.4373 268.354C96.4898 268.412 96.5611 268.445 96.6355 268.445C96.7098 268.445 96.7811 268.412 96.8337 268.354C96.8862 268.295 96.9158 268.216 96.9158 268.133L97.1206 264.675L101.875 264.903L101.778 271.999L91.4285 271.771L91.7734 259.764L107.373 259.355L107.017 277.367L84.9062 277.775L84.8092 252.559L109.723 251.814C109.812 251.814 109.897 251.775 109.959 251.705C110.022 251.636 110.057 251.541 110.057 251.442C110.057 251.343 110.022 251.249 109.959 251.179C109.897 251.109 109.812 251.07 109.723 251.07L83.7635 250.289C83.4902 250.289 83.2268 250.404 83.0267 250.611C82.8265 250.818 82.7046 251.102 82.6854 251.406C82.6854 251.406 82.5668 279.024 82.5776 279.024C82.5776 279.191 82.6072 279.357 82.6646 279.511C82.722 279.665 82.8062 279.806 82.9123 279.924C83.0185 280.042 83.1444 280.136 83.2831 280.2C83.4217 280.264 83.5703 280.297 83.7204 280.297L108.516 280.753C108.721 280.758 108.925 280.717 109.115 280.631C109.305 280.546 109.478 280.419 109.623 280.258C109.768 280.096 109.882 279.903 109.959 279.691C110.035 279.479 110.072 279.252 110.068 279.024L109.658 258.046C109.643 257.731 109.526 257.433 109.327 257.207C109.129 256.982 108.863 256.845 108.58 256.822Z" fill="white" fill-opacity="0.2"/>
<path d="M74.0898 251.466C74.0898 251.129 73.9695 250.805 73.7552 250.566C73.5409 250.328 73.2502 250.193 72.9471 250.193L48.1519 249.737C47.9459 249.731 47.7409 249.771 47.5493 249.855C47.3577 249.94 47.1835 250.066 47.0373 250.228C46.8911 250.39 46.7759 250.583 46.6988 250.796C46.6217 251.009 46.5842 251.237 46.5887 251.466L46.9983 272.444C47.0066 272.78 47.1311 273.101 47.346 273.338C47.5608 273.575 47.8495 273.711 48.1519 273.717L66.4788 274.197C66.6875 274.205 66.8956 274.166 67.0899 274.081C67.2843 273.995 67.4608 273.867 67.6085 273.702C67.7562 273.538 67.8719 273.341 67.9483 273.124C68.0247 272.908 68.0603 272.676 68.0527 272.444L67.6215 257.506C67.631 257.336 67.6079 257.166 67.5538 257.007C67.4998 256.848 67.4159 256.703 67.3079 256.583C67.1998 256.462 67.07 256.369 66.927 256.309C66.7841 256.248 66.6313 256.223 66.4788 256.233L54.0596 256.497C53.9412 256.497 53.824 256.524 53.7147 256.574C53.6054 256.625 53.5063 256.7 53.4231 256.794C53.3398 256.887 53.2742 256.999 53.2298 257.121C53.1855 257.243 53.1634 257.374 53.1648 257.506L53.2834 266.464C53.2788 266.579 53.2957 266.694 53.3331 266.801C53.3705 266.908 53.4275 267.005 53.5006 267.087C53.5736 267.168 53.661 267.231 53.7572 267.273C53.8535 267.315 53.9565 267.334 54.0596 267.328L60.0967 267.052L60.1614 267.052C60.2257 267.049 60.2887 267.032 60.3467 267.001C60.4047 266.97 60.4565 266.926 60.4988 266.872C60.5412 266.818 60.5732 266.755 60.593 266.687C60.6129 266.619 60.6201 266.547 60.6142 266.476L60.377 262.405C60.377 262.322 60.3475 262.243 60.2949 262.185C60.2423 262.126 60.1711 262.093 60.0967 262.093C60.0224 262.093 59.9511 262.126 59.8985 262.185C59.8459 262.243 59.8164 262.322 59.8164 262.405L59.6008 265.864L54.8574 265.635L54.9544 258.539L65.3037 258.767L64.9587 270.775L49.3593 271.183L49.7151 253.171L71.8259 252.763L71.923 277.979L47.0091 278.724C46.9205 278.724 46.8355 278.763 46.7728 278.833C46.7101 278.903 46.6749 278.997 46.6749 279.096C46.6749 279.195 46.7101 279.289 46.7728 279.359C46.8355 279.429 46.9205 279.468 47.0091 279.468L72.9687 280.249C73.1022 280.252 73.2348 280.225 73.359 280.171C73.4831 280.116 73.5962 280.034 73.6916 279.93C73.787 279.826 73.8628 279.702 73.9145 279.565C73.9662 279.428 73.9929 279.281 73.9928 279.132C73.9928 279.132 74.0898 251.49 74.0898 251.466Z" fill="white" fill-opacity="0.2"/>
<path d="M36.9128 256.823L18.5859 256.343C18.3776 256.336 18.1703 256.377 17.9766 256.463C17.783 256.549 17.6071 256.678 17.4597 256.842C17.3123 257.006 17.1966 257.202 17.1196 257.418C17.0426 257.633 17.006 257.864 17.012 258.096L17.4432 273.034C17.4337 273.204 17.4568 273.374 17.5109 273.533C17.5649 273.692 17.6488 273.837 17.7569 273.957C17.8649 274.078 17.9947 274.171 18.1377 274.231C18.2806 274.291 18.4334 274.317 18.5859 274.307L31.0051 274.042C31.1235 274.042 31.2408 274.016 31.35 273.965C31.4593 273.915 31.5584 273.84 31.6417 273.746C31.7249 273.653 31.7906 273.541 31.8349 273.419C31.8792 273.297 31.9013 273.166 31.8999 273.034L31.7813 264.076C31.7859 263.961 31.769 263.846 31.7316 263.739C31.6942 263.632 31.6372 263.535 31.5642 263.453C31.4911 263.372 31.4037 263.309 31.3075 263.267C31.2112 263.225 31.1082 263.206 31.0051 263.212L24.9788 263.488L24.9033 263.488C24.839 263.491 24.776 263.508 24.718 263.539C24.66 263.57 24.6082 263.614 24.5659 263.668C24.5235 263.722 24.4915 263.785 24.4717 263.853C24.4518 263.921 24.4446 263.993 24.4505 264.064L24.6877 268.135C24.7006 268.208 24.7362 268.275 24.7883 268.323C24.8404 268.371 24.9059 268.397 24.9734 268.397C25.0409 268.397 25.1063 268.371 25.1584 268.323C25.2106 268.275 25.2461 268.208 25.2591 268.135L25.4639 264.676L30.2073 264.905C30.2073 266.105 30.1319 270.56 30.1103 272.001L19.761 271.773L20.106 259.765L35.7054 259.357C35.7054 261.446 35.4036 274.643 35.3604 277.369L13.2603 277.777C13.2603 275.519 13.1741 254.542 13.1633 252.561L38.0771 251.816C38.1658 251.816 38.2508 251.777 38.3134 251.707C38.3761 251.637 38.4113 251.543 38.4113 251.444C38.4113 251.345 38.3761 251.251 38.3134 251.181C38.2508 251.111 38.1658 251.072 38.0771 251.072L12.1284 250.291C11.9909 250.281 11.853 250.303 11.7232 250.355C11.5934 250.406 11.4744 250.487 11.3735 250.591C11.2726 250.696 11.1919 250.822 11.1364 250.962C11.0808 251.103 11.0515 251.254 11.0503 251.408L10.9317 279.026C10.9248 279.207 10.953 279.389 11.0143 279.557C11.0756 279.726 11.1686 279.878 11.2871 280.003C11.4057 280.128 11.5469 280.224 11.7013 280.283C11.8557 280.342 12.0197 280.364 12.1823 280.347L36.9775 280.803C37.1826 280.808 37.3864 280.766 37.5768 280.681C37.7671 280.596 37.94 280.469 38.0851 280.307C38.2301 280.146 38.3443 279.953 38.4207 279.741C38.4972 279.529 38.5343 279.302 38.5299 279.074L38.1203 258.096C38.1161 257.924 38.0815 257.755 38.0186 257.598C37.9556 257.441 37.8655 257.299 37.7534 257.181C37.6412 257.063 37.5093 256.971 37.365 256.909C37.2208 256.848 37.0672 256.819 36.9128 256.823Z" fill="white" fill-opacity="0.2"/>
<path d="M280.616 115.911L284.928 107.698L267.841 107.698L272.099 115.911L276.303 124.112L280.616 115.911ZM272.412 110.628L280.303 110.628L278.33 114.446L276.303 118.253L274.33 114.446L272.412 110.628Z" fill="white" fill-opacity="0.2"/>
<path d="M248.338 130.488L244.091 138.702L261.103 138.702L256.855 130.488L252.586 122.251L248.338 130.488ZM256.542 135.76L248.651 135.76L250.624 131.953L252.586 128.147L254.559 131.953L256.542 135.76Z" fill="white" fill-opacity="0.2"/>
<path d="M233.3 115.911L237.612 107.698L220.59 107.698L224.848 115.911L229.106 124.112L233.3 115.911ZM225.096 110.628L232.998 110.628L231.025 114.446L229.053 118.253L227.069 114.446L225.096 110.628Z" fill="white" fill-opacity="0.2"/>
<path d="M201.033 130.488L196.785 138.702L213.775 138.702L209.528 130.488L205.216 122.275L201.033 130.488ZM209.237 135.76L201.345 135.76L203.318 131.953L205.291 128.147L207.307 131.953L209.237 135.76Z" fill="white" fill-opacity="0.2"/>
<path d="M185.813 115.911L190.061 107.698L173.038 107.698L177.296 115.911L181.609 124.112L185.813 115.911ZM177.609 110.628L185.511 110.628L183.538 114.446L181.565 118.253L179.582 114.446L177.609 110.628Z" fill="white" fill-opacity="0.2"/>
<path d="M153.545 130.488L149.298 138.702L166.342 138.702L162.094 130.488L157.836 122.275L153.545 130.488ZM161.749 135.76L153.858 135.76L155.831 131.953L157.804 128.147L159.776 131.953L161.749 135.76Z" fill="white" fill-opacity="0.2"/>
<path d="M138.504 115.911L142.763 107.698L125.74 107.698L129.999 115.911L134.311 124.112L138.504 115.911ZM130.3 110.628L138.203 110.628L136.23 114.446L134.257 118.253L132.284 114.446L130.3 110.628Z" fill="white" fill-opacity="0.2"/>
<path d="M106.242 130.488L101.994 138.702L119.006 138.702L114.758 130.488L110.446 122.275L106.242 130.488ZM114.446 135.76L106.554 135.76L108.527 131.953L110.5 128.147L112.441 131.953L114.446 135.76Z" fill="white" fill-opacity="0.2"/>
<path d="M91.0169 115.911L95.3291 107.698L78.3066 107.698L82.565 115.911L86.8232 124.112L91.0169 115.911ZM82.8129 110.628L90.715 110.628L88.7206 114.446L86.7478 118.253L84.7749 114.446L82.8129 110.628Z" fill="white" fill-opacity="0.2"/>
<path d="M58.7536 130.488L54.5061 138.702L71.4746 138.702L67.2271 130.488L62.9149 122.275L58.7536 130.488ZM66.9576 135.76L59.0662 135.76L61.0391 131.953L63.0119 128.147L65.0063 131.953L66.9576 135.76Z" fill="white" fill-opacity="0.2"/>
<path d="M43.7134 115.911L47.9717 107.698L30.9492 107.698L35.2075 115.911L39.4658 124.112L43.7134 115.911ZM35.5094 110.628L43.4438 110.628L41.471 114.446L39.4982 118.253L37.5253 114.446L35.5094 110.628Z" fill="white" fill-opacity="0.2"/>
<path d="M19.9614 130.488L15.6492 122.275L11.4017 130.488L7.14332 138.702L24.2197 138.702L19.9614 130.488ZM11.7574 135.76L13.7302 131.953L15.7031 128.147L17.6759 131.953L19.6595 135.76L11.7574 135.76Z" fill="white" fill-opacity="0.2"/>
<path d="M289.116 61.7069C289.126 61.537 289.102 61.3668 289.048 61.2076C288.994 61.0484 288.91 60.9038 288.802 60.7835C288.694 60.6631 288.565 60.5697 288.422 60.5095C288.279 60.4492 288.126 60.4235 287.973 60.4341L263.178 59.9778C262.973 59.9729 262.769 60.0142 262.579 60.0994C262.389 60.1845 262.216 60.3117 262.071 60.4733C261.926 60.6348 261.811 60.8274 261.735 61.0394C261.658 61.2514 261.621 61.4785 261.626 61.7069L262.057 82.6243C262.062 82.96 262.185 83.2802 262.398 83.5175C262.611 83.7549 262.898 83.891 263.2 83.8971L281.527 84.3775C281.732 84.3792 281.936 84.3347 282.126 84.2467C282.316 84.1588 282.488 84.0291 282.632 83.8655C282.776 83.7019 282.888 83.5077 282.963 83.2944C283.038 83.0812 283.074 82.8533 283.068 82.6243L282.637 67.6867C282.646 67.5168 282.623 67.3466 282.569 67.1874C282.515 67.0282 282.431 66.8837 282.323 66.7633C282.215 66.643 282.085 66.5496 281.943 66.4893C281.8 66.4291 281.647 66.4034 281.494 66.4139L269.075 66.6781C268.956 66.6764 268.838 66.7015 268.728 66.7517C268.618 66.802 268.519 66.8764 268.435 66.9706C268.352 67.0647 268.286 67.1767 268.242 67.2997C268.198 67.4228 268.177 67.5544 268.18 67.6867L268.299 76.6445C268.294 76.7594 268.311 76.8741 268.349 76.9813C268.386 77.0885 268.443 77.1859 268.516 77.2672C268.589 77.3485 268.676 77.412 268.773 77.4537C268.869 77.4953 268.972 77.5141 269.075 77.509L275.101 77.2209L275.177 77.2209C275.241 77.2163 275.303 77.1977 275.36 77.1663C275.418 77.1348 275.469 77.091 275.511 77.0375C275.553 76.9839 275.585 76.9216 275.605 76.8542C275.626 76.7868 275.634 76.7155 275.63 76.6445L275.392 72.5739C275.38 72.5001 275.344 72.4336 275.292 72.3857C275.24 72.3379 275.174 72.3118 275.107 72.3118C275.039 72.3118 274.974 72.3379 274.922 72.3857C274.87 72.4336 274.834 72.5001 274.821 72.5739L274.616 76.0321L269.873 75.804L269.97 68.7074L280.308 68.9355L279.963 80.9433L264.375 81.4236L264.72 63.412L286.841 63.0037L286.938 88.2199L262.025 88.9644C261.936 88.9644 261.851 89.0036 261.788 89.0734C261.726 89.1433 261.69 89.2379 261.69 89.3366C261.69 89.4354 261.726 89.5301 261.788 89.5999C261.851 89.6697 261.936 89.7089 262.025 89.7089L287.973 90.4894C288.111 90.4992 288.249 90.4777 288.379 90.4261C288.508 90.3745 288.627 90.294 288.728 90.1895C288.829 90.085 288.91 89.9586 288.965 89.8182C289.021 89.6777 289.05 89.5261 289.051 89.3727C289.051 89.3727 289.127 61.7309 289.116 61.7069Z" fill="white" fill-opacity="0.2"/>
<path d="M251.93 67.0163L233.603 66.536C233.396 66.5388 233.193 66.5883 233.004 66.6815C232.816 66.7747 232.646 66.9096 232.506 67.0781C232.366 67.2466 232.258 67.4452 232.189 67.6616C232.12 67.878 232.091 68.1079 232.104 68.3371L232.525 83.2748C232.525 83.4429 232.555 83.6094 232.613 83.7646C232.671 83.9198 232.756 84.0607 232.863 84.179C232.97 84.2974 233.098 84.3909 233.238 84.4541C233.377 84.5174 233.527 84.5492 233.678 84.5476L246.087 84.2834C246.206 84.285 246.324 84.26 246.435 84.2099C246.545 84.1598 246.646 84.0855 246.73 83.9916C246.815 83.8976 246.881 83.7857 246.926 83.6626C246.971 83.5395 246.994 83.4077 246.992 83.2748L246.874 74.317C246.877 74.2015 246.858 74.0866 246.82 73.9793C246.781 73.8721 246.723 73.7749 246.649 73.6938C246.575 73.6126 246.487 73.5493 246.39 73.5078C246.294 73.4663 246.19 73.4474 246.087 73.4524L240.06 73.7286L239.996 73.7286C239.866 73.7379 239.745 73.8035 239.658 73.9113C239.571 74.0191 239.526 74.1604 239.532 74.305L239.78 78.3756C239.78 78.4584 239.81 78.5378 239.862 78.5964C239.915 78.6549 239.986 78.6878 240.06 78.6878C240.135 78.6878 240.206 78.6549 240.258 78.5964C240.311 78.5378 240.341 78.4584 240.341 78.3756L240.556 74.9174L245.3 75.1455L245.203 82.2421L234.853 82.0139L235.198 70.0062L250.798 69.5979C250.798 71.6873 250.496 84.8838 250.442 87.6095L228.331 88.0178C228.331 85.7603 228.234 64.7828 228.234 62.8016L253.148 62.0571C253.236 62.0571 253.321 62.0179 253.384 61.9481C253.447 61.8783 253.482 61.7836 253.482 61.6849C253.482 61.5861 253.447 61.4915 253.384 61.4216C253.321 61.3518 253.236 61.3126 253.148 61.3126L227.188 60.5321C227.055 60.5289 226.922 60.5555 226.798 60.6101C226.674 60.6648 226.561 60.7466 226.465 60.8506C226.37 60.9546 226.294 61.0788 226.242 61.2159C226.191 61.353 226.164 61.5001 226.164 61.6488C226.164 61.6488 226.035 89.2666 226.046 89.2666C226.048 89.6032 226.17 89.9251 226.383 90.1632C226.597 90.4012 226.886 90.5363 227.188 90.5394L251.984 90.9957C252.189 91.0006 252.393 90.9593 252.584 90.8742C252.775 90.7892 252.949 90.6622 253.095 90.5008C253.241 90.3395 253.356 90.147 253.434 89.935C253.511 89.7229 253.55 89.4956 253.547 89.2666L253.137 68.2891C253.133 68.1172 253.098 67.9479 253.035 67.7909C252.972 67.6339 252.882 67.4922 252.77 67.374C252.658 67.2558 252.526 67.1634 252.382 67.102C252.238 67.0406 252.084 67.0115 251.93 67.0163Z" fill="white" fill-opacity="0.2"/>
<path d="M217.444 61.7102C217.446 61.5426 217.417 61.3764 217.36 61.2212C217.303 61.0661 217.219 60.9251 217.113 60.8066C217.007 60.6881 216.88 60.5944 216.741 60.531C216.601 60.4676 216.452 60.4357 216.302 60.4373L191.506 59.9811C191.301 59.9762 191.097 60.0175 190.906 60.1025C190.715 60.1875 190.541 60.3145 190.395 60.4759C190.249 60.6373 190.134 60.8298 190.056 61.0418C189.979 61.2539 189.94 61.4812 189.943 61.7102L190.374 82.6276C190.383 82.9644 190.507 83.2846 190.722 83.5216C190.937 83.7587 191.226 83.8944 191.528 83.9004L209.855 84.3807C210.064 84.389 210.273 84.3495 210.468 84.2645C210.662 84.1795 210.84 84.0508 210.988 83.8865C211.137 83.7222 211.253 83.5257 211.331 83.3092C211.409 83.0926 211.446 82.8607 211.44 82.6276L211.008 67.69C211.018 67.519 210.995 67.3477 210.94 67.1877C210.885 67.0276 210.8 66.8824 210.691 66.7618C210.582 66.6412 210.451 66.5481 210.307 66.4887C210.162 66.4293 210.008 66.4049 209.855 66.4172L197.446 66.6814C197.327 66.6798 197.209 66.7048 197.098 66.7549C196.988 66.805 196.887 66.8792 196.803 66.9732C196.719 67.0672 196.652 67.179 196.607 67.3021C196.562 67.4252 196.539 67.5571 196.541 67.69L196.66 76.6478C196.656 76.7632 196.675 76.8782 196.713 76.9854C196.752 77.0927 196.81 77.1899 196.884 77.271C196.958 77.3521 197.046 77.4154 197.143 77.457C197.239 77.4985 197.343 77.5173 197.446 77.5123L203.473 77.2241L203.537 77.2241C203.667 77.2149 203.788 77.1493 203.875 77.0415C203.962 76.9337 204.007 76.7923 204.001 76.6478L203.753 72.5772C203.753 72.4944 203.724 72.415 203.671 72.3564C203.618 72.2979 203.547 72.265 203.473 72.265C203.398 72.265 203.327 72.2979 203.275 72.3564C203.222 72.415 203.193 72.4944 203.193 72.5772L202.977 76.0354L198.233 75.8072L198.33 68.7107L208.68 68.9388C208.68 70.776 208.4 78.473 208.335 80.9465L192.735 81.3548L193.091 63.3432L215.202 62.935L215.299 88.1512L190.385 88.8957C190.297 88.8957 190.212 88.9349 190.149 89.0047C190.086 89.0745 190.051 89.1692 190.051 89.2679C190.051 89.3666 190.086 89.4613 190.149 89.5311C190.212 89.6009 190.297 89.6401 190.385 89.6401L216.345 90.4206C216.478 90.4238 216.611 90.3973 216.735 90.3426C216.859 90.2879 216.972 90.2062 217.068 90.1022C217.163 89.9981 217.239 89.874 217.291 89.7369C217.342 89.5998 217.369 89.4526 217.369 89.3039C217.369 89.3039 217.455 61.7342 217.444 61.7102Z" fill="white" fill-opacity="0.2"/>
<path d="M180.26 67.0145L161.933 66.5342C161.724 66.5258 161.516 66.5654 161.322 66.6505C161.128 66.7357 160.951 66.8645 160.803 67.029C160.656 67.1935 160.54 67.3901 160.464 67.6066C160.387 67.8231 160.352 68.0548 160.359 68.2873L160.79 83.2249C160.781 83.3948 160.804 83.565 160.858 83.7242C160.912 83.8834 160.996 84.028 161.104 84.1483C161.212 84.2687 161.342 84.3621 161.485 84.4224C161.628 84.4826 161.781 84.5083 161.933 84.4978L174.352 84.2336C174.591 84.2305 174.82 84.1232 174.989 83.9347C175.159 83.7462 175.255 83.4915 175.258 83.2249L175.128 74.2672C175.133 74.1523 175.116 74.0376 175.079 73.9304C175.041 73.8232 174.984 73.7258 174.911 73.6445C174.838 73.5632 174.751 73.4996 174.655 73.458C174.558 73.4164 174.455 73.3975 174.352 73.4026L168.326 73.6788L168.25 73.6788C168.186 73.6817 168.123 73.6992 168.065 73.7302C168.007 73.7611 167.955 73.8049 167.913 73.8588C167.871 73.9127 167.839 73.9756 167.819 74.0438C167.799 74.1119 167.792 74.1838 167.798 74.2552L168.046 78.3258C168.046 78.4086 168.075 78.488 168.128 78.5466C168.18 78.6051 168.252 78.638 168.326 78.638C168.4 78.638 168.472 78.6051 168.524 78.5466C168.577 78.488 168.606 78.4086 168.606 78.3258L168.811 74.8676L173.554 75.0957L173.468 82.1923L163.119 81.9641L163.464 69.9564L179.053 69.5481C179.053 71.6375 178.761 84.834 178.708 87.5597L156.597 87.968L156.489 62.7518L181.413 62.0073C181.502 62.0073 181.587 61.9681 181.65 61.8983C181.712 61.8285 181.748 61.7338 181.748 61.635C181.748 61.5363 181.712 61.4417 181.65 61.3719C181.587 61.3021 181.502 61.2628 181.413 61.2628L155.454 60.4823C155.316 60.4725 155.179 60.494 155.049 60.5456C154.919 60.5972 154.8 60.6777 154.699 60.7822C154.598 60.8867 154.517 61.0131 154.462 61.1535C154.406 61.294 154.377 61.4455 154.376 61.599C154.376 61.599 154.257 89.2168 154.268 89.2168C154.267 89.3844 154.295 89.5506 154.352 89.7058C154.409 89.8609 154.493 90.0019 154.6 90.1204C154.706 90.2389 154.832 90.3326 154.972 90.396C155.111 90.4594 155.26 90.4912 155.411 90.4896L180.206 90.9459C180.411 90.9508 180.615 90.9094 180.805 90.8243C180.996 90.7391 181.169 90.612 181.314 90.4504C181.459 90.2889 181.573 90.0963 181.649 89.8843C181.726 89.6723 181.763 89.4452 181.758 89.2168L181.435 68.3354C181.438 68.162 181.41 67.9898 181.352 67.8289C181.294 67.668 181.208 67.5216 181.098 67.3985C180.988 67.2753 180.858 67.1779 180.714 67.112C180.57 67.046 180.416 67.0129 180.26 67.0145Z" fill="white" fill-opacity="0.2"/>
<path d="M145.757 61.7069C145.766 61.537 145.743 61.3668 145.689 61.2076C145.635 61.0484 145.551 60.9038 145.443 60.7835C145.335 60.6631 145.205 60.5697 145.062 60.5095C144.919 60.4492 144.766 60.4235 144.614 60.4341L119.819 59.9778C119.614 59.9729 119.41 60.0142 119.219 60.0994C119.029 60.1845 118.856 60.3117 118.711 60.4733C118.566 60.6348 118.452 60.8274 118.375 61.0394C118.299 61.2514 118.262 61.4785 118.266 61.7069L118.697 82.6243C118.703 82.96 118.825 83.2802 119.038 83.5175C119.251 83.7549 119.539 83.891 119.84 83.8971L138.167 84.3775C138.373 84.3792 138.577 84.3347 138.766 84.2467C138.956 84.1588 139.128 84.0291 139.272 83.8655C139.416 83.7019 139.529 83.5077 139.604 83.2944C139.679 83.0812 139.715 82.8533 139.709 82.6243L139.277 67.6867C139.287 67.5168 139.264 67.3466 139.21 67.1874C139.156 67.0282 139.072 66.8837 138.964 66.7633C138.856 66.643 138.726 66.5496 138.583 66.4893C138.44 66.4291 138.287 66.4034 138.135 66.4139L125.716 66.6781C125.475 66.6781 125.245 66.7844 125.075 66.9735C124.905 67.1627 124.81 67.4192 124.81 67.6867L124.939 76.6445C124.935 76.7594 124.952 76.8741 124.989 76.9813C125.026 77.0885 125.083 77.1859 125.156 77.2672C125.23 77.3485 125.317 77.412 125.413 77.4537C125.509 77.4953 125.612 77.5141 125.716 77.509L131.742 77.2209L131.839 77.2209C131.903 77.2163 131.965 77.1977 132.022 77.1663C132.08 77.1348 132.131 77.091 132.173 77.0375C132.215 76.9839 132.247 76.9216 132.267 76.8542C132.288 76.7868 132.296 76.7155 132.292 76.6445L132.044 72.5739C132.044 72.4911 132.014 72.4117 131.962 72.3531C131.909 72.2946 131.838 72.2617 131.763 72.2617C131.689 72.2617 131.618 72.2946 131.565 72.3531C131.513 72.4117 131.483 72.4911 131.483 72.5739L131.278 76.0321L126.535 75.804C126.535 74.6032 126.61 70.1483 126.621 68.7074L136.97 68.9355L136.625 80.9433L121.058 81.4236L121.403 63.412L143.514 63.0037L143.622 88.2199L118.697 88.9644C118.609 88.9644 118.524 89.0036 118.461 89.0734C118.398 89.1433 118.363 89.2379 118.363 89.3366C118.363 89.4354 118.398 89.5301 118.461 89.5999C118.524 89.6697 118.609 89.7089 118.697 89.7089L144.657 90.4894C144.794 90.4992 144.932 90.4777 145.062 90.4261C145.192 90.3745 145.311 90.294 145.412 90.1895C145.513 90.085 145.593 89.9586 145.649 89.8182C145.705 89.6777 145.734 89.5261 145.735 89.3727C145.735 89.3727 145.767 61.7309 145.757 61.7069Z" fill="white" fill-opacity="0.2"/>
<path d="M108.581 67.0163L90.2542 66.536C90.0457 66.5356 89.8393 66.5827 89.6477 66.6743C89.4561 66.7659 89.2834 66.9002 89.14 67.0689C88.9967 67.2375 88.8858 67.437 88.8141 67.6551C88.7425 67.8732 88.7116 68.1053 88.7233 68.3371L89.1545 83.2747C89.1449 83.4457 89.1683 83.617 89.223 83.7771C89.2777 83.9372 89.3625 84.0824 89.4718 84.203C89.581 84.3235 89.7122 84.4166 89.8564 84.4761C90.0007 84.5355 90.1547 84.5599 90.3081 84.5476L102.716 84.2834C102.836 84.285 102.954 84.26 103.065 84.2099C103.175 84.1598 103.276 84.0855 103.36 83.9916C103.444 83.8976 103.511 83.7857 103.556 83.6626C103.601 83.5395 103.623 83.4077 103.622 83.2747L103.503 74.317C103.507 74.2015 103.488 74.0865 103.45 73.9793C103.411 73.8721 103.353 73.7749 103.279 73.6937C103.205 73.6126 103.117 73.5493 103.02 73.5078C102.924 73.4663 102.82 73.4474 102.716 73.4524L96.6901 73.7286L96.6255 73.7286C96.4958 73.7379 96.3746 73.8035 96.2879 73.9113C96.2012 74.019 96.156 74.1604 96.1619 74.305L96.4099 78.3756C96.4099 78.4584 96.4394 78.5378 96.4919 78.5964C96.5445 78.6549 96.6158 78.6878 96.6901 78.6878C96.7645 78.6878 96.8358 78.6549 96.8883 78.5964C96.9409 78.5378 96.9704 78.4584 96.9704 78.3756L97.1753 74.9173L101.929 75.1455L101.832 82.2421L91.4831 82.0139L91.8281 70.0062L107.428 69.5979L107.072 87.6095L84.9609 88.0178L84.8639 62.8016L109.778 62.0571C109.866 62.0571 109.951 62.0179 110.014 61.9481C110.077 61.8783 110.112 61.7836 110.112 61.6849C110.112 61.5861 110.077 61.4914 110.014 61.4216C109.951 61.3518 109.866 61.3126 109.778 61.3126L83.8182 60.5321C83.5449 60.5314 83.2815 60.6463 83.0814 60.8536C82.8812 61.0609 82.7593 61.3452 82.7401 61.6488C82.7401 61.6488 82.6215 89.2666 82.6323 89.2666C82.6351 89.6032 82.7564 89.9251 82.9701 90.1632C83.1838 90.4012 83.4729 90.5363 83.7751 90.5394L108.57 90.9957C108.775 91.0006 108.979 90.9593 109.17 90.8741C109.36 90.7889 109.533 90.6617 109.678 90.5002C109.823 90.3386 109.937 90.1461 110.014 89.9341C110.09 89.7221 110.127 89.495 110.123 89.2666L109.713 68.2891C109.708 67.9555 109.587 67.637 109.376 67.4C109.165 67.1629 108.881 67.0255 108.581 67.0163Z" fill="white" fill-opacity="0.2"/>
<path d="M74.0898 61.7092C74.0912 61.5416 74.0627 61.3754 74.0057 61.2202C73.9488 61.0651 73.8647 60.9241 73.7583 60.8056C73.6519 60.6871 73.5254 60.5934 73.3861 60.53C73.2468 60.4666 73.0975 60.4348 72.9471 60.4364L48.1518 59.9801C47.9459 59.9735 47.7408 60.0137 47.5492 60.0981C47.3576 60.1825 47.1834 60.3094 47.0372 60.4711C46.891 60.6329 46.7759 60.826 46.6987 61.0388C46.6216 61.2517 46.5842 61.4797 46.5887 61.7092L47.0199 82.6266C47.0282 82.9634 47.1527 83.2836 47.3675 83.5207C47.5824 83.7577 47.871 83.8934 48.1734 83.8995L66.5003 84.3798C66.709 84.3882 66.9171 84.3486 67.1114 84.2635C67.3058 84.1783 67.4823 84.0495 67.63 83.885C67.7777 83.7205 67.8934 83.5239 67.9698 83.3074C68.0462 83.0909 68.0818 82.8591 68.0743 82.6266L67.6431 67.689C67.6525 67.5192 67.6294 67.349 67.5753 67.1898C67.5213 67.0306 67.4374 66.886 67.3294 66.7656C67.2213 66.6453 67.0915 66.5519 66.9486 66.4916C66.8056 66.4314 66.6528 66.4057 66.5003 66.4162L54.0811 66.6804C53.9623 66.6787 53.8444 66.7038 53.7345 66.7541C53.6245 66.8043 53.5248 66.8787 53.4413 66.9729C53.3577 67.0671 53.2921 67.179 53.2483 67.302C53.2045 67.4251 53.1834 67.5567 53.1863 67.689L53.3049 76.6468C53.3003 76.7617 53.3173 76.8764 53.3547 76.9836C53.392 77.0908 53.449 77.1882 53.5221 77.2695C53.5951 77.3508 53.6825 77.4143 53.7787 77.456C53.875 77.4976 53.978 77.5165 54.0811 77.5113L60.1182 77.2232L60.1829 77.2232C60.2467 77.2186 60.309 77.2 60.3663 77.1686C60.4236 77.1371 60.4747 77.0933 60.5168 77.0398C60.5589 76.9862 60.591 76.9239 60.6114 76.8565C60.6318 76.7891 60.6401 76.7178 60.6357 76.6468L60.3985 72.5762C60.3985 72.4934 60.369 72.414 60.3164 72.3554C60.2638 72.2969 60.1926 72.264 60.1182 72.264C60.0439 72.264 59.9726 72.2969 59.92 72.3554C59.8675 72.414 59.8379 72.4934 59.8379 72.5762L59.6223 76.0344L54.8789 75.8063L54.9759 68.7097L65.3252 68.9379L64.9803 80.9456L49.3808 81.3538L49.7366 63.3423L71.8475 62.934L71.9445 88.1502L47.0306 88.8947C46.942 88.8947 46.857 88.9339 46.7943 89.0037C46.7317 89.0735 46.6964 89.1682 46.6964 89.2669C46.6964 89.3656 46.7317 89.4603 46.7943 89.5301C46.857 89.5999 46.942 89.6391 47.0306 89.6391L72.9902 90.4197C73.1237 90.4229 73.2563 90.3963 73.3805 90.3416C73.5046 90.287 73.6177 90.2052 73.7131 90.1012C73.8085 89.9972 73.8843 89.873 73.936 89.7359C73.9877 89.5988 74.0144 89.4516 74.0143 89.3029C74.0143 89.3029 74.0898 61.7332 74.0898 61.7092Z" fill="white" fill-opacity="0.2"/>
<path d="M36.912 67.0163L18.5851 66.536C18.3764 66.5276 18.1684 66.5672 17.974 66.6523C17.7796 66.7374 17.6031 66.8663 17.4554 67.0308C17.3077 67.1953 17.192 67.3919 17.1156 67.6084C17.0392 67.8249 17.0036 68.0566 17.0112 68.2891L17.4424 83.2267C17.4248 83.407 17.4441 83.5895 17.4989 83.7603C17.5537 83.9311 17.6426 84.0859 17.7588 84.213C17.8749 84.3401 18.0155 84.4363 18.1698 84.4942C18.3241 84.5521 18.4882 84.5704 18.6498 84.5476L31.069 84.2834C31.1874 84.2834 31.3047 84.2572 31.4139 84.2064C31.5232 84.1556 31.6223 84.0811 31.7056 83.9872C31.7888 83.8934 31.8544 83.7821 31.8988 83.6598C31.9431 83.5375 31.9652 83.4066 31.9638 83.2747L31.8452 74.317C31.8498 74.2021 31.8328 74.0874 31.7955 73.9802C31.7581 73.873 31.7011 73.7756 31.628 73.6943C31.555 73.6129 31.4676 73.5494 31.3714 73.5078C31.2751 73.4662 31.1721 73.4473 31.069 73.4524L25.0427 73.7286L24.9672 73.7286C24.9029 73.7315 24.8399 73.749 24.7819 73.78C24.7239 73.8109 24.6721 73.8547 24.6298 73.9086C24.5874 73.9625 24.5554 74.0254 24.5355 74.0936C24.5157 74.1617 24.5085 74.2336 24.5144 74.305L24.7516 78.3756C24.7645 78.4494 24.8001 78.5159 24.8522 78.5637C24.9043 78.6115 24.9697 78.6377 25.0373 78.6377C25.1048 78.6377 25.1702 78.6115 25.2223 78.5637C25.2744 78.5159 25.31 78.4494 25.323 78.3756L25.5278 74.9173L30.2712 75.1455C30.2712 76.3463 30.1958 80.8011 30.1742 82.2421L19.8249 82.0139L20.1699 70.0062L35.7693 69.5979C35.7693 71.6873 35.4674 84.8838 35.4243 87.6095L13.3027 88.0178C13.3027 85.7603 13.2164 64.7828 13.2056 62.8016L38.1195 62.0571C38.2081 62.0571 38.2931 62.0179 38.3558 61.9481C38.4185 61.8783 38.4537 61.7836 38.4537 61.6849C38.4537 61.5861 38.4185 61.4914 38.3558 61.4216C38.2931 61.3518 38.2081 61.3126 38.1195 61.3126L12.1707 60.5321C12.0332 60.5223 11.8953 60.5438 11.7655 60.5954C11.6357 60.647 11.5168 60.7275 11.4159 60.832C11.315 60.9365 11.2342 61.0629 11.1787 61.2033C11.1231 61.3437 11.0938 61.4954 11.0926 61.6488L10.9741 89.2666C10.9769 89.6053 11.0997 89.929 11.3157 90.1673C11.5317 90.4057 11.8235 90.5394 12.1276 90.5394L36.9228 90.9957C37.1279 91.0006 37.3317 90.9593 37.5221 90.8741C37.7124 90.7889 37.8853 90.6617 38.0304 90.5002C38.1754 90.3386 38.2896 90.1461 38.366 89.9341C38.4425 89.7221 38.4796 89.495 38.4752 89.2666L38.0548 68.3371C38.0577 67.9941 37.9396 67.6635 37.7259 67.4164C37.5122 67.1694 37.2199 67.0257 36.912 67.0163Z" fill="white" fill-opacity="0.2"/>
<path d="M36.913 161.445L18.5861 160.964C18.3773 160.959 18.1697 161.002 17.976 161.089C17.7823 161.176 17.6065 161.306 17.4594 161.471C17.3122 161.636 17.1966 161.833 17.1197 162.049C17.0429 162.265 17.0063 162.497 17.0121 162.729L17.4434 177.655C17.4405 177.824 17.468 177.991 17.5242 178.148C17.5805 178.304 17.6644 178.447 17.7709 178.566C17.8775 178.686 18.0045 178.781 18.1445 178.845C18.2846 178.909 18.4347 178.941 18.5861 178.94L31.0053 178.664C31.1241 178.665 31.242 178.64 31.352 178.59C31.4619 178.54 31.5616 178.465 31.6451 178.371C31.7287 178.277 31.7943 178.165 31.8381 178.042C31.8819 177.919 31.903 177.787 31.9001 177.655L31.7815 168.709C31.786 168.594 31.769 168.479 31.7318 168.371C31.6945 168.263 31.6377 168.165 31.5648 168.083C31.492 168 31.4047 167.936 31.3084 167.893C31.2122 167.85 31.1089 167.829 31.0053 167.833L24.9789 168.121L24.9035 168.121C24.7738 168.133 24.6536 168.202 24.5689 168.312C24.4842 168.422 24.4418 168.565 24.4507 168.709L24.6879 172.78C24.7008 172.854 24.7364 172.92 24.7885 172.968C24.8406 173.016 24.906 173.042 24.9736 173.042C25.0411 173.042 25.1065 173.016 25.1586 172.968C25.2107 172.92 25.2463 172.854 25.2593 172.78L25.4641 169.31L30.2075 169.538L30.1105 176.634L19.7612 176.406L20.1062 164.398L35.7056 163.99L35.3606 182.002L13.2605 182.41L13.1635 157.194L38.0557 156.473C38.1354 156.457 38.2076 156.411 38.2596 156.342C38.3115 156.273 38.34 156.185 38.34 156.095C38.34 156.005 38.3115 155.918 38.2596 155.848C38.2076 155.779 38.1354 155.733 38.0557 155.717L12.107 154.948C11.9688 154.935 11.8296 154.954 11.6983 155.004C11.5671 155.054 11.4468 155.135 11.3452 155.24C11.2436 155.345 11.163 155.473 11.1085 155.615C11.054 155.757 11.0269 155.911 11.0289 156.065L10.9104 183.683C10.9104 184.024 11.0319 184.35 11.2482 184.591C11.4645 184.832 11.7579 184.968 12.0639 184.968L36.8591 185.424C37.0651 185.429 37.2699 185.387 37.461 185.301C37.652 185.215 37.8254 185.087 37.9706 184.924C38.1158 184.761 38.2298 184.567 38.3056 184.354C38.3813 184.141 38.4174 183.912 38.4115 183.683L38.0019 162.717C37.9922 162.393 37.8759 162.085 37.6752 161.85C37.4744 161.615 37.2031 161.471 36.913 161.445Z" fill="white" fill-opacity="0.2"/>
<path d="M74.0898 156.102C74.0899 155.764 73.9698 155.439 73.7558 155.198C73.5418 154.958 73.2512 154.821 72.9471 154.818L48.1519 154.361C47.945 154.355 47.739 154.395 47.5467 154.48C47.3543 154.565 47.1796 154.694 47.0333 154.857C46.8869 155.02 46.772 155.214 46.6955 155.428C46.6191 155.643 46.5828 155.872 46.5887 156.102L46.9983 177.08C47.0092 177.416 47.1346 177.734 47.3489 177.971C47.5632 178.207 47.8503 178.344 48.1519 178.353L66.4788 178.833C66.6875 178.841 66.8956 178.802 67.0899 178.717C67.2843 178.632 67.4608 178.503 67.6085 178.338C67.7562 178.174 67.8719 177.977 67.9483 177.761C68.0247 177.544 68.0603 177.312 68.0527 177.08L67.6215 162.142C67.6244 161.974 67.5969 161.806 67.5407 161.65C67.4844 161.493 67.4005 161.351 67.2939 161.231C67.1874 161.111 67.0603 161.016 66.9203 160.952C66.7803 160.888 66.6302 160.856 66.4788 160.858L54.0596 161.134C53.9408 161.132 53.8229 161.157 53.7129 161.207C53.603 161.258 53.5033 161.332 53.4198 161.426C53.3362 161.52 53.2706 161.632 53.2268 161.755C53.183 161.878 53.1619 162.01 53.1648 162.142L53.2834 171.088C53.2789 171.204 53.2959 171.319 53.3331 171.427C53.3704 171.534 53.4272 171.632 53.5001 171.715C53.5729 171.797 53.6602 171.862 53.7564 171.905C53.8527 171.948 53.9559 171.968 54.0596 171.965L60.0967 171.676L60.1614 171.676C60.2911 171.664 60.4113 171.596 60.496 171.486C60.5807 171.375 60.6231 171.233 60.6142 171.088L60.377 167.029C60.377 166.947 60.3475 166.867 60.2949 166.809C60.2423 166.75 60.1711 166.717 60.0967 166.717C60.0224 166.717 59.9511 166.75 59.8985 166.809C59.8459 166.867 59.8164 166.947 59.8164 167.029L59.6008 170.488L54.8574 170.26L54.9544 163.163L65.3037 163.391L64.9587 175.399L49.3593 175.807C49.3593 173.706 49.6612 160.521 49.7151 157.796L71.8259 157.387C71.8259 159.645 71.923 180.622 71.923 182.603L47.0091 183.348C46.9294 183.364 46.8573 183.41 46.8054 183.48C46.7534 183.549 46.7249 183.636 46.7249 183.726C46.7249 183.816 46.7534 183.904 46.8054 183.973C46.8573 184.042 46.9294 184.089 47.0091 184.104L72.9687 184.873C73.1025 184.878 73.2359 184.852 73.3607 184.798C73.4855 184.744 73.5992 184.663 73.6949 184.558C73.7906 184.454 73.8663 184.329 73.9175 184.191C73.9688 184.053 73.9944 183.905 73.9928 183.756C73.9928 183.756 74.0898 156.126 74.0898 156.102Z" fill="white" fill-opacity="0.2"/>
<path d="M108.581 161.444L90.2538 160.964C90.0441 160.958 89.8354 160.999 89.6404 161.085C89.4454 161.171 89.2683 161.301 89.12 161.466C88.9716 161.632 88.8551 161.829 88.7776 162.046C88.7001 162.263 88.6631 162.496 88.6691 162.729L89.1003 177.655C89.0974 177.824 89.1249 177.991 89.1812 178.148C89.2374 178.304 89.3213 178.447 89.4279 178.566C89.5344 178.686 89.6615 178.781 89.8015 178.845C89.9415 178.909 90.0917 178.941 90.243 178.94L102.738 178.688C102.857 178.691 102.976 178.667 103.088 178.618C103.199 178.568 103.3 178.494 103.385 178.399C103.469 178.305 103.536 178.193 103.58 178.069C103.625 177.945 103.646 177.812 103.643 177.679L103.525 168.733C103.529 168.617 103.512 168.5 103.474 168.392C103.436 168.283 103.378 168.184 103.304 168.102C103.23 168.02 103.142 167.955 103.044 167.913C102.947 167.871 102.842 167.852 102.738 167.857L96.7114 168.145L96.6467 168.145C96.5161 168.157 96.3949 168.225 96.3084 168.335C96.222 168.445 96.1771 168.587 96.1831 168.733L96.4311 172.804C96.4311 172.887 96.4606 172.966 96.5132 173.025C96.5657 173.083 96.637 173.116 96.7114 173.116C96.7857 173.116 96.857 173.083 96.9096 173.025C96.9621 172.966 96.9917 172.887 96.9917 172.804L97.1965 169.334L101.951 169.562L101.854 176.658L91.5043 176.43C91.5583 174.605 91.7847 166.896 91.8493 164.422L107.449 164.014L107.093 182.026L84.9821 182.434L84.8851 157.218L109.799 156.473C109.879 156.457 109.951 156.411 110.003 156.342C110.055 156.273 110.083 156.185 110.083 156.095C110.083 156.005 110.055 155.918 110.003 155.848C109.951 155.779 109.879 155.733 109.799 155.717L83.8394 154.948C83.7015 154.937 83.563 154.957 83.4325 155.008C83.302 155.059 83.1824 155.139 83.0812 155.244C82.9799 155.349 82.8992 155.476 82.8442 155.617C82.7892 155.759 82.761 155.911 82.7613 156.065C82.7613 156.065 82.6428 183.683 82.6535 183.683C82.6535 184.021 82.7736 184.346 82.9876 184.587C83.2016 184.828 83.4922 184.964 83.7963 184.968L108.592 185.424C108.798 185.429 109.002 185.387 109.193 185.301C109.384 185.215 109.558 185.087 109.703 184.924C109.848 184.761 109.962 184.567 110.038 184.354C110.114 184.141 110.15 183.912 110.144 183.683L109.734 162.717C109.723 162.382 109.598 162.063 109.384 161.827C109.169 161.59 108.882 161.453 108.581 161.444Z" fill="white" fill-opacity="0.2"/>
<path d="M145.757 156.102C145.759 155.934 145.73 155.767 145.673 155.611C145.617 155.455 145.533 155.314 145.426 155.194C145.32 155.075 145.194 154.98 145.054 154.915C144.915 154.85 144.766 154.817 144.615 154.817L119.819 154.361C119.613 154.356 119.409 154.397 119.218 154.483C119.026 154.569 118.853 154.697 118.708 154.86C118.563 155.023 118.449 155.217 118.373 155.431C118.297 155.644 118.261 155.872 118.267 156.102L118.677 177.079C118.685 177.414 118.808 177.733 119.02 177.969C119.233 178.206 119.519 178.343 119.819 178.352L138.146 178.832C138.355 178.839 138.562 178.798 138.756 178.713C138.949 178.627 139.125 178.498 139.273 178.334C139.42 178.17 139.536 177.974 139.613 177.758C139.69 177.542 139.726 177.311 139.72 177.079L139.289 162.142C139.292 161.973 139.264 161.806 139.208 161.649C139.152 161.492 139.068 161.35 138.961 161.23C138.855 161.111 138.728 161.016 138.588 160.952C138.448 160.887 138.298 160.855 138.146 160.857L125.727 161.133C125.608 161.131 125.489 161.156 125.379 161.207C125.268 161.257 125.168 161.331 125.084 161.425C124.999 161.519 124.933 161.631 124.888 161.754C124.843 161.877 124.82 162.009 124.822 162.142L124.951 171.087C124.945 171.203 124.961 171.319 124.997 171.428C125.034 171.537 125.091 171.636 125.164 171.718C125.237 171.801 125.325 171.865 125.422 171.908C125.519 171.95 125.623 171.969 125.727 171.964L131.753 171.676L131.84 171.676C131.969 171.664 132.09 171.595 132.174 171.485C132.259 171.375 132.301 171.232 132.292 171.087L132.045 167.029C132.045 166.946 132.015 166.867 131.962 166.808C131.91 166.75 131.839 166.717 131.764 166.717C131.69 166.717 131.619 166.75 131.566 166.808C131.513 166.867 131.484 166.946 131.484 167.029L131.279 170.487L126.536 170.259L126.622 163.162L136.971 163.391L136.626 175.398L121.038 175.807C121.038 173.705 121.329 160.521 121.383 157.795L143.493 157.387L143.601 182.603L118.677 183.347C118.597 183.363 118.525 183.41 118.473 183.479C118.421 183.548 118.392 183.635 118.392 183.726C118.392 183.816 118.421 183.903 118.473 183.972C118.525 184.041 118.597 184.088 118.677 184.104L144.636 184.872C144.774 184.884 144.913 184.864 145.043 184.813C145.174 184.762 145.293 184.681 145.394 184.577C145.496 184.472 145.576 184.345 145.631 184.203C145.686 184.062 145.715 183.91 145.714 183.756C145.714 183.756 145.768 156.126 145.757 156.102Z" fill="white" fill-opacity="0.2"/>
<path d="M180.26 161.444L161.933 160.964C161.724 160.959 161.516 161.002 161.323 161.089C161.129 161.176 160.953 161.306 160.806 161.471C160.659 161.636 160.543 161.833 160.466 162.049C160.389 162.265 160.353 162.497 160.359 162.729L160.79 177.655C160.787 177.824 160.815 177.991 160.871 178.148C160.927 178.304 161.011 178.447 161.118 178.566C161.224 178.686 161.351 178.781 161.491 178.845C161.631 178.909 161.781 178.941 161.933 178.94L174.352 178.664C174.471 178.665 174.59 178.64 174.7 178.59C174.811 178.54 174.911 178.466 174.995 178.372C175.08 178.278 175.146 178.166 175.191 178.043C175.236 177.92 175.259 177.788 175.257 177.655L175.128 168.709C175.134 168.593 175.118 168.477 175.082 168.369C175.045 168.26 174.988 168.161 174.915 168.078C174.842 167.996 174.754 167.931 174.657 167.889C174.56 167.847 174.456 167.827 174.352 167.833L168.326 168.121L168.25 168.121C168.12 168.133 168 168.202 167.916 168.312C167.831 168.422 167.788 168.565 167.797 168.709L168.045 172.78C168.045 172.863 168.075 172.942 168.127 173.001C168.18 173.059 168.251 173.092 168.326 173.092C168.4 173.092 168.471 173.059 168.524 173.001C168.576 172.942 168.606 172.863 168.606 172.78L168.811 169.31L173.554 169.538C173.554 170.738 173.479 175.205 173.468 176.634L163.119 176.406L163.464 164.398L179.052 163.99L178.707 182.002L156.639 182.41L156.532 157.194L181.435 156.473C181.514 156.457 181.587 156.411 181.638 156.342C181.69 156.273 181.719 156.185 181.719 156.095C181.719 156.005 181.69 155.918 181.638 155.848C181.587 155.779 181.514 155.733 181.435 155.717L155.475 154.948C155.337 154.937 155.199 154.957 155.068 155.008C154.938 155.059 154.818 155.139 154.717 155.244C154.616 155.349 154.535 155.476 154.48 155.617C154.425 155.759 154.397 155.911 154.397 156.065C154.397 156.065 154.278 183.683 154.289 183.683C154.288 183.851 154.316 184.018 154.373 184.174C154.43 184.329 154.514 184.471 154.62 184.591C154.726 184.71 154.853 184.805 154.992 184.87C155.132 184.934 155.281 184.968 155.432 184.968L180.227 185.424C180.433 185.429 180.638 185.387 180.829 185.301C181.02 185.215 181.194 185.087 181.339 184.924C181.484 184.761 181.598 184.567 181.674 184.354C181.749 184.141 181.786 183.912 181.78 183.683L181.37 162.717C181.36 162.389 181.241 162.078 181.035 161.842C180.83 161.607 180.554 161.465 180.26 161.444Z" fill="white" fill-opacity="0.2"/>
<path d="M217.445 156.102C217.445 155.764 217.325 155.439 217.111 155.198C216.897 154.958 216.606 154.821 216.302 154.818L191.507 154.361C191.3 154.358 191.096 154.401 190.905 154.487C190.714 154.574 190.541 154.702 190.395 154.864C190.249 155.026 190.134 155.22 190.056 155.432C189.979 155.645 189.941 155.873 189.943 156.102L190.353 177.08C190.364 177.416 190.489 177.734 190.704 177.971C190.918 178.207 191.205 178.344 191.507 178.353L209.833 178.833C210.043 178.841 210.251 178.802 210.446 178.717C210.641 178.632 210.818 178.503 210.967 178.339C211.115 178.175 211.232 177.978 211.31 177.762C211.387 177.545 211.424 177.313 211.418 177.08L210.987 162.142C210.99 161.973 210.962 161.804 210.905 161.647C210.848 161.489 210.763 161.347 210.656 161.227C210.548 161.107 210.42 161.012 210.278 160.949C210.137 160.885 209.986 160.854 209.833 160.858L197.425 161.134C197.305 161.13 197.186 161.154 197.075 161.204C196.964 161.253 196.863 161.327 196.778 161.422C196.693 161.516 196.627 161.629 196.582 161.752C196.538 161.876 196.517 162.009 196.52 162.142L196.638 171.088C196.634 171.205 196.651 171.321 196.689 171.429C196.727 171.538 196.784 171.637 196.858 171.719C196.932 171.802 197.021 171.866 197.119 171.908C197.216 171.951 197.321 171.97 197.425 171.965L203.451 171.676L203.516 171.676C203.647 171.664 203.768 171.596 203.854 171.486C203.941 171.377 203.986 171.234 203.98 171.088L203.732 167.029C203.732 166.947 203.702 166.867 203.65 166.809C203.597 166.75 203.526 166.717 203.451 166.717C203.377 166.717 203.306 166.75 203.253 166.809C203.201 166.867 203.171 166.947 203.171 167.029L202.956 170.488L198.212 170.26L198.309 163.163L208.658 163.391L208.313 175.399L192.714 175.807L193.07 157.796L215.181 157.387L215.278 182.603L190.364 183.348C190.284 183.364 190.212 183.41 190.16 183.48C190.108 183.549 190.08 183.636 190.08 183.726C190.08 183.816 190.108 183.904 190.16 183.973C190.212 184.042 190.284 184.089 190.364 184.104L216.323 184.873C216.457 184.878 216.591 184.852 216.715 184.798C216.84 184.744 216.954 184.663 217.05 184.558C217.145 184.454 217.221 184.329 217.272 184.191C217.323 184.053 217.349 183.905 217.348 183.756C217.348 183.756 217.455 156.126 217.445 156.102Z" fill="white" fill-opacity="0.2"/>
<path d="M251.929 161.443L233.602 160.963C233.393 160.956 233.184 160.997 232.99 161.084C232.796 161.17 232.619 161.3 232.472 161.466C232.324 161.631 232.209 161.828 232.132 162.046C232.056 162.263 232.02 162.495 232.028 162.728L232.448 177.654C232.447 177.823 232.476 177.991 232.533 178.147C232.591 178.304 232.676 178.446 232.783 178.566C232.89 178.685 233.018 178.78 233.159 178.844C233.299 178.908 233.45 178.94 233.602 178.938L246.01 178.662C246.13 178.665 246.249 178.642 246.36 178.592C246.471 178.543 246.572 178.468 246.657 178.374C246.742 178.28 246.808 178.167 246.853 178.043C246.897 177.92 246.919 177.787 246.916 177.654L246.797 168.708C246.802 168.591 246.785 168.475 246.747 168.366C246.709 168.258 246.651 168.159 246.577 168.077C246.503 167.994 246.414 167.93 246.317 167.888C246.219 167.845 246.115 167.826 246.01 167.831L239.984 168.119L239.919 168.119C239.789 168.132 239.667 168.2 239.581 168.31C239.495 168.419 239.45 168.562 239.456 168.708L239.704 172.778C239.704 172.861 239.733 172.941 239.786 172.999C239.838 173.058 239.91 173.091 239.984 173.091C240.058 173.091 240.13 173.058 240.182 172.999C240.235 172.941 240.264 172.861 240.264 172.778L240.48 169.308L245.223 169.536L245.126 176.633L234.777 176.405L235.122 164.397L250.721 163.989L250.366 182L228.255 182.409L228.158 157.192L253.071 156.448C253.151 156.432 253.223 156.385 253.275 156.316C253.327 156.247 253.356 156.16 253.356 156.07C253.356 155.98 253.327 155.892 253.275 155.823C253.223 155.754 253.151 155.707 253.071 155.691L227.112 154.923C226.978 154.918 226.845 154.943 226.72 154.998C226.595 155.052 226.481 155.133 226.386 155.238C226.29 155.342 226.214 155.467 226.163 155.605C226.112 155.743 226.086 155.891 226.088 156.04C226.088 156.04 225.958 183.657 225.969 183.657C225.969 183.996 226.089 184.321 226.303 184.562C226.517 184.802 226.808 184.939 227.112 184.942L251.907 185.399C252.114 185.403 252.319 185.362 252.511 185.276C252.702 185.19 252.876 185.062 253.022 184.9C253.168 184.737 253.283 184.543 253.36 184.329C253.437 184.116 253.475 183.887 253.47 183.657L253.061 162.692C253.043 162.365 252.917 162.058 252.708 161.827C252.5 161.597 252.222 161.46 251.929 161.443Z" fill="white" fill-opacity="0.2"/>
<path d="M289.11 156.1C289.111 155.932 289.083 155.765 289.026 155.609C288.969 155.454 288.885 155.312 288.779 155.192C288.672 155.073 288.546 154.978 288.407 154.913C288.267 154.849 288.118 154.815 287.967 154.815L263.172 154.359C262.966 154.354 262.761 154.396 262.57 154.482C262.379 154.568 262.205 154.696 262.06 154.859C261.915 155.022 261.801 155.216 261.725 155.429C261.649 155.643 261.613 155.871 261.619 156.1L262.029 177.078C262.037 177.412 262.16 177.731 262.373 177.968C262.585 178.204 262.871 178.341 263.172 178.351L281.499 178.831C281.707 178.838 281.914 178.797 282.108 178.711C282.301 178.625 282.477 178.496 282.625 178.332C282.772 178.168 282.888 177.972 282.965 177.756C283.042 177.541 283.078 177.31 283.072 177.078L282.641 162.14C282.644 161.972 282.617 161.804 282.56 161.647C282.504 161.491 282.42 161.349 282.314 161.229C282.207 161.109 282.08 161.014 281.94 160.95C281.8 160.886 281.65 160.854 281.499 160.855L269.079 161.132C268.961 161.13 268.843 161.155 268.733 161.205C268.623 161.255 268.523 161.33 268.439 161.424C268.356 161.518 268.29 161.63 268.247 161.753C268.203 161.876 268.182 162.008 268.185 162.14L268.303 171.086C268.299 171.201 268.316 171.317 268.353 171.424C268.39 171.532 268.447 171.63 268.52 171.713C268.593 171.795 268.68 171.859 268.776 171.902C268.872 171.945 268.976 171.966 269.079 171.962L275.106 171.674L275.181 171.674C275.311 171.662 275.431 171.593 275.516 171.483C275.6 171.373 275.643 171.231 275.634 171.086L275.397 167.027C275.384 166.953 275.348 166.887 275.296 166.839C275.244 166.791 275.179 166.765 275.111 166.765C275.044 166.765 274.978 166.791 274.926 166.839C274.874 166.887 274.838 166.953 274.825 167.027L274.621 170.486L269.834 170.281C269.834 169.081 269.909 164.626 269.931 163.185L280.27 163.413L279.925 175.421L264.336 175.829C264.336 173.728 264.638 160.543 264.681 157.817L286.803 157.409C286.803 159.667 286.889 180.644 286.9 182.625L261.986 183.37C261.906 183.386 261.834 183.432 261.782 183.501C261.73 183.571 261.702 183.658 261.702 183.748C261.702 183.838 261.73 183.926 261.782 183.995C261.834 184.064 261.906 184.11 261.986 184.126L287.935 184.895C288.072 184.906 288.211 184.886 288.341 184.835C288.472 184.784 288.592 184.704 288.693 184.599C288.794 184.494 288.875 184.367 288.93 184.226C288.985 184.084 289.013 183.932 289.013 183.778C289.013 183.778 289.12 156.124 289.11 156.1Z" fill="white" fill-opacity="0.2"/>
</g>
</svg>
